{"glyphs":{"0":{"ha":828,"x_min":63,"x_max":765,"o":"m 239 919 q 279 953 239 919 q 413 986 319 986 q 588 919 507 986 q 717 737 669 853 q 765 486 765 621 q 717 235 765 351 q 588 53 669 119 q 413 -14 507 -14 q 239 53 319 -14 q 110 235 158 119 q 63 486 63 351 q 110 737 63 621 q 239 919 158 853 m 281 68 q 311 34 281 68 q 414 0 342 0 q 547 68 486 0 q 642 248 608 136 q 676 486 676 360 q 642 724 676 613 q 547 904 608 836 q 414 972 486 972 q 281 904 342 972 q 185 724 219 836 q 150 486 150 613 q 185 248 150 360 q 281 68 219 136 z "},"1":{"ha":307,"x_min":57,"x_max":242,"o":"m 200 40 q 240 7 200 7 l 240 0 l 79 0 l 79 7 q 119 40 119 7 l 119 831 q 79 864 119 864 l 58 864 l 58 871 q 96 887 78 878 q 126 905 114 896 q 151 924 139 914 q 170 942 163 933 q 183 958 178 951 q 190 968 189 964 l 193 972 l 200 972 l 200 40 z "},"2":{"ha":640,"x_min":42,"x_max":582,"o":"m 535 81 q 568 122 568 81 l 575 122 l 575 0 l 42 0 q 86 141 60 75 q 143 256 113 207 q 208 347 174 304 q 276 423 242 389 q 342 489 310 457 q 401 552 374 521 q 450 616 429 583 q 483 690 471 649 q 494 776 494 731 q 481 859 494 817 q 431 937 467 901 q 346 972 396 972 q 96 776 167 972 l 110 899 q 222 967 168 947 q 346 986 275 986 q 512 924 442 986 q 582 756 582 861 q 562 655 582 701 q 507 572 542 608 q 429 500 472 535 q 337 425 386 465 q 242 340 288 385 q 152 227 196 294 q 79 81 108 160 l 535 81 z "},"3":{"ha":704,"x_min":43,"x_max":646,"o":"m 340 546 q 567 456 490 536 q 644 269 644 376 q 597 115 644 181 q 481 17 550 49 q 335 -14 411 -14 q 61 69 169 -14 l 43 207 q 149 64 69 128 q 335 0 228 0 q 428 21 388 0 q 493 72 469 42 q 532 142 517 103 q 552 214 547 182 q 557 275 557 246 q 488 459 557 385 q 293 533 418 533 l 293 547 q 501 793 501 599 q 458 916 501 860 q 354 972 415 972 q 203 922 256 972 q 117 776 151 871 l 132 899 q 240 966 190 946 q 354 986 289 986 q 434 975 396 986 q 508 941 472 964 q 565 876 543 918 q 586 776 586 833 q 564 690 586 729 q 503 622 542 650 q 425 577 464 594 q 340 546 386 560 z "},"4":{"ha":663,"x_min":18,"x_max":613,"o":"m 606 446 l 613 446 l 613 324 l 504 324 l 504 40 q 544 7 504 7 l 544 0 l 383 0 l 383 7 q 424 40 424 7 l 424 324 l 18 324 l 490 972 l 504 972 l 504 406 l 572 406 q 606 446 606 406 m 90 406 l 424 406 l 424 861 l 90 406 z "},"5":{"ha":704,"x_min":36,"x_max":646,"o":"m 176 582 q 297 607 233 604 q 423 592 361 610 q 534 538 485 574 q 614 439 583 501 q 644 297 644 376 q 596 135 644 208 q 475 24 547 61 q 328 -14 403 -14 q 54 69 163 -14 l 36 207 q 142 64 63 128 q 328 0 221 0 q 435 27 389 0 q 506 99 482 54 q 540 190 529 144 q 550 283 550 236 q 527 433 550 369 q 466 530 504 496 q 378 579 428 564 q 276 590 328 594 q 172 567 224 586 l 158 567 l 267 972 l 597 972 l 597 850 l 590 850 q 557 892 590 892 l 258 892 l 176 582 z "},"6":{"ha":647,"x_min":60,"x_max":600,"o":"m 168 358 q 213 458 182 418 q 283 513 244 499 q 366 527 322 528 q 451 504 410 526 q 526 449 493 482 q 580 365 560 415 q 600 257 600 314 q 528 65 600 143 q 343 -14 457 -14 q 142 88 224 -14 q 60 378 60 190 q 95 580 60 478 q 188 761 131 682 q 316 897 244 840 q 458 972 388 954 l 458 958 q 353 883 407 939 q 253 751 299 828 q 177 576 207 675 q 147 378 147 476 q 207 96 147 192 q 343 0 267 0 q 469 75 415 0 q 513 269 522 150 q 407 468 501 411 q 260 474 332 514 q 181 358 197 440 l 168 358 z "},"7":{"ha":522,"x_min":26,"x_max":513,"o":"m 26 972 l 513 972 q 483 922 501 954 q 419 785 465 889 q 337 574 372 682 q 272 308 301 465 q 243 0 243 150 l 161 0 q 192 258 161 121 q 265 502 222 394 q 351 701 308 610 q 424 842 394 792 l 454 892 l 67 892 q 33 850 33 892 l 26 850 l 26 972 z "},"8":{"ha":768,"x_min":58,"x_max":708,"o":"m 450 551 q 642 444 575 515 q 708 269 708 372 q 613 69 708 153 q 383 -14 518 -14 q 221 17 293 -14 q 104 114 149 49 q 60 269 60 179 q 135 451 60 375 q 324 547 210 528 q 171 635 228 576 q 114 768 114 693 q 191 927 114 868 q 383 986 268 986 q 519 960 458 986 q 617 885 581 935 q 654 768 654 835 q 596 633 654 693 q 450 551 538 572 m 201 768 q 250 633 201 679 q 383 567 299 586 q 419 560 401 564 q 524 633 482 576 q 567 768 567 689 q 513 917 567 861 q 383 972 458 972 q 255 917 308 972 q 201 768 201 861 m 211 76 q 243 38 211 76 q 384 0 275 0 q 556 76 493 0 q 619 269 619 151 q 554 445 619 378 q 383 533 489 513 q 361 538 374 535 q 213 447 279 524 q 147 269 147 371 q 211 76 147 151 z "},"9":{"ha":647,"x_min":46,"x_max":588,"o":"m 479 614 q 434 514 465 554 q 364 459 403 474 q 281 445 325 444 q 196 468 238 446 q 121 524 154 490 q 67 608 88 557 q 47 715 47 658 q 78 851 47 790 q 169 949 110 913 q 304 986 228 986 q 506 884 424 986 q 588 594 588 782 q 551 392 588 494 q 459 211 515 290 q 331 75 403 132 q 189 0 260 18 l 189 14 q 294 89 240 33 q 394 221 349 144 q 470 397 440 297 q 500 594 500 496 q 440 876 500 781 q 304 972 379 972 q 178 897 232 972 q 135 703 125 822 q 240 504 146 561 q 388 499 315 458 q 465 614 449 533 l 479 614 z "},"\u0000":{"ha":0,"x_min":0,"x_max":0,"o":""},"\n":{"ha":0,"x_min":0,"x_max":0,"o":""},"\r":{"ha":0,"x_min":0,"x_max":0,"o":""}," ":{"ha":439,"x_min":0,"x_max":0,"o":""},"!":{"ha":240,"x_min":72,"x_max":169,"o":"m 154 14 q 147 7 154 14 q 121 0 140 0 q 88 14 101 0 q 74 47 74 28 q 88 81 74 67 q 121 94 101 94 q 154 81 140 94 q 168 47 168 67 q 154 14 168 28 m 92 486 l 74 922 q 74 925 74 922 q 74 928 74 928 q 87 959 74 946 q 118 972 100 972 q 149 959 136 972 q 163 928 163 946 q 163 925 163 928 q 163 922 163 922 l 146 486 l 125 161 l 111 161 l 92 486 z "},"\"":{"ha":221,"x_min":25,"x_max":204,"o":"m 54 979 l 121 986 q 63 867 81 889 l 25 860 q 45 928 36 888 q 54 979 54 968 m 136 979 l 203 986 q 143 867 163 889 l 107 860 q 126 928 117 888 q 136 979 136 968 z "},"#":{"ha":769,"x_min":36,"x_max":733,"o":"m 725 513 l 589 513 l 504 243 l 640 243 l 632 217 l 496 217 l 456 86 l 428 86 l 469 217 l 199 217 l 158 86 l 132 86 l 172 217 l 36 217 l 44 243 l 181 243 l 265 513 l 129 513 l 138 540 l 274 540 l 314 669 l 340 669 l 300 540 l 571 540 l 611 669 l 638 669 l 597 540 l 733 540 l 725 513 m 478 243 l 563 513 l 292 513 l 207 243 l 478 243 z "},"$":{"ha":649,"x_min":58,"x_max":593,"o":"m 332 569 q 342 565 335 568 q 394 540 376 549 q 443 513 413 531 q 491 482 474 496 q 531 447 508 468 q 564 404 553 425 q 583 355 575 383 q 592 294 592 326 q 551 176 592 228 q 454 100 511 125 q 332 69 397 75 l 332 0 l 318 0 l 318 68 q 301 68 308 68 q 74 136 164 68 l 58 251 q 144 133 81 185 q 301 81 208 81 q 318 82 310 81 l 318 476 q 297 486 311 479 q 233 517 254 506 q 176 549 211 528 q 124 591 142 571 q 92 642 107 611 q 75 708 78 672 q 138 856 69 808 q 315 904 206 904 q 317 904 315 904 q 318 904 318 904 l 318 972 l 332 972 l 332 904 q 519 838 432 900 l 531 729 q 332 890 461 882 l 332 569 m 318 576 l 318 892 q 317 892 318 892 q 315 892 315 892 q 185 850 231 892 q 147 738 140 808 q 153 710 149 724 q 166 685 158 697 q 182 663 174 674 q 203 643 190 653 q 228 625 215 633 q 256 608 240 617 q 286 592 272 599 q 318 576 300 585 m 332 83 q 456 147 408 93 q 504 274 504 201 q 460 387 504 344 q 332 469 415 429 l 332 83 z "},"%":{"ha":597,"x_min":40,"x_max":558,"o":"m 450 972 l 478 972 l 147 0 l 119 0 l 439 939 q 233 843 365 857 q 272 789 260 826 q 275 706 283 751 q 222 601 263 644 q 135 557 181 557 q 65 601 89 557 q 52 706 40 644 q 105 810 64 767 q 193 854 146 854 q 193 854 193 854 q 348 889 279 854 q 450 972 417 924 m 197 706 q 206 801 208 761 q 190 840 204 840 q 158 801 176 840 q 130 706 140 761 q 122 610 119 650 q 138 571 124 571 q 158 589 147 571 q 180 638 169 607 q 197 706 190 669 m 376 372 q 396 393 376 372 q 463 415 417 415 q 533 372 508 415 q 545 267 557 328 q 492 162 533 206 q 405 118 451 118 q 335 162 358 118 q 323 267 311 206 q 376 372 335 328 m 440 172 q 448 191 440 172 q 467 267 457 211 q 476 362 478 322 q 460 401 474 401 q 428 362 446 401 q 400 267 411 322 q 391 172 389 211 q 408 132 393 132 q 440 172 422 132 z "},"&":{"ha":936,"x_min":47,"x_max":881,"o":"m 656 135 q 879 0 764 18 q 732 18 794 0 q 614 82 669 36 q 383 -14 519 -14 q 376 -14 381 -14 q 347 -13 360 -14 q 303 -9 333 -12 q 250 2 274 -6 q 195 26 226 10 q 141 64 164 42 q 97 122 118 86 q 63 203 75 158 q 57 326 47 269 q 99 431 67 383 q 170 510 131 478 q 253 561 210 543 q 244 574 250 565 q 183 863 140 728 q 251 952 203 918 q 367 986 300 986 q 540 928 463 986 l 554 807 q 478 924 528 875 q 367 972 428 972 q 280 935 313 972 q 239 843 247 899 q 289 651 224 749 q 369 537 324 603 q 463 399 414 471 q 542 283 511 328 q 640 151 604 193 q 693 301 686 218 q 664 463 700 383 q 603 493 649 493 l 603 500 l 697 500 l 697 493 q 678 460 661 493 q 710 336 707 399 q 698 226 713 274 q 656 135 683 178 m 390 25 q 596 97 504 10 q 468 250 536 151 q 263 547 342 432 q 153 407 183 494 q 149 229 124 319 q 242 88 174 139 q 390 25 310 36 z "},"'":{"ha":139,"x_min":25,"x_max":122,"o":"m 54 979 l 121 986 q 63 867 81 889 l 25 860 q 45 928 36 888 q 54 979 54 968 z "},"(":{"ha":346,"x_min":64,"x_max":321,"o":"m 321 979 q 280 955 300 971 q 234 902 260 939 q 190 814 208 865 q 158 677 171 763 q 144 486 144 592 q 158 295 144 381 q 190 158 171 210 q 234 70 208 107 q 280 17 260 33 q 321 -7 300 1 l 321 -14 q 224 45 272 0 q 139 160 176 90 q 64 486 64 294 q 139 813 64 678 q 224 927 176 882 q 321 986 272 972 l 321 979 z "},")":{"ha":346,"x_min":25,"x_max":282,"o":"m 207 813 q 282 486 282 678 q 207 160 282 294 q 122 45 169 90 q 25 -14 74 0 l 25 -7 q 65 17 46 1 q 110 70 85 33 q 155 158 136 107 q 187 295 174 210 q 200 486 200 381 q 187 677 200 592 q 155 814 174 763 q 110 902 136 865 q 65 955 85 939 q 25 979 46 971 l 25 986 q 122 927 74 972 q 207 813 169 882 z "},"*":{"ha":228,"x_min":25,"x_max":201,"o":"m 183 886 q 193 860 201 878 q 167 851 185 843 l 125 881 l 133 829 q 127 816 133 822 q 113 810 121 810 q 100 816 106 810 q 94 829 94 822 l 101 876 l 67 844 q 40 851 50 835 q 46 878 29 867 l 89 896 l 43 910 q 33 935 25 918 q 60 944 42 953 l 103 915 l 94 967 q 100 980 94 974 q 114 986 106 986 q 121 985 117 986 q 127 981 125 983 q 131 974 129 978 q 133 967 133 971 l 125 919 l 161 951 q 187 945 176 961 q 182 918 197 929 l 138 900 l 183 886 z "},"+":{"ha":361,"x_min":32,"x_max":329,"o":"m 194 351 l 329 351 l 329 324 l 194 324 l 194 189 l 167 189 l 167 324 l 32 324 l 32 351 l 167 351 l 167 486 l 194 486 l 194 351 z "},",":{"ha":133,"x_min":14,"x_max":111,"o":"m 43 88 l 111 94 q 51 -25 69 -3 l 14 -32 q 28 13 21 -14 q 40 60 36 40 q 43 88 43 81 z "},"-":{"ha":322,"x_min":13,"x_max":310,"o":"m 310 364 l 13 364 l 13 392 l 310 392 l 310 364 z "},".":{"ha":143,"x_min":24,"x_max":119,"o":"m 104 14 q 97 7 104 14 q 71 0 90 0 q 38 14 51 0 q 24 47 24 28 q 38 81 24 67 q 71 94 51 94 q 104 81 90 94 q 118 47 118 67 q 104 14 118 28 z "},"/":{"ha":415,"x_min":29,"x_max":388,"o":"m 360 972 l 388 972 l 56 0 l 29 0 l 360 972 z "},":":{"ha":165,"x_min":35,"x_max":131,"o":"m 115 406 q 108 399 115 406 q 82 392 101 392 q 49 406 63 392 q 35 439 35 419 q 49 472 35 458 q 82 486 63 486 q 115 472 101 486 q 129 439 129 458 q 115 406 129 419 m 115 100 q 108 93 115 100 q 82 86 101 86 q 49 100 63 86 q 35 133 35 114 q 49 167 35 153 q 82 181 63 181 q 115 167 101 181 q 129 133 129 153 q 115 100 129 114 z "},";":{"ha":168,"x_min":36,"x_max":133,"o":"m 118 406 q 111 399 118 406 q 85 392 104 392 q 51 406 65 392 q 38 439 38 419 q 51 472 38 458 q 85 486 65 486 q 118 472 104 486 q 132 439 132 458 q 118 406 132 419 m 65 174 l 133 181 q 74 61 92 83 l 36 54 q 56 122 47 82 q 65 174 65 163 z "},"<":{"ha":283,"x_min":32,"x_max":249,"o":"m 249 486 l 249 456 l 72 374 l 249 290 l 249 260 l 32 363 l 32 383 l 249 486 z "},"=":{"ha":336,"x_min":19,"x_max":317,"o":"m 317 460 l 19 460 l 19 486 l 317 486 l 317 460 m 317 269 l 19 269 l 19 297 l 317 297 l 317 269 z "},">":{"ha":283,"x_min":35,"x_max":251,"o":"m 35 486 l 251 383 l 251 363 l 35 260 l 35 290 l 211 374 l 35 456 l 35 486 z "},"?":{"ha":536,"x_min":35,"x_max":504,"o":"m 225 14 q 218 7 225 14 q 192 0 211 0 q 158 14 172 0 q 144 47 144 28 q 158 81 144 67 q 192 94 172 94 q 225 81 211 94 q 239 47 239 67 q 225 14 239 28 m 265 986 q 433 923 364 986 q 493 756 503 860 q 470 674 489 711 q 425 610 451 638 q 368 553 399 582 q 308 490 338 525 q 253 413 278 456 q 213 306 228 371 q 199 163 199 242 l 185 163 q 205 353 185 271 q 255 484 225 435 q 316 572 285 533 q 373 659 347 611 q 406 764 399 707 q 381 910 417 847 q 265 972 346 972 q 122 922 172 972 q 36 776 71 871 l 50 899 q 151 965 101 944 q 265 986 201 986 z "},"@":{"ha":869,"x_min":49,"x_max":821,"o":"m 506 864 q 738 775 656 858 q 815 550 821 692 q 757 358 813 440 q 631 251 701 276 q 604 243 618 246 q 572 242 590 240 q 539 254 553 244 q 517 288 525 264 q 514 351 508 313 q 514 353 514 351 q 514 356 514 354 q 425 250 485 279 q 376 240 403 240 q 283 285 313 240 q 261 404 254 329 q 288 526 268 474 q 331 606 308 578 q 384 651 354 633 q 435 673 414 668 q 475 678 456 678 q 547 628 529 678 q 554 675 554 674 l 638 690 q 594 346 631 646 q 594 294 590 314 q 609 268 597 275 q 643 272 621 261 q 656 279 651 276 q 756 387 714 314 q 800 550 797 460 q 798 614 801 582 q 776 690 794 646 q 728 766 758 733 q 641 824 699 799 q 504 851 583 849 q 271 781 379 856 q 195 714 232 754 q 127 618 158 674 q 85 507 96 563 q 74 333 64 415 q 124 192 85 250 q 226 103 163 132 q 349 74 289 74 q 465 86 408 75 q 553 109 521 97 q 588 124 586 121 l 597 114 q 561 98 594 111 q 469 72 528 85 q 349 60 411 60 q 220 90 286 60 q 111 185 154 121 q 60 330 71 243 q 71 511 50 417 q 144 671 89 594 q 260 789 199 747 q 506 864 376 868 m 529 479 q 542 581 536 538 q 521 644 542 625 q 475 664 500 664 q 455 661 465 664 q 426 642 444 658 q 392 599 407 626 q 365 517 378 572 q 349 388 351 461 q 349 340 347 361 q 357 306 351 319 q 371 284 363 293 q 388 272 379 275 q 405 267 396 268 q 422 268 414 267 q 435 274 429 269 q 481 321 463 289 q 510 389 500 353 q 529 479 521 425 z "},"A":{"ha":794,"x_min":0,"x_max":797,"o":"m 740 40 q 797 7 754 7 l 797 0 l 635 0 l 635 7 q 660 15 653 7 q 661 35 667 22 l 546 331 l 164 331 l 65 36 q 69 15 61 22 q 94 7 76 7 l 94 0 l 0 0 l 0 7 q 54 40 43 7 l 364 972 l 378 972 l 740 40 m 169 344 l 542 344 l 340 860 l 169 344 z "},"B":{"ha":732,"x_min":51,"x_max":693,"o":"m 418 535 q 622 449 551 517 q 693 269 693 381 q 592 74 693 149 q 328 0 490 0 l 51 0 l 51 7 q 92 40 92 7 l 92 932 q 51 965 92 965 l 51 972 l 308 972 q 540 915 458 972 q 622 756 622 858 q 571 613 622 672 q 418 535 519 553 m 172 958 l 172 540 l 335 540 q 494 601 444 540 q 543 756 543 661 q 308 958 543 958 l 172 958 m 328 14 q 534 83 463 14 q 606 269 606 151 q 535 462 606 397 q 328 526 465 526 l 172 526 l 172 14 l 328 14 z "},"C":{"ha":869,"x_min":40,"x_max":851,"o":"m 838 163 l 850 163 q 519 -14 738 -14 q 276 53 386 -14 q 103 235 165 121 q 40 486 40 350 q 103 737 40 622 q 276 919 165 851 q 519 986 386 986 q 658 966 597 986 q 783 899 718 946 l 796 776 q 687 920 761 868 q 519 972 613 972 q 322 908 410 972 q 184 732 233 843 q 135 486 135 621 q 184 240 135 351 q 322 65 233 129 q 519 0 410 0 q 700 42 615 0 q 838 163 785 85 z "},"D":{"ha":869,"x_min":51,"x_max":829,"o":"m 342 972 q 599 906 486 972 q 769 731 711 840 q 828 486 828 621 q 769 242 828 351 q 599 66 711 132 q 342 0 486 0 l 51 0 l 51 7 q 92 40 92 7 l 92 932 q 51 965 92 965 l 51 972 l 342 972 m 342 14 q 559 78 469 14 q 691 246 649 142 q 733 486 733 350 q 690 726 733 621 q 556 895 646 832 q 342 958 467 958 l 172 958 l 172 14 l 342 14 z "},"E":{"ha":675,"x_min":51,"x_max":660,"o":"m 538 14 q 584 22 564 14 q 618 49 604 31 q 638 78 632 68 q 653 108 643 88 l 658 108 l 618 0 l 51 0 l 51 7 q 92 40 92 7 l 92 932 q 51 965 92 965 l 51 972 l 578 972 l 618 864 l 611 864 q 597 894 603 885 q 578 923 592 904 q 544 950 564 942 q 497 958 524 958 l 172 958 l 172 493 l 457 493 q 490 533 490 493 l 497 533 l 497 439 l 490 439 q 457 479 490 479 l 172 479 l 172 14 l 538 14 z "},"F":{"ha":626,"x_min":51,"x_max":619,"o":"m 578 972 l 618 864 l 611 864 q 597 894 603 885 q 578 923 592 904 q 544 950 564 942 q 497 958 524 958 l 172 958 l 172 493 l 457 493 q 490 533 490 493 l 497 533 l 497 439 l 490 439 q 457 479 490 479 l 172 479 l 172 40 q 214 7 172 7 l 214 0 l 51 0 l 51 7 q 92 40 92 7 l 92 932 q 51 965 92 965 l 51 972 l 578 972 z "},"G":{"ha":913,"x_min":39,"x_max":885,"o":"m 560 358 l 885 358 l 885 351 q 843 317 843 351 l 843 0 l 838 0 l 763 65 q 519 -14 661 -14 q 276 53 386 -14 q 103 235 165 121 q 40 486 40 350 q 103 737 40 622 q 276 919 165 851 q 519 986 386 986 q 658 966 599 986 q 783 899 718 946 l 796 776 q 756 851 781 817 q 697 913 731 886 q 617 956 663 940 q 519 972 571 972 q 322 908 410 972 q 184 732 233 843 q 135 486 135 621 q 184 240 135 351 q 322 65 233 129 q 519 0 410 0 q 692 41 621 0 q 763 121 763 82 l 763 344 l 560 344 l 560 358 z "},"H":{"ha":832,"x_min":51,"x_max":781,"o":"m 781 965 q 740 932 740 965 l 740 40 q 781 7 740 7 l 781 0 l 618 0 l 618 7 q 658 40 658 7 l 658 479 l 172 479 l 172 40 q 214 7 172 7 l 214 0 l 51 0 l 51 7 q 92 40 92 7 l 92 932 q 51 965 92 965 l 51 972 l 214 972 l 214 965 q 172 932 172 965 l 172 493 l 658 493 l 658 932 q 618 965 658 965 l 618 972 l 781 972 l 781 965 z "},"I":{"ha":265,"x_min":51,"x_max":214,"o":"m 214 965 q 172 932 172 965 l 172 40 q 214 7 172 7 l 214 0 l 51 0 l 51 7 q 92 40 92 7 l 92 932 q 51 965 92 965 l 51 972 l 214 972 l 214 965 z "},"J":{"ha":604,"x_min":6,"x_max":560,"o":"m 397 972 l 560 972 l 560 965 q 518 932 518 965 l 518 324 q 443 75 517 164 q 235 -14 369 -14 q 74 33 142 -14 q 6 149 6 79 l 6 149 q 13 167 6 160 q 32 175 21 175 q 51 167 43 175 q 60 149 60 160 q 108 41 60 82 q 235 0 156 0 q 326 19 288 0 q 385 67 364 38 q 419 141 407 96 q 434 227 431 186 q 438 324 438 268 l 438 932 q 397 965 438 965 l 397 972 z "},"K":{"ha":829,"x_min":51,"x_max":835,"o":"m 761 40 q 835 7 789 7 l 835 0 l 653 0 l 653 7 q 660 40 688 7 l 296 496 l 172 335 l 172 40 q 214 7 172 7 l 214 0 l 51 0 l 51 7 q 92 40 92 7 l 92 932 q 51 965 92 965 l 51 972 l 214 972 l 214 965 q 172 932 172 965 l 172 353 l 615 932 q 606 965 640 965 l 606 972 l 700 972 l 700 965 q 628 932 654 965 l 343 558 l 761 40 z "},"L":{"ha":619,"x_min":51,"x_max":619,"o":"m 611 108 l 618 108 l 578 0 l 51 0 l 51 7 q 92 40 92 7 l 92 932 q 51 965 92 965 l 51 972 l 214 972 l 214 965 q 172 932 172 965 l 172 14 l 497 14 q 536 21 518 14 q 565 36 554 28 q 586 61 575 44 q 601 85 597 78 q 611 108 604 92 z "},"M":{"ha":1042,"x_min":24,"x_max":1024,"o":"m 976 40 q 1022 7 982 7 l 1022 0 l 861 0 l 861 7 q 890 16 881 7 q 896 40 899 25 l 775 911 l 496 0 l 483 0 l 179 911 l 82 40 q 90 16 81 25 q 118 7 99 7 l 118 0 l 24 0 l 24 7 q 68 40 65 7 l 168 932 q 160 956 169 947 q 132 965 151 965 l 132 972 l 240 972 l 525 138 l 779 972 l 888 972 l 888 965 q 859 956 868 965 q 853 932 850 947 l 976 40 z "},"N":{"ha":832,"x_min":51,"x_max":782,"o":"m 686 972 l 781 972 l 781 965 q 740 932 740 965 l 740 0 l 726 0 l 106 932 l 106 40 q 146 7 106 7 l 146 0 l 51 0 l 51 7 q 92 40 92 7 l 92 932 q 51 965 92 965 l 51 972 l 172 972 l 726 149 l 726 932 q 686 965 726 965 l 686 972 z "},"O":{"ha":1040,"x_min":40,"x_max":1000,"o":"m 276 919 q 331 952 276 919 q 519 986 386 986 q 763 919 653 986 q 936 737 874 851 q 999 486 999 622 q 936 235 999 350 q 763 53 874 121 q 519 -14 653 -14 q 276 53 386 -14 q 103 235 165 121 q 40 486 40 350 q 103 737 40 622 q 276 919 165 851 m 519 0 q 646 24 586 0 q 752 93 706 49 q 833 197 799 138 q 886 331 868 257 q 904 486 904 406 q 876 677 904 588 q 797 831 847 767 q 674 934 746 896 q 519 972 601 972 q 322 908 410 972 q 184 732 233 843 q 135 486 135 621 q 184 240 135 351 q 322 65 233 129 q 519 0 410 0 z "},"P":{"ha":681,"x_min":51,"x_max":660,"o":"m 308 972 q 498 944 419 972 q 618 859 576 915 q 660 722 660 803 q 567 544 660 610 q 308 479 474 479 l 172 479 l 172 40 q 214 7 172 7 l 214 0 l 51 0 l 51 7 q 92 40 92 7 l 92 932 q 51 965 92 965 l 51 972 l 308 972 m 308 493 q 506 555 440 493 q 571 722 571 617 q 308 958 571 958 l 172 958 l 172 493 l 308 493 z "},"Q":{"ha":1040,"x_min":40,"x_max":1082,"o":"m 1078 -79 q 1079 -91 1081 -83 q 1074 -108 1078 -99 q 1064 -126 1071 -117 q 1050 -140 1057 -135 q 911 -182 1000 -182 q 521 -14 757 -182 q 519 -14 521 -14 q 276 53 386 -14 q 103 235 165 121 q 40 486 40 350 q 103 737 40 622 q 276 919 165 851 q 519 986 386 986 q 763 919 653 986 q 936 737 874 851 q 999 486 999 622 q 869 141 999 285 q 546 -12 739 -3 q 778 -122 660 -86 q 1075 -74 971 -182 q 1078 -79 1078 -76 m 184 732 q 159 676 184 732 q 135 486 135 621 q 184 240 135 351 q 322 65 233 129 q 519 0 410 0 q 646 24 586 0 q 752 93 706 49 q 833 197 799 138 q 886 331 868 257 q 904 486 904 406 q 876 677 904 588 q 797 831 847 767 q 674 934 746 896 q 519 972 601 972 q 322 908 410 972 q 184 732 233 843 z "},"R":{"ha":746,"x_min":50,"x_max":728,"o":"m 664 40 q 726 7 682 7 l 726 0 l 564 0 l 564 7 q 583 40 601 7 l 372 436 q 308 432 340 432 l 172 432 l 172 40 q 214 7 172 7 l 214 0 l 51 0 l 51 7 q 92 40 92 7 l 92 932 q 51 965 92 965 l 51 972 l 308 972 q 578 901 483 972 q 672 703 672 831 q 600 531 672 600 q 404 440 528 461 l 456 432 l 664 40 m 308 446 q 513 515 442 446 q 585 703 585 583 q 515 894 585 829 q 308 958 444 958 l 172 958 l 172 446 l 308 446 z "},"S":{"ha":711,"x_min":36,"x_max":675,"o":"m 133 786 q 165 701 135 739 q 242 635 194 663 q 348 583 290 608 q 463 529 406 558 q 568 465 521 500 q 645 377 615 431 q 675 257 675 324 q 642 138 675 192 q 558 53 610 85 q 448 3 507 21 q 329 -14 389 -14 q 56 69 164 -14 l 38 207 q 140 63 64 126 q 329 0 217 0 q 511 64 438 0 q 585 233 585 128 q 556 340 585 293 q 483 417 528 386 q 384 474 439 447 q 274 526 329 500 q 174 580 219 551 q 97 653 128 608 q 64 753 67 697 q 136 928 58 869 q 342 986 214 986 q 592 899 485 986 l 604 776 q 508 919 572 865 q 342 972 443 972 q 189 920 244 972 q 133 786 133 868 z "},"T":{"ha":700,"x_min":-3,"x_max":701,"o":"m 660 972 l 701 864 l 694 864 q 679 894 685 885 q 660 923 674 904 q 626 950 646 942 q 579 958 606 958 l 390 958 l 390 40 q 431 7 390 7 l 431 0 l 268 0 l 268 7 q 310 40 310 7 l 310 958 l 119 958 q 74 950 94 958 q 40 923 54 942 q 21 894 26 904 q 6 864 15 885 l -1 864 l 39 972 l 660 972 z "},"U":{"ha":768,"x_min":46,"x_max":722,"o":"m 626 972 l 721 972 l 721 965 q 681 932 681 965 l 681 269 q 606 63 681 139 q 404 -14 531 -14 q 240 16 310 -14 q 128 110 171 46 q 86 269 86 175 l 86 932 q 46 965 86 965 l 46 972 l 208 972 l 208 965 q 167 932 167 965 l 167 269 q 228 73 167 146 q 404 0 290 0 q 596 74 525 0 q 667 269 667 147 l 667 932 q 626 965 667 965 l 626 972 z "},"V":{"ha":793,"x_min":-3,"x_max":794,"o":"m 700 972 l 794 972 l 794 965 q 740 932 751 965 l 429 0 l 415 0 l 54 932 q -3 965 40 965 l -3 972 l 160 972 l 160 965 q 132 938 124 965 l 453 113 l 728 936 q 700 965 736 965 l 700 972 z "},"W":{"ha":1272,"x_min":-1,"x_max":1269,"o":"m 1175 972 l 1269 972 l 1269 965 q 1218 932 1228 965 l 972 0 l 958 0 l 628 843 l 364 0 l 351 0 l 53 932 q 0 965 43 965 l 0 972 l 163 972 l 163 965 q 137 958 144 965 q 133 936 129 950 l 388 117 l 656 972 l 668 972 l 992 125 l 1206 936 q 1201 958 1208 950 q 1175 965 1193 965 l 1175 972 z "},"X":{"ha":833,"x_min":0,"x_max":832,"o":"m 765 40 q 832 7 788 7 l 832 0 l 657 0 l 657 7 q 678 31 689 7 l 388 479 l 83 40 q 96 7 60 7 l 96 0 l 1 0 l 1 7 q 69 40 47 7 l 381 489 l 94 932 q 28 965 74 965 l 28 972 l 204 972 l 204 965 q 190 932 168 965 l 442 542 l 717 942 q 697 965 729 965 l 697 972 l 792 972 l 792 965 q 724 932 746 965 l 449 532 l 765 40 z "},"Y":{"ha":739,"x_min":-7,"x_max":744,"o":"m 650 972 l 744 972 l 744 965 q 682 932 700 965 l 419 453 l 419 40 q 460 7 419 7 l 460 0 l 299 0 l 299 7 q 339 40 339 7 l 339 453 l 58 932 q -6 965 39 965 l -6 972 l 169 972 l 169 965 q 153 932 133 965 l 415 468 l 668 932 q 650 965 686 965 l 650 972 z "},"Z":{"ha":693,"x_min":13,"x_max":682,"o":"m 674 108 l 681 108 l 640 0 l 13 0 l 13 14 l 565 958 l 182 958 q 135 950 156 958 q 101 923 115 942 q 82 894 88 904 q 67 864 76 885 l 60 864 l 100 972 l 647 972 l 647 958 l 94 14 l 560 14 q 606 22 586 14 q 640 49 625 31 q 660 78 654 68 q 674 108 665 88 z "},"[":{"ha":268,"x_min":83,"x_max":239,"o":"m 239 979 l 164 965 l 164 7 l 239 -7 l 239 -14 l 83 -12 l 83 986 l 239 986 l 239 979 z "},"\\":{"ha":415,"x_min":28,"x_max":386,"o":"m 54 972 l 386 0 l 358 0 l 28 972 l 54 972 z "},"]":{"ha":268,"x_min":29,"x_max":185,"o":"m 29 986 l 185 986 l 185 -12 l 29 -14 l 29 -7 l 103 7 l 103 965 l 29 979 l 29 986 z "},"^":{"ha":240,"x_min":25,"x_max":215,"o":"m 138 975 l 214 844 l 207 844 l 119 904 l 32 844 l 25 844 l 101 975 q 119 986 107 986 q 138 975 132 986 z "},"_":{"ha":347,"x_min":11,"x_max":336,"o":"m 335 0 l 11 0 l 11 26 l 335 26 l 335 0 z "},"a":{"ha":794,"x_min":0,"x_max":797,"o":"m 740 40 q 797 7 754 7 l 797 0 l 635 0 l 635 7 q 660 15 653 7 q 661 35 667 22 l 546 331 l 164 331 l 65 36 q 69 15 61 22 q 94 7 76 7 l 94 0 l 0 0 l 0 7 q 54 40 43 7 l 364 972 l 378 972 l 740 40 m 169 344 l 542 344 l 340 860 l 169 344 z "},"b":{"ha":732,"x_min":51,"x_max":693,"o":"m 418 535 q 622 449 551 517 q 693 269 693 381 q 592 74 693 149 q 328 0 490 0 l 51 0 l 51 7 q 92 40 92 7 l 92 932 q 51 965 92 965 l 51 972 l 308 972 q 540 915 458 972 q 622 756 622 858 q 571 613 622 672 q 418 535 519 553 m 172 958 l 172 540 l 335 540 q 494 601 444 540 q 543 756 543 661 q 308 958 543 958 l 172 958 m 328 14 q 534 83 463 14 q 606 269 606 151 q 535 462 606 397 q 328 526 465 526 l 172 526 l 172 14 l 328 14 z "},"c":{"ha":869,"x_min":40,"x_max":851,"o":"m 838 163 l 850 163 q 519 -14 738 -14 q 276 53 386 -14 q 103 235 165 121 q 40 486 40 350 q 103 737 40 622 q 276 919 165 851 q 519 986 386 986 q 658 966 597 986 q 783 899 718 946 l 796 776 q 687 920 761 868 q 519 972 613 972 q 322 908 410 972 q 184 732 233 843 q 135 486 135 621 q 184 240 135 351 q 322 65 233 129 q 519 0 410 0 q 700 42 615 0 q 838 163 785 85 z "},"d":{"ha":869,"x_min":51,"x_max":829,"o":"m 342 972 q 599 906 486 972 q 769 731 711 840 q 828 486 828 621 q 769 242 828 351 q 599 66 711 132 q 342 0 486 0 l 51 0 l 51 7 q 92 40 92 7 l 92 932 q 51 965 92 965 l 51 972 l 342 972 m 342 14 q 559 78 469 14 q 691 246 649 142 q 733 486 733 350 q 690 726 733 621 q 556 895 646 832 q 342 958 467 958 l 172 958 l 172 14 l 342 14 z "},"e":{"ha":675,"x_min":51,"x_max":660,"o":"m 538 14 q 584 22 564 14 q 618 49 604 31 q 638 78 632 68 q 653 108 643 88 l 658 108 l 618 0 l 51 0 l 51 7 q 92 40 92 7 l 92 932 q 51 965 92 965 l 51 972 l 578 972 l 618 864 l 611 864 q 597 894 603 885 q 578 923 592 904 q 544 950 564 942 q 497 958 524 958 l 172 958 l 172 493 l 457 493 q 490 533 490 493 l 497 533 l 497 439 l 490 439 q 457 479 490 479 l 172 479 l 172 14 l 538 14 z "},"f":{"ha":626,"x_min":51,"x_max":619,"o":"m 578 972 l 618 864 l 611 864 q 597 894 603 885 q 578 923 592 904 q 544 950 564 942 q 497 958 524 958 l 172 958 l 172 493 l 457 493 q 490 533 490 493 l 497 533 l 497 439 l 490 439 q 457 479 490 479 l 172 479 l 172 40 q 214 7 172 7 l 214 0 l 51 0 l 51 7 q 92 40 92 7 l 92 932 q 51 965 92 965 l 51 972 l 578 972 z "},"g":{"ha":913,"x_min":39,"x_max":885,"o":"m 560 358 l 885 358 l 885 351 q 843 317 843 351 l 843 0 l 838 0 l 763 65 q 519 -14 661 -14 q 276 53 386 -14 q 103 235 165 121 q 40 486 40 350 q 103 737 40 622 q 276 919 165 851 q 519 986 386 986 q 658 966 599 986 q 783 899 718 946 l 796 776 q 756 851 781 817 q 697 913 731 886 q 617 956 663 940 q 519 972 571 972 q 322 908 410 972 q 184 732 233 843 q 135 486 135 621 q 184 240 135 351 q 322 65 233 129 q 519 0 410 0 q 692 41 621 0 q 763 121 763 82 l 763 344 l 560 344 l 560 358 z "},"h":{"ha":832,"x_min":51,"x_max":781,"o":"m 781 965 q 740 932 740 965 l 740 40 q 781 7 740 7 l 781 0 l 618 0 l 618 7 q 658 40 658 7 l 658 479 l 172 479 l 172 40 q 214 7 172 7 l 214 0 l 51 0 l 51 7 q 92 40 92 7 l 92 932 q 51 965 92 965 l 51 972 l 214 972 l 214 965 q 172 932 172 965 l 172 493 l 658 493 l 658 932 q 618 965 658 965 l 618 972 l 781 972 l 781 965 z "},"i":{"ha":265,"x_min":51,"x_max":214,"o":"m 214 965 q 172 932 172 965 l 172 40 q 214 7 172 7 l 214 0 l 51 0 l 51 7 q 92 40 92 7 l 92 932 q 51 965 92 965 l 51 972 l 214 972 l 214 965 z "},"j":{"ha":604,"x_min":6,"x_max":560,"o":"m 397 972 l 560 972 l 560 965 q 518 932 518 965 l 518 324 q 443 75 517 164 q 235 -14 369 -14 q 74 33 142 -14 q 6 149 6 79 l 6 149 q 13 167 6 160 q 32 175 21 175 q 51 167 43 175 q 60 149 60 160 q 108 41 60 82 q 235 0 156 0 q 326 19 288 0 q 385 67 364 38 q 419 141 407 96 q 434 227 431 186 q 438 324 438 268 l 438 932 q 397 965 438 965 l 397 972 z "},"k":{"ha":829,"x_min":51,"x_max":835,"o":"m 761 40 q 835 7 789 7 l 835 0 l 653 0 l 653 7 q 660 40 688 7 l 296 496 l 172 335 l 172 40 q 214 7 172 7 l 214 0 l 51 0 l 51 7 q 92 40 92 7 l 92 932 q 51 965 92 965 l 51 972 l 214 972 l 214 965 q 172 932 172 965 l 172 353 l 615 932 q 606 965 640 965 l 606 972 l 700 972 l 700 965 q 628 932 654 965 l 343 558 l 761 40 z "},"l":{"ha":619,"x_min":51,"x_max":619,"o":"m 611 108 l 618 108 l 578 0 l 51 0 l 51 7 q 92 40 92 7 l 92 932 q 51 965 92 965 l 51 972 l 214 972 l 214 965 q 172 932 172 965 l 172 14 l 497 14 q 536 21 518 14 q 565 36 554 28 q 586 61 575 44 q 601 85 597 78 q 611 108 604 92 z "},"m":{"ha":1042,"x_min":24,"x_max":1024,"o":"m 976 40 q 1022 7 982 7 l 1022 0 l 861 0 l 861 7 q 890 16 881 7 q 896 40 899 25 l 775 911 l 496 0 l 483 0 l 179 911 l 82 40 q 90 16 81 25 q 118 7 99 7 l 118 0 l 24 0 l 24 7 q 68 40 65 7 l 168 932 q 160 956 169 947 q 132 965 151 965 l 132 972 l 240 972 l 525 138 l 779 972 l 888 972 l 888 965 q 859 956 868 965 q 853 932 850 947 l 976 40 z "},"n":{"ha":832,"x_min":51,"x_max":782,"o":"m 686 972 l 781 972 l 781 965 q 740 932 740 965 l 740 0 l 726 0 l 106 932 l 106 40 q 146 7 106 7 l 146 0 l 51 0 l 51 7 q 92 40 92 7 l 92 932 q 51 965 92 965 l 51 972 l 172 972 l 726 149 l 726 932 q 686 965 726 965 l 686 972 z "},"o":{"ha":1040,"x_min":40,"x_max":1000,"o":"m 276 919 q 331 952 276 919 q 519 986 386 986 q 763 919 653 986 q 936 737 874 851 q 999 486 999 622 q 936 235 999 350 q 763 53 874 121 q 519 -14 653 -14 q 276 53 386 -14 q 103 235 165 121 q 40 486 40 350 q 103 737 40 622 q 276 919 165 851 m 519 0 q 646 24 586 0 q 752 93 706 49 q 833 197 799 138 q 886 331 868 257 q 904 486 904 406 q 876 677 904 588 q 797 831 847 767 q 674 934 746 896 q 519 972 601 972 q 322 908 410 972 q 184 732 233 843 q 135 486 135 621 q 184 240 135 351 q 322 65 233 129 q 519 0 410 0 z "},"p":{"ha":681,"x_min":51,"x_max":660,"o":"m 308 972 q 498 944 419 972 q 618 859 576 915 q 660 722 660 803 q 567 544 660 610 q 308 479 474 479 l 172 479 l 172 40 q 214 7 172 7 l 214 0 l 51 0 l 51 7 q 92 40 92 7 l 92 932 q 51 965 92 965 l 51 972 l 308 972 m 308 493 q 506 555 440 493 q 571 722 571 617 q 308 958 571 958 l 172 958 l 172 493 l 308 493 z "},"q":{"ha":1040,"x_min":40,"x_max":1082,"o":"m 1078 -79 q 1079 -91 1081 -83 q 1074 -108 1078 -99 q 1064 -126 1071 -117 q 1050 -140 1057 -135 q 911 -182 1000 -182 q 521 -14 757 -182 q 519 -14 521 -14 q 276 53 386 -14 q 103 235 165 121 q 40 486 40 350 q 103 737 40 622 q 276 919 165 851 q 519 986 386 986 q 763 919 653 986 q 936 737 874 851 q 999 486 999 622 q 869 141 999 285 q 546 -12 739 -3 q 778 -122 660 -86 q 1075 -74 971 -182 q 1078 -79 1078 -76 m 184 732 q 159 676 184 732 q 135 486 135 621 q 184 240 135 351 q 322 65 233 129 q 519 0 410 0 q 646 24 586 0 q 752 93 706 49 q 833 197 799 138 q 886 331 868 257 q 904 486 904 406 q 876 677 904 588 q 797 831 847 767 q 674 934 746 896 q 519 972 601 972 q 322 908 410 972 q 184 732 233 843 z "},"r":{"ha":746,"x_min":50,"x_max":728,"o":"m 664 40 q 726 7 682 7 l 726 0 l 564 0 l 564 7 q 583 40 601 7 l 372 436 q 308 432 340 432 l 172 432 l 172 40 q 214 7 172 7 l 214 0 l 51 0 l 51 7 q 92 40 92 7 l 92 932 q 51 965 92 965 l 51 972 l 308 972 q 578 901 483 972 q 672 703 672 831 q 600 531 672 600 q 404 440 528 461 l 456 432 l 664 40 m 308 446 q 513 515 442 446 q 585 703 585 583 q 515 894 585 829 q 308 958 444 958 l 172 958 l 172 446 l 308 446 z "},"s":{"ha":711,"x_min":36,"x_max":675,"o":"m 133 786 q 165 701 135 739 q 242 635 194 663 q 348 583 290 608 q 463 529 406 558 q 568 465 521 500 q 645 377 615 431 q 675 257 675 324 q 642 138 675 192 q 558 53 610 85 q 448 3 507 21 q 329 -14 389 -14 q 56 69 164 -14 l 38 207 q 140 63 64 126 q 329 0 217 0 q 511 64 438 0 q 585 233 585 128 q 556 340 585 293 q 483 417 528 386 q 384 474 439 447 q 274 526 329 500 q 174 580 219 551 q 97 653 128 608 q 64 753 67 697 q 136 928 58 869 q 342 986 214 986 q 592 899 485 986 l 604 776 q 508 919 572 865 q 342 972 443 972 q 189 920 244 972 q 133 786 133 868 z "},"t":{"ha":700,"x_min":-3,"x_max":701,"o":"m 660 972 l 701 864 l 694 864 q 679 894 685 885 q 660 923 674 904 q 626 950 646 942 q 579 958 606 958 l 390 958 l 390 40 q 431 7 390 7 l 431 0 l 268 0 l 268 7 q 310 40 310 7 l 310 958 l 119 958 q 74 950 94 958 q 40 923 54 942 q 21 894 26 904 q 6 864 15 885 l -1 864 l 39 972 l 660 972 z "},"u":{"ha":768,"x_min":46,"x_max":722,"o":"m 626 972 l 721 972 l 721 965 q 681 932 681 965 l 681 269 q 606 63 681 139 q 404 -14 531 -14 q 240 16 310 -14 q 128 110 171 46 q 86 269 86 175 l 86 932 q 46 965 86 965 l 46 972 l 208 972 l 208 965 q 167 932 167 965 l 167 269 q 228 73 167 146 q 404 0 290 0 q 596 74 525 0 q 667 269 667 147 l 667 932 q 626 965 667 965 l 626 972 z "},"v":{"ha":793,"x_min":-3,"x_max":794,"o":"m 700 972 l 794 972 l 794 965 q 740 932 751 965 l 429 0 l 415 0 l 54 932 q -3 965 40 965 l -3 972 l 160 972 l 160 965 q 132 938 124 965 l 453 113 l 728 936 q 700 965 736 965 l 700 972 z "},"w":{"ha":1272,"x_min":-1,"x_max":1269,"o":"m 1175 972 l 1269 972 l 1269 965 q 1218 932 1228 965 l 972 0 l 958 0 l 628 843 l 364 0 l 351 0 l 53 932 q 0 965 43 965 l 0 972 l 163 972 l 163 965 q 137 958 144 965 q 133 936 129 950 l 388 117 l 656 972 l 668 972 l 992 125 l 1206 936 q 1201 958 1208 950 q 1175 965 1193 965 l 1175 972 z "},"x":{"ha":833,"x_min":0,"x_max":832,"o":"m 765 40 q 832 7 788 7 l 832 0 l 657 0 l 657 7 q 678 31 689 7 l 388 479 l 83 40 q 96 7 60 7 l 96 0 l 1 0 l 1 7 q 69 40 47 7 l 381 489 l 94 932 q 28 965 74 965 l 28 972 l 204 972 l 204 965 q 190 932 168 965 l 442 542 l 717 942 q 697 965 729 965 l 697 972 l 792 972 l 792 965 q 724 932 746 965 l 449 532 l 765 40 z "},"y":{"ha":739,"x_min":-7,"x_max":744,"o":"m 650 972 l 744 972 l 744 965 q 682 932 700 965 l 419 453 l 419 40 q 460 7 419 7 l 460 0 l 299 0 l 299 7 q 339 40 339 7 l 339 453 l 58 932 q -6 965 39 965 l -6 972 l 169 972 l 169 965 q 153 932 133 965 l 415 468 l 668 932 q 650 965 686 965 l 650 972 z "},"z":{"ha":693,"x_min":13,"x_max":682,"o":"m 674 108 l 681 108 l 640 0 l 13 0 l 13 14 l 565 958 l 182 958 q 135 950 156 958 q 101 923 115 942 q 82 894 88 904 q 67 864 76 885 l 60 864 l 100 972 l 647 972 l 647 958 l 94 14 l 560 14 q 606 22 586 14 q 640 49 625 31 q 660 78 654 68 q 674 108 665 88 z "},"{":{"ha":282,"x_min":54,"x_max":244,"o":"m 243 979 q 192 938 200 974 q 183 744 183 903 q 183 729 183 735 q 167 611 183 664 q 126 528 151 558 q 69 486 100 497 q 150 405 117 469 q 183 243 183 340 q 183 228 183 238 q 192 34 183 69 q 243 -7 200 -1 l 243 -14 q 141 54 174 -14 q 108 264 108 122 q 108 288 108 272 q 108 339 108 322 q 107 381 108 356 q 102 419 106 407 q 92 447 99 432 q 77 472 86 463 q 54 486 68 481 q 100 545 92 503 q 108 685 108 588 q 108 708 108 700 q 141 918 108 850 q 243 986 174 986 l 243 979 z "},"|":{"ha":194,"x_min":83,"x_max":111,"o":"m 110 0 l 83 0 l 83 972 l 110 972 l 110 0 z "},"}":{"ha":282,"x_min":38,"x_max":228,"o":"m 226 486 q 181 427 189 469 q 172 288 172 385 q 172 264 172 272 q 140 54 172 122 q 38 -14 107 -14 l 38 -7 q 89 34 81 -1 q 97 228 97 69 q 97 243 97 238 q 114 361 97 308 q 156 444 131 414 q 211 486 181 475 q 131 567 164 503 q 97 729 97 632 q 97 744 97 735 q 89 938 97 903 q 38 979 81 974 l 38 986 q 140 918 107 986 q 172 708 172 850 q 172 685 172 700 q 173 624 172 643 q 176 576 174 604 q 183 534 178 547 q 200 507 189 521 q 226 486 211 493 z "}," ":{"ha":439,"x_min":0,"x_max":0,"o":""},"¡":{"ha":240,"x_min":71,"x_max":167,"o":"m 151 892 q 144 885 151 892 q 118 878 138 878 q 85 892 99 878 q 71 925 71 906 q 85 958 71 944 q 118 972 99 972 q 151 958 138 972 q 165 925 165 944 q 151 892 165 906 m 147 486 l 165 50 q 165 47 165 50 q 165 44 165 44 q 152 13 165 26 q 121 0 139 0 q 90 13 103 0 q 76 44 76 26 q 76 47 76 44 q 76 50 76 50 l 93 486 l 114 811 l 128 811 l 147 486 z "},"¢":{"ha":608,"x_min":51,"x_max":551,"o":"m 364 135 q 474 184 425 135 q 550 300 524 233 l 538 179 q 364 122 460 122 l 364 122 q 261 139 310 122 l 244 71 l 231 71 l 249 144 q 106 264 160 181 q 53 450 53 347 q 142 681 53 586 q 364 776 231 776 q 397 775 381 776 l 408 826 l 422 826 l 410 774 q 538 719 476 764 l 550 597 q 491 697 529 653 q 406 756 453 740 l 265 161 q 364 135 310 135 m 254 168 l 393 760 q 364 763 378 763 q 199 676 257 763 q 140 450 140 589 q 169 280 140 354 q 254 168 199 206 z "},"£":{"ha":592,"x_min":56,"x_max":550,"o":"m 289 447 q 293 385 294 413 q 278 326 292 357 q 250 272 265 296 q 213 221 235 249 q 172 172 190 193 q 132 126 153 151 q 99 81 111 101 l 496 81 l 496 0 l 57 0 q 76 74 57 35 q 121 150 94 114 q 172 224 147 186 q 212 306 197 261 q 219 396 226 351 q 189 479 214 438 l 57 479 l 57 493 l 181 493 q 160 522 176 499 q 137 558 143 546 q 119 592 131 569 q 101 638 107 614 q 93 689 96 661 q 153 856 83 793 q 321 918 222 918 q 361 916 342 918 q 399 909 381 914 q 434 897 417 904 q 469 881 451 890 q 503 858 486 871 q 536 831 519 846 l 550 708 q 528 762 539 739 q 503 808 518 785 q 471 848 489 831 q 431 878 453 865 q 381 898 410 892 q 321 904 353 904 q 205 842 240 904 q 181 697 169 779 q 202 620 186 653 q 240 555 218 588 q 275 493 263 522 l 381 493 l 381 479 l 279 479 q 289 447 285 464 z "},"¥":{"ha":861,"x_min":54,"x_max":806,"o":"m 711 972 l 806 972 l 806 965 q 743 932 761 965 l 481 453 l 603 453 l 603 439 l 481 439 l 481 331 l 603 331 l 603 317 l 481 317 l 481 40 q 521 7 481 7 l 521 0 l 360 0 l 360 7 q 400 40 400 7 l 400 317 l 278 317 l 278 331 l 400 331 l 400 439 l 278 439 l 278 453 l 400 453 l 119 932 q 56 965 100 965 l 56 972 l 231 972 l 231 965 q 214 932 194 965 l 476 468 l 729 932 q 711 965 747 965 l 711 972 z "},"§":{"ha":769,"x_min":56,"x_max":715,"o":"m 271 804 q 301 735 275 767 q 367 682 328 704 q 453 638 406 660 q 546 592 500 617 q 630 537 592 567 q 692 463 668 507 q 715 363 715 418 q 679 248 715 296 q 582 171 643 200 q 476 44 558 89 q 300 0 393 0 q 72 69 163 0 l 57 185 q 143 65 79 117 q 300 14 207 14 q 446 70 389 14 q 503 207 503 126 q 485 283 503 249 q 438 339 467 317 q 371 382 408 361 q 294 419 333 403 q 216 458 254 436 q 147 503 178 479 q 97 562 117 526 q 74 640 76 597 q 200 821 65 778 q 243 908 208 872 q 327 958 278 943 q 439 972 376 972 q 642 904 550 972 l 654 797 q 439 958 581 958 q 309 917 354 958 q 271 804 264 875 m 590 228 q 628 342 628 278 q 610 417 628 383 q 563 474 592 451 q 496 517 533 496 q 419 554 458 538 q 340 592 379 571 q 271 638 301 614 q 221 697 240 661 q 199 776 201 732 q 197 793 197 783 q 146 669 139 751 q 176 601 150 632 q 242 547 203 569 q 328 503 282 525 q 421 457 375 482 q 505 403 467 432 q 567 328 543 374 q 590 228 590 283 z "},"©":{"ha":922,"x_min":54,"x_max":867,"o":"m 471 314 q 541 313 507 304 q 603 343 575 321 q 486 292 565 292 q 367 341 417 292 q 318 459 318 390 q 368 578 318 528 q 488 628 418 628 q 590 575 554 628 l 549 557 q 544 574 547 567 q 535 590 540 582 q 522 603 529 597 q 506 611 515 608 q 488 614 497 614 q 407 460 407 614 q 471 314 407 336 m 174 745 q 234 805 174 745 q 460 864 293 864 q 747 745 628 864 q 865 459 865 626 q 747 173 865 292 q 460 54 628 54 q 174 173 293 54 q 56 459 56 292 q 174 745 56 626 m 184 183 q 241 125 184 183 q 460 68 299 68 q 738 183 622 68 q 853 459 853 297 q 738 735 853 621 q 460 850 622 850 q 184 735 299 850 q 69 459 69 621 q 184 183 69 297 z "},"«":{"ha":500,"x_min":32,"x_max":465,"o":"m 249 456 l 72 374 l 249 290 l 249 260 l 32 363 l 32 383 l 249 486 l 249 456 m 464 486 l 464 456 l 288 374 l 464 290 l 464 260 l 249 363 l 249 383 l 464 486 z "},"­":{"ha":0,"x_min":0,"x_max":0,"o":""},"®":{"ha":597,"x_min":49,"x_max":549,"o":"m 386 632 q 401 622 390 622 l 401 621 l 361 621 l 361 622 q 365 632 371 622 l 313 731 q 297 729 304 729 l 264 729 l 264 632 q 274 622 264 622 l 274 621 l 233 621 l 233 622 q 243 632 243 622 l 243 854 q 233 863 243 863 l 233 864 l 297 864 q 365 847 342 864 q 389 797 389 829 q 370 753 389 771 q 321 731 351 736 l 333 729 l 386 632 m 297 732 q 349 749 331 732 q 367 797 367 767 q 297 861 367 861 l 264 861 l 264 732 l 297 732 m 122 913 q 158 949 122 913 q 298 986 194 986 q 475 913 401 986 q 549 735 549 839 q 475 559 549 632 q 298 486 401 486 q 122 559 194 486 q 49 735 49 632 q 122 913 49 839 m 131 569 q 166 534 131 569 q 298 500 200 500 q 465 569 396 500 q 535 735 535 638 q 465 903 535 833 q 298 972 396 972 q 131 903 200 972 q 63 735 63 833 q 131 569 63 638 z "},"°":{"ha":240,"x_min":32,"x_max":208,"o":"m 58 960 q 70 973 58 960 q 119 986 83 986 q 181 960 156 986 q 207 898 207 935 q 181 835 207 861 q 119 810 156 810 q 58 835 83 810 q 32 898 32 861 q 58 960 32 935 m 67 845 q 78 834 67 845 q 119 824 89 824 q 172 845 150 824 q 194 898 194 867 q 172 951 194 929 q 119 972 150 972 q 67 951 89 972 q 46 898 46 929 q 67 845 46 867 z "},"»":{"ha":500,"x_min":35,"x_max":468,"o":"m 251 486 l 467 383 l 467 363 l 251 260 l 251 290 l 426 374 l 251 456 l 251 486 m 251 383 l 251 363 l 35 260 l 35 290 l 211 374 l 35 456 l 35 486 l 251 383 z "},"¿":{"ha":536,"x_min":32,"x_max":500,"o":"m 378 892 q 371 885 378 892 q 344 878 364 878 q 311 892 325 878 q 297 925 297 906 q 311 958 297 944 q 344 972 325 972 q 378 958 364 972 q 392 925 392 944 q 378 892 392 906 m 271 0 q 415 51 364 0 q 500 196 465 101 l 486 74 q 385 7 435 28 q 271 -14 335 -14 q 103 49 172 -14 q 43 217 33 113 q 66 298 47 261 q 111 363 85 335 q 168 419 138 390 q 228 482 199 447 q 283 559 258 517 q 322 666 307 601 q 338 810 338 731 l 351 810 q 331 619 351 701 q 281 488 311 538 q 220 400 251 439 q 163 313 189 361 q 131 208 138 265 q 155 63 119 125 q 271 0 190 0 z "},"À":{"ha":793,"x_min":-1,"x_max":796,"o":"m 739 40 q 796 7 753 7 l 796 0 l 633 0 l 633 7 q 658 15 651 7 q 660 35 665 22 l 544 331 l 163 331 l 64 36 q 67 15 60 22 q 93 7 75 7 l 93 0 l -1 0 l -1 7 q 53 40 42 7 l 364 972 l 376 972 l 739 40 m 168 344 l 540 344 l 339 860 l 168 344 m 433 1081 q 308 1157 326 1139 q 299 1180 299 1165 q 310 1206 299 1194 q 338 1218 322 1218 q 361 1210 353 1218 q 376 1190 367 1204 q 396 1158 386 1175 q 415 1124 406 1140 q 432 1096 425 1107 l 438 1085 l 433 1081 z "},"Á":{"ha":793,"x_min":-1,"x_max":796,"o":"m 739 40 q 796 7 753 7 l 796 0 l 633 0 l 633 7 q 658 15 651 7 q 660 35 665 22 l 544 331 l 163 331 l 64 36 q 67 15 60 22 q 93 7 75 7 l 93 0 l -1 0 l -1 7 q 53 40 42 7 l 364 972 l 376 972 l 739 40 m 168 344 l 540 344 l 339 860 l 168 344 m 429 1157 q 304 1081 411 1139 l 300 1085 q 376 1210 358 1192 q 399 1218 385 1218 q 426 1206 414 1218 q 439 1180 439 1194 q 429 1157 439 1165 z "},"Â":{"ha":793,"x_min":-1,"x_max":796,"o":"m 739 40 q 796 7 753 7 l 796 0 l 633 0 l 633 7 q 658 15 651 7 q 660 35 665 22 l 544 331 l 163 331 l 64 36 q 67 15 60 22 q 93 7 75 7 l 93 0 l -1 0 l -1 7 q 53 40 42 7 l 364 972 l 376 972 l 739 40 m 168 344 l 540 344 l 339 860 l 168 344 m 369 1128 l 282 1068 l 275 1068 l 351 1199 q 369 1210 357 1210 q 388 1199 382 1210 l 464 1068 l 458 1068 l 369 1128 z "},"Ã":{"ha":793,"x_min":-1,"x_max":796,"o":"m 739 40 q 796 7 753 7 l 796 0 l 633 0 l 633 7 q 658 15 651 7 q 660 35 665 22 l 544 331 l 163 331 l 64 36 q 67 15 60 22 q 93 7 75 7 l 93 0 l -1 0 l -1 7 q 53 40 42 7 l 364 972 l 376 972 l 739 40 m 168 344 l 540 344 l 339 860 l 168 344 m 368 1118 q 344 1129 356 1125 q 319 1133 332 1133 q 297 1123 307 1132 q 279 1096 286 1114 l 272 1096 q 288 1148 276 1128 q 313 1174 300 1168 q 343 1180 326 1181 q 369 1176 360 1179 q 389 1168 379 1172 q 398 1162 390 1167 q 410 1155 406 1157 q 424 1149 415 1153 q 440 1144 433 1144 q 453 1144 446 1143 q 465 1149 460 1144 q 475 1164 471 1154 l 482 1164 q 368 1118 467 1057 z "},"Ä":{"ha":793,"x_min":-1,"x_max":796,"o":"m 739 40 q 796 7 753 7 l 796 0 l 633 0 l 633 7 q 658 15 651 7 q 660 35 665 22 l 544 331 l 163 331 l 64 36 q 67 15 60 22 q 93 7 75 7 l 93 0 l -1 0 l -1 7 q 53 40 42 7 l 364 972 l 376 972 l 739 40 m 168 344 l 540 344 l 339 860 l 168 344 m 333 1107 q 326 1101 333 1107 q 301 1094 319 1094 q 270 1107 283 1094 q 257 1138 257 1119 q 270 1169 257 1157 q 301 1182 283 1182 q 333 1169 319 1182 q 346 1138 346 1157 q 333 1107 346 1119 m 471 1107 q 465 1101 471 1107 q 440 1094 458 1094 q 409 1107 422 1094 q 396 1138 396 1119 q 409 1169 396 1157 q 440 1182 422 1182 q 471 1169 458 1182 q 483 1138 483 1157 q 471 1107 483 1119 z "},"Å":{"ha":793,"x_min":-1,"x_max":796,"o":"m 739 40 q 796 7 753 7 l 796 0 l 633 0 l 633 7 q 658 15 651 7 q 660 35 665 22 l 544 331 l 163 331 l 64 36 q 67 15 60 22 q 93 7 75 7 l 93 0 l -1 0 l -1 7 q 53 40 42 7 l 364 972 l 376 972 l 739 40 m 168 344 l 540 344 l 339 860 l 168 344 m 424 1083 q 413 1071 424 1083 q 369 1060 401 1060 q 315 1083 338 1060 q 292 1138 292 1106 q 315 1192 292 1169 q 369 1215 338 1215 q 424 1192 401 1215 q 447 1138 447 1169 q 424 1083 447 1106 m 415 1183 q 405 1192 415 1183 q 369 1201 396 1201 q 324 1183 343 1201 q 306 1138 306 1164 q 324 1092 306 1111 q 369 1074 343 1074 q 415 1092 396 1074 q 433 1138 433 1111 q 415 1183 433 1164 z "},"Æ":{"ha":946,"x_min":-1,"x_max":931,"o":"m 924 108 l 931 108 l 890 0 l 322 0 l 322 7 q 363 40 363 7 l 363 331 l 163 331 l 64 36 q 93 7 57 7 l 93 0 l -1 0 l -1 7 q 53 40 42 7 l 364 972 l 850 972 l 890 864 l 883 864 q 868 894 874 885 q 849 923 863 904 q 815 950 835 942 q 768 958 794 958 l 444 958 l 444 493 l 728 493 q 761 533 761 493 l 768 533 l 768 439 l 761 439 q 728 479 761 479 l 444 479 l 444 14 l 808 14 q 855 22 835 14 q 889 49 875 31 q 908 78 903 68 q 924 108 914 88 m 364 344 l 364 932 l 168 344 l 364 344 z "},"Ç":{"ha":869,"x_min":39,"x_max":851,"o":"m 519 -14 q 428 -4 474 -14 l 417 -46 q 490 -56 453 -35 q 526 -121 526 -78 q 499 -177 526 -158 q 439 -196 471 -196 q 374 -156 385 -196 l 388 -156 q 432 -182 397 -185 q 467 -162 456 -181 q 479 -121 478 -143 q 463 -65 482 -81 q 411 -61 443 -50 l 399 -61 l 415 -3 q 146 171 251 35 q 40 486 40 307 q 103 737 40 622 q 276 919 165 851 q 519 986 386 986 q 658 966 597 986 q 783 899 718 946 l 796 776 q 687 920 761 868 q 519 972 613 972 q 322 908 410 972 q 184 732 233 843 q 135 486 135 621 q 184 240 135 351 q 322 65 233 129 q 519 0 410 0 q 700 42 615 0 q 838 163 785 85 l 850 163 q 519 -14 738 -14 z "},"È":{"ha":675,"x_min":50,"x_max":660,"o":"m 653 108 l 658 108 l 618 0 l 51 0 l 51 7 q 92 40 92 7 l 92 932 q 51 965 92 965 l 51 972 l 578 972 l 618 864 l 611 864 q 597 894 603 885 q 578 923 592 904 q 544 950 564 942 q 497 958 524 958 l 172 958 l 172 493 l 457 493 q 490 533 490 493 l 497 533 l 497 439 l 490 439 q 457 479 490 479 l 172 479 l 172 14 l 538 14 q 584 22 564 14 q 618 49 604 31 q 638 78 632 68 q 653 108 643 88 m 419 1081 q 296 1157 314 1139 q 286 1180 286 1165 q 298 1206 286 1194 q 325 1218 310 1218 q 349 1210 340 1218 q 363 1190 353 1204 q 383 1158 372 1175 q 403 1124 393 1140 q 418 1096 413 1107 l 425 1085 l 419 1081 z "},"É":{"ha":675,"x_min":50,"x_max":660,"o":"m 653 108 l 658 108 l 618 0 l 51 0 l 51 7 q 92 40 92 7 l 92 932 q 51 965 92 965 l 51 972 l 578 972 l 618 864 l 611 864 q 597 894 603 885 q 578 923 592 904 q 544 950 564 942 q 497 958 524 958 l 172 958 l 172 493 l 457 493 q 490 533 490 493 l 497 533 l 497 439 l 490 439 q 457 479 490 479 l 172 479 l 172 14 l 538 14 q 584 22 564 14 q 618 49 604 31 q 638 78 632 68 q 653 108 643 88 m 415 1157 q 290 1081 397 1139 l 286 1085 q 363 1210 344 1192 q 385 1218 371 1218 q 413 1206 400 1218 q 425 1180 425 1194 q 415 1157 425 1165 z "},"Ê":{"ha":675,"x_min":50,"x_max":660,"o":"m 653 108 l 658 108 l 618 0 l 51 0 l 51 7 q 92 40 92 7 l 92 932 q 51 965 92 965 l 51 972 l 578 972 l 618 864 l 611 864 q 597 894 603 885 q 578 923 592 904 q 544 950 564 942 q 497 958 524 958 l 172 958 l 172 493 l 457 493 q 490 533 490 493 l 497 533 l 497 439 l 490 439 q 457 479 490 479 l 172 479 l 172 14 l 538 14 q 584 22 564 14 q 618 49 604 31 q 638 78 632 68 q 653 108 643 88 m 356 1128 l 268 1068 l 261 1068 l 338 1199 q 356 1210 343 1210 q 374 1199 368 1210 l 450 1068 l 443 1068 l 356 1128 z "},"Ë":{"ha":675,"x_min":50,"x_max":660,"o":"m 653 108 l 658 108 l 618 0 l 51 0 l 51 7 q 92 40 92 7 l 92 932 q 51 965 92 965 l 51 972 l 578 972 l 618 864 l 611 864 q 597 894 603 885 q 578 923 592 904 q 544 950 564 942 q 497 958 524 958 l 172 958 l 172 493 l 457 493 q 490 533 490 493 l 497 533 l 497 439 l 490 439 q 457 479 490 479 l 172 479 l 172 14 l 538 14 q 584 22 564 14 q 618 49 604 31 q 638 78 632 68 q 653 108 643 88 m 317 1107 q 311 1101 317 1107 q 286 1094 304 1094 q 255 1107 268 1094 q 242 1138 242 1119 q 255 1169 242 1157 q 286 1182 268 1182 q 317 1169 304 1182 q 331 1138 331 1157 q 317 1107 331 1119 m 456 1107 q 449 1101 456 1107 q 425 1094 443 1094 q 394 1107 407 1094 q 381 1138 381 1119 q 394 1169 381 1157 q 425 1182 407 1182 q 456 1169 443 1182 q 468 1138 468 1157 q 456 1107 468 1119 z "},"Ì":{"ha":265,"x_min":51,"x_max":214,"o":"m 214 965 q 172 932 172 965 l 172 40 q 214 7 172 7 l 214 0 l 51 0 l 51 7 q 92 40 92 7 l 92 932 q 51 965 92 965 l 51 972 l 214 972 l 214 965 m 197 1081 q 72 1157 90 1139 q 63 1180 63 1165 q 76 1206 64 1194 q 102 1218 88 1218 q 125 1210 117 1218 q 140 1190 131 1204 q 160 1158 150 1175 q 180 1124 171 1140 q 196 1096 189 1107 l 201 1085 l 197 1081 z "},"Í":{"ha":265,"x_min":51,"x_max":214,"o":"m 214 965 q 172 932 172 965 l 172 40 q 214 7 172 7 l 214 0 l 51 0 l 51 7 q 92 40 92 7 l 92 932 q 51 965 92 965 l 51 972 l 214 972 l 214 965 m 192 1157 q 68 1081 175 1139 l 63 1085 q 139 1210 122 1192 q 163 1218 149 1218 q 190 1206 178 1218 q 201 1180 201 1194 q 192 1157 201 1165 z "},"Î":{"ha":265,"x_min":38,"x_max":228,"o":"m 51 965 l 51 972 l 213 972 l 213 965 q 172 932 172 965 l 172 40 q 213 7 172 7 l 213 0 l 51 0 l 51 7 q 92 40 92 7 l 92 932 q 51 965 92 965 m 150 1199 l 226 1068 l 219 1068 l 132 1128 l 44 1068 l 38 1068 l 114 1199 q 132 1210 119 1210 q 150 1199 144 1210 z "},"Ï":{"ha":267,"x_min":19,"x_max":247,"o":"m 51 965 l 51 972 l 214 972 l 214 965 q 174 932 174 965 l 174 40 q 214 7 174 7 l 214 0 l 51 0 l 51 7 q 92 40 92 7 l 92 932 q 51 965 92 965 m 94 1107 q 88 1101 94 1107 q 64 1094 82 1094 q 33 1107 46 1094 q 19 1138 19 1119 q 33 1169 19 1157 q 64 1182 46 1182 q 94 1169 82 1182 q 107 1138 107 1157 q 94 1107 107 1119 m 171 1169 q 177 1176 171 1169 q 201 1182 183 1182 q 233 1169 219 1182 q 246 1138 246 1157 q 233 1107 246 1119 q 201 1094 219 1094 q 171 1107 183 1094 q 158 1138 158 1119 q 171 1169 158 1157 z "},"Ð":{"ha":872,"x_min":54,"x_max":832,"o":"m 344 972 q 601 906 489 972 q 772 731 714 840 q 831 486 831 621 q 772 242 831 351 q 601 66 714 132 q 344 0 489 0 l 54 0 l 54 7 q 94 40 94 7 l 94 472 l 54 472 l 54 500 l 94 500 l 94 932 q 54 965 94 965 l 54 972 l 344 972 m 344 14 q 562 78 472 14 q 694 246 651 142 q 736 486 736 350 q 692 726 736 621 q 559 895 649 832 q 344 958 469 958 l 175 958 l 175 500 l 378 500 l 378 472 l 175 472 l 175 14 l 344 14 z "},"Ñ":{"ha":832,"x_min":51,"x_max":782,"o":"m 686 972 l 781 972 l 781 965 q 740 932 740 965 l 740 0 l 726 0 l 106 932 l 106 40 q 146 7 106 7 l 146 0 l 51 0 l 51 7 q 92 40 92 7 l 92 932 q 51 965 92 965 l 51 972 l 172 972 l 726 149 l 726 932 q 686 965 726 965 l 686 972 m 407 1118 q 388 1127 397 1124 q 369 1132 379 1131 q 349 1131 358 1133 q 332 1119 340 1128 q 318 1096 324 1110 l 311 1096 q 333 1157 317 1136 q 368 1179 349 1178 q 401 1177 388 1181 q 428 1168 415 1174 q 437 1162 429 1167 q 449 1155 444 1157 q 463 1149 454 1153 q 478 1144 472 1144 q 492 1144 485 1143 q 505 1149 500 1144 q 514 1164 510 1154 l 521 1164 q 407 1118 506 1057 z "},"Ò":{"ha":1040,"x_min":40,"x_max":1000,"o":"m 276 919 q 331 952 276 919 q 519 986 386 986 q 763 919 653 986 q 936 737 874 851 q 999 486 999 622 q 936 235 999 350 q 763 53 874 121 q 519 -14 653 -14 q 276 53 386 -14 q 103 235 165 121 q 40 486 40 350 q 103 737 40 622 q 276 919 165 851 m 519 0 q 674 38 601 0 q 797 141 746 76 q 876 295 847 206 q 904 486 904 385 q 856 732 904 621 q 718 908 807 843 q 519 972 629 972 q 322 908 410 972 q 184 732 233 843 q 135 486 135 621 q 184 240 135 351 q 322 65 233 129 q 519 0 410 0 m 585 1081 q 460 1157 478 1139 q 450 1180 450 1165 q 463 1206 450 1194 q 490 1218 475 1218 q 513 1210 504 1218 q 528 1190 518 1204 q 547 1158 538 1175 q 567 1124 557 1140 q 583 1096 576 1107 l 589 1085 l 585 1081 z "},"Ó":{"ha":1040,"x_min":40,"x_max":1000,"o":"m 276 919 q 331 952 276 919 q 519 986 386 986 q 763 919 653 986 q 936 737 874 851 q 999 486 999 622 q 936 235 999 350 q 763 53 874 121 q 519 -14 653 -14 q 276 53 386 -14 q 103 235 165 121 q 40 486 40 350 q 103 737 40 622 q 276 919 165 851 m 519 0 q 674 38 601 0 q 797 141 746 76 q 876 295 847 206 q 904 486 904 385 q 856 732 904 621 q 718 908 807 843 q 519 972 629 972 q 322 908 410 972 q 184 732 233 843 q 135 486 135 621 q 184 240 135 351 q 322 65 233 129 q 519 0 410 0 m 579 1157 q 456 1081 561 1139 l 450 1085 q 526 1210 508 1192 q 550 1218 535 1218 q 577 1206 565 1218 q 589 1180 589 1194 q 579 1157 589 1165 z "},"Ô":{"ha":1040,"x_min":40,"x_max":1000,"o":"m 276 919 q 331 952 276 919 q 519 986 386 986 q 763 919 653 986 q 936 737 874 851 q 999 486 999 622 q 936 235 999 350 q 763 53 874 121 q 519 -14 653 -14 q 276 53 386 -14 q 103 235 165 121 q 40 486 40 350 q 103 737 40 622 q 276 919 165 851 m 322 65 q 366 32 322 65 q 519 0 410 0 q 718 65 629 0 q 856 240 807 129 q 904 486 904 351 q 856 732 904 621 q 718 908 807 843 q 519 972 629 972 q 322 908 410 972 q 184 732 233 843 q 135 486 135 621 q 184 240 135 351 q 322 65 233 129 m 519 1128 l 432 1068 l 425 1068 l 501 1199 q 519 1210 507 1210 q 538 1199 532 1210 l 614 1068 l 607 1068 l 519 1128 z "},"Õ":{"ha":1040,"x_min":40,"x_max":1000,"o":"m 276 919 q 331 952 276 919 q 519 986 386 986 q 763 919 653 986 q 936 737 874 851 q 999 486 999 622 q 936 235 999 350 q 763 53 874 121 q 519 -14 653 -14 q 276 53 386 -14 q 103 235 165 121 q 40 486 40 350 q 103 737 40 622 q 276 919 165 851 m 519 0 q 674 38 601 0 q 797 141 746 76 q 876 295 847 206 q 904 486 904 385 q 856 732 904 621 q 718 908 807 843 q 519 972 629 972 q 322 908 410 972 q 184 732 233 843 q 135 486 135 621 q 184 240 135 351 q 322 65 233 129 q 519 0 410 0 m 510 1118 q 487 1129 499 1125 q 463 1133 475 1133 q 439 1123 450 1132 q 422 1096 428 1114 l 415 1096 q 436 1157 421 1136 q 472 1179 451 1178 q 506 1177 492 1181 q 531 1168 519 1174 q 540 1162 532 1167 q 553 1155 549 1157 q 567 1149 558 1153 q 582 1144 575 1144 q 596 1144 589 1143 q 608 1149 603 1144 q 618 1164 614 1154 l 624 1164 q 510 1118 610 1057 z "},"Ö":{"ha":1040,"x_min":40,"x_max":1000,"o":"m 276 919 q 331 952 276 919 q 519 986 386 986 q 763 919 653 986 q 936 737 874 851 q 999 486 999 622 q 936 235 999 350 q 763 53 874 121 q 519 -14 653 -14 q 276 53 386 -14 q 103 235 165 121 q 40 486 40 350 q 103 737 40 622 q 276 919 165 851 m 519 0 q 674 38 601 0 q 797 141 746 76 q 876 295 847 206 q 904 486 904 385 q 856 732 904 621 q 718 908 807 843 q 519 972 629 972 q 322 908 410 972 q 184 732 233 843 q 135 486 135 621 q 184 240 135 351 q 322 65 233 129 q 519 0 410 0 m 481 1107 q 475 1101 481 1107 q 450 1094 468 1094 q 419 1107 432 1094 q 407 1138 407 1119 q 419 1169 407 1157 q 450 1182 432 1182 q 481 1169 468 1182 q 494 1138 494 1157 q 481 1107 494 1119 m 620 1107 q 614 1101 620 1107 q 589 1094 607 1094 q 558 1107 571 1094 q 544 1138 544 1119 q 558 1169 544 1157 q 589 1182 571 1182 q 620 1169 607 1182 q 633 1138 633 1157 q 620 1107 633 1119 z "},"×":{"ha":296,"x_min":33,"x_max":263,"o":"m 263 467 l 167 372 l 263 276 l 243 257 l 147 353 l 53 257 l 33 276 l 129 372 l 33 467 l 53 486 l 147 390 l 243 486 l 263 467 z "},"Ø":{"ha":1040,"x_min":40,"x_max":1000,"o":"m 692 954 q 915 773 831 900 q 999 486 999 646 q 936 235 999 350 q 763 53 874 121 q 519 -14 653 -14 q 371 10 443 -14 l 350 -54 l 322 -54 l 347 18 q 125 199 210 72 q 40 486 40 326 q 103 737 40 622 q 276 919 165 851 q 519 986 386 986 q 668 963 597 986 l 690 1026 l 717 1026 l 692 954 m 356 43 l 661 942 q 519 972 594 972 q 322 908 410 972 q 184 732 233 843 q 135 486 135 621 q 194 219 135 338 q 356 43 254 100 m 519 0 q 646 24 586 0 q 752 93 706 49 q 833 197 799 138 q 886 331 868 257 q 904 486 904 406 q 844 753 904 635 q 683 929 785 872 l 378 31 q 519 0 444 0 z "},"Ù":{"ha":768,"x_min":46,"x_max":722,"o":"m 626 972 l 721 972 l 721 965 q 681 932 681 965 l 681 269 q 606 63 681 139 q 404 -14 531 -14 q 240 16 310 -14 q 128 110 171 46 q 86 269 86 175 l 86 932 q 46 965 86 965 l 46 972 l 208 972 l 208 965 q 167 932 167 965 l 167 269 q 228 73 167 146 q 404 0 290 0 q 596 74 525 0 q 667 269 667 147 l 667 932 q 626 965 667 965 l 626 972 m 449 1081 q 324 1157 342 1139 q 314 1180 314 1165 q 326 1206 314 1194 q 353 1218 338 1218 q 376 1210 368 1218 q 392 1190 382 1204 q 411 1158 401 1175 q 431 1124 421 1140 q 447 1096 440 1107 l 453 1085 l 449 1081 z "},"Ú":{"ha":768,"x_min":46,"x_max":722,"o":"m 626 972 l 721 972 l 721 965 q 681 932 681 965 l 681 269 q 606 63 681 139 q 404 -14 531 -14 q 240 16 310 -14 q 128 110 171 46 q 86 269 86 175 l 86 932 q 46 965 86 965 l 46 972 l 208 972 l 208 965 q 167 932 167 965 l 167 269 q 228 73 167 146 q 404 0 290 0 q 596 74 525 0 q 667 269 667 147 l 667 932 q 626 965 667 965 l 626 972 m 443 1157 q 319 1081 426 1139 l 314 1085 q 390 1210 372 1192 q 414 1218 399 1218 q 441 1206 429 1218 q 453 1180 453 1194 q 443 1157 453 1165 z "},"Û":{"ha":768,"x_min":46,"x_max":722,"o":"m 626 972 l 721 972 l 721 965 q 681 932 681 965 l 681 269 q 606 63 681 139 q 404 -14 531 -14 q 240 16 310 -14 q 128 110 171 46 q 86 269 86 175 l 86 932 q 46 965 86 965 l 46 972 l 208 972 l 208 965 q 167 932 167 965 l 167 269 q 228 73 167 146 q 404 0 290 0 q 596 74 525 0 q 667 269 667 147 l 667 932 q 626 965 667 965 l 626 972 m 383 1128 l 296 1068 l 289 1068 l 365 1199 q 383 1210 371 1210 q 401 1199 396 1210 l 478 1068 l 471 1068 l 383 1128 z "},"Ü":{"ha":768,"x_min":46,"x_max":722,"o":"m 626 972 l 721 972 l 721 965 q 681 932 681 965 l 681 269 q 606 63 681 139 q 404 -14 531 -14 q 240 16 310 -14 q 128 110 171 46 q 86 269 86 175 l 86 932 q 46 965 86 965 l 46 972 l 208 972 l 208 965 q 167 932 167 965 l 167 269 q 228 73 167 146 q 404 0 290 0 q 596 74 525 0 q 667 269 667 147 l 667 932 q 626 965 667 965 l 626 972 m 345 1107 q 339 1101 345 1107 q 314 1094 332 1094 q 283 1107 296 1094 q 271 1138 271 1119 q 283 1169 271 1157 q 314 1182 296 1182 q 345 1169 332 1182 q 358 1138 358 1157 q 345 1107 358 1119 m 484 1107 q 477 1101 484 1107 q 453 1094 471 1094 q 422 1107 435 1094 q 408 1138 408 1119 q 422 1169 408 1157 q 453 1182 435 1182 q 484 1169 471 1182 q 497 1138 497 1157 q 484 1107 497 1119 z "},"Ý":{"ha":739,"x_min":-7,"x_max":744,"o":"m 650 972 l 744 972 l 744 965 q 682 932 700 965 l 419 453 l 419 40 q 460 7 419 7 l 460 0 l 299 0 l 299 7 q 339 40 339 7 l 339 453 l 58 932 q -6 965 39 965 l -6 972 l 169 972 l 169 965 q 153 932 133 965 l 415 468 l 668 932 q 650 965 686 965 l 650 972 m 474 1157 q 349 1081 456 1139 l 344 1085 q 421 1210 403 1192 q 444 1218 429 1218 q 471 1206 458 1218 q 483 1180 483 1194 q 474 1157 483 1165 z "},"ß":{"ha":717,"x_min":44,"x_max":688,"o":"m 393 536 q 612 454 536 524 q 688 269 688 385 q 586 74 688 149 q 322 0 485 0 l 46 0 l 46 7 q 86 40 86 7 l 86 661 q 104 799 86 739 q 149 892 122 858 q 209 949 175 926 q 272 978 243 971 q 329 986 301 986 q 495 918 432 986 q 558 756 558 850 q 514 625 558 690 q 393 536 469 560 m 322 14 q 528 83 457 14 q 600 269 600 151 q 530 462 600 397 q 322 526 460 526 l 275 526 l 275 540 l 329 540 q 417 574 382 540 q 466 655 453 608 q 479 756 479 701 q 467 861 479 815 q 419 940 454 907 q 329 972 383 972 q 207 893 247 972 q 167 649 167 814 l 167 14 l 322 14 z "},"à":{"ha":793,"x_min":-1,"x_max":796,"o":"m 739 40 q 796 7 753 7 l 796 0 l 633 0 l 633 7 q 658 15 651 7 q 660 35 665 22 l 544 331 l 163 331 l 64 36 q 67 15 60 22 q 93 7 75 7 l 93 0 l -1 0 l -1 7 q 53 40 42 7 l 364 972 l 376 972 l 739 40 m 168 344 l 540 344 l 339 860 l 168 344 m 433 1081 q 308 1157 326 1139 q 299 1180 299 1165 q 310 1206 299 1194 q 338 1218 322 1218 q 361 1210 353 1218 q 376 1190 367 1204 q 396 1158 386 1175 q 415 1124 406 1140 q 432 1096 425 1107 l 438 1085 l 433 1081 z "},"á":{"ha":793,"x_min":-1,"x_max":796,"o":"m 739 40 q 796 7 753 7 l 796 0 l 633 0 l 633 7 q 658 15 651 7 q 660 35 665 22 l 544 331 l 163 331 l 64 36 q 67 15 60 22 q 93 7 75 7 l 93 0 l -1 0 l -1 7 q 53 40 42 7 l 364 972 l 376 972 l 739 40 m 168 344 l 540 344 l 339 860 l 168 344 m 429 1157 q 304 1081 411 1139 l 300 1085 q 376 1210 358 1192 q 399 1218 385 1218 q 426 1206 414 1218 q 439 1180 439 1194 q 429 1157 439 1165 z "},"â":{"ha":793,"x_min":-1,"x_max":796,"o":"m 739 40 q 796 7 753 7 l 796 0 l 633 0 l 633 7 q 658 15 651 7 q 660 35 665 22 l 544 331 l 163 331 l 64 36 q 67 15 60 22 q 93 7 75 7 l 93 0 l -1 0 l -1 7 q 53 40 42 7 l 364 972 l 376 972 l 739 40 m 168 344 l 540 344 l 339 860 l 168 344 m 369 1128 l 282 1068 l 275 1068 l 351 1199 q 369 1210 357 1210 q 388 1199 382 1210 l 464 1068 l 458 1068 l 369 1128 z "},"ã":{"ha":793,"x_min":-1,"x_max":796,"o":"m 739 40 q 796 7 753 7 l 796 0 l 633 0 l 633 7 q 658 15 651 7 q 660 35 665 22 l 544 331 l 163 331 l 64 36 q 67 15 60 22 q 93 7 75 7 l 93 0 l -1 0 l -1 7 q 53 40 42 7 l 364 972 l 376 972 l 739 40 m 168 344 l 540 344 l 339 860 l 168 344 m 368 1118 q 344 1129 356 1125 q 319 1133 332 1133 q 297 1123 307 1132 q 279 1096 286 1114 l 272 1096 q 288 1148 276 1128 q 313 1174 300 1168 q 343 1180 326 1181 q 369 1176 360 1179 q 389 1168 379 1172 q 398 1162 390 1167 q 410 1155 406 1157 q 424 1149 415 1153 q 440 1144 433 1144 q 453 1144 446 1143 q 465 1149 460 1144 q 475 1164 471 1154 l 482 1164 q 368 1118 467 1057 z "},"ä":{"ha":793,"x_min":-1,"x_max":796,"o":"m 739 40 q 796 7 753 7 l 796 0 l 633 0 l 633 7 q 658 15 651 7 q 660 35 665 22 l 544 331 l 163 331 l 64 36 q 67 15 60 22 q 93 7 75 7 l 93 0 l -1 0 l -1 7 q 53 40 42 7 l 364 972 l 376 972 l 739 40 m 168 344 l 540 344 l 339 860 l 168 344 m 333 1107 q 326 1101 333 1107 q 301 1094 319 1094 q 270 1107 283 1094 q 257 1138 257 1119 q 270 1169 257 1157 q 301 1182 283 1182 q 333 1169 319 1182 q 346 1138 346 1157 q 333 1107 346 1119 m 471 1107 q 465 1101 471 1107 q 440 1094 458 1094 q 409 1107 422 1094 q 396 1138 396 1119 q 409 1169 396 1157 q 440 1182 422 1182 q 471 1169 458 1182 q 483 1138 483 1157 q 471 1107 483 1119 z "},"å":{"ha":793,"x_min":-1,"x_max":796,"o":"m 739 40 q 796 7 753 7 l 796 0 l 633 0 l 633 7 q 658 15 651 7 q 660 35 665 22 l 544 331 l 163 331 l 64 36 q 67 15 60 22 q 93 7 75 7 l 93 0 l -1 0 l -1 7 q 53 40 42 7 l 364 972 l 376 972 l 739 40 m 168 344 l 540 344 l 339 860 l 168 344 m 424 1083 q 413 1071 424 1083 q 369 1060 401 1060 q 315 1083 338 1060 q 292 1138 292 1106 q 315 1192 292 1169 q 369 1215 338 1215 q 424 1192 401 1215 q 447 1138 447 1169 q 424 1083 447 1106 m 415 1183 q 405 1192 415 1183 q 369 1201 396 1201 q 324 1183 343 1201 q 306 1138 306 1164 q 324 1092 306 1111 q 369 1074 343 1074 q 415 1092 396 1074 q 433 1138 433 1111 q 415 1183 433 1164 z "},"æ":{"ha":946,"x_min":-1,"x_max":931,"o":"m 924 108 l 931 108 l 890 0 l 322 0 l 322 7 q 363 40 363 7 l 363 331 l 163 331 l 64 36 q 93 7 57 7 l 93 0 l -1 0 l -1 7 q 53 40 42 7 l 364 972 l 850 972 l 890 864 l 883 864 q 868 894 874 885 q 849 923 863 904 q 815 950 835 942 q 768 958 794 958 l 444 958 l 444 493 l 728 493 q 761 533 761 493 l 768 533 l 768 439 l 761 439 q 728 479 761 479 l 444 479 l 444 14 l 808 14 q 855 22 835 14 q 889 49 875 31 q 908 78 903 68 q 924 108 914 88 m 364 344 l 364 932 l 168 344 l 364 344 z "},"ç":{"ha":869,"x_min":39,"x_max":851,"o":"m 519 -14 q 428 -4 474 -14 l 417 -46 q 490 -56 453 -35 q 526 -121 526 -78 q 499 -177 526 -158 q 439 -196 471 -196 q 374 -156 385 -196 l 388 -156 q 432 -182 397 -185 q 467 -162 456 -181 q 479 -121 478 -143 q 463 -65 482 -81 q 411 -61 443 -50 l 399 -61 l 415 -3 q 146 171 251 35 q 40 486 40 307 q 103 737 40 622 q 276 919 165 851 q 519 986 386 986 q 658 966 597 986 q 783 899 718 946 l 796 776 q 687 920 761 868 q 519 972 613 972 q 322 908 410 972 q 184 732 233 843 q 135 486 135 621 q 184 240 135 351 q 322 65 233 129 q 519 0 410 0 q 700 42 615 0 q 838 163 785 85 l 850 163 q 519 -14 738 -14 z "},"è":{"ha":675,"x_min":50,"x_max":660,"o":"m 653 108 l 658 108 l 618 0 l 51 0 l 51 7 q 92 40 92 7 l 92 932 q 51 965 92 965 l 51 972 l 578 972 l 618 864 l 611 864 q 597 894 603 885 q 578 923 592 904 q 544 950 564 942 q 497 958 524 958 l 172 958 l 172 493 l 457 493 q 490 533 490 493 l 497 533 l 497 439 l 490 439 q 457 479 490 479 l 172 479 l 172 14 l 538 14 q 584 22 564 14 q 618 49 604 31 q 638 78 632 68 q 653 108 643 88 m 419 1081 q 296 1157 314 1139 q 286 1180 286 1165 q 298 1206 286 1194 q 325 1218 310 1218 q 349 1210 340 1218 q 363 1190 353 1204 q 383 1158 372 1175 q 403 1124 393 1140 q 418 1096 413 1107 l 425 1085 l 419 1081 z "},"é":{"ha":675,"x_min":50,"x_max":660,"o":"m 653 108 l 658 108 l 618 0 l 51 0 l 51 7 q 92 40 92 7 l 92 932 q 51 965 92 965 l 51 972 l 578 972 l 618 864 l 611 864 q 597 894 603 885 q 578 923 592 904 q 544 950 564 942 q 497 958 524 958 l 172 958 l 172 493 l 457 493 q 490 533 490 493 l 497 533 l 497 439 l 490 439 q 457 479 490 479 l 172 479 l 172 14 l 538 14 q 584 22 564 14 q 618 49 604 31 q 638 78 632 68 q 653 108 643 88 m 415 1157 q 290 1081 397 1139 l 286 1085 q 363 1210 344 1192 q 385 1218 371 1218 q 413 1206 400 1218 q 425 1180 425 1194 q 415 1157 425 1165 z "},"ê":{"ha":675,"x_min":50,"x_max":660,"o":"m 653 108 l 658 108 l 618 0 l 51 0 l 51 7 q 92 40 92 7 l 92 932 q 51 965 92 965 l 51 972 l 578 972 l 618 864 l 611 864 q 597 894 603 885 q 578 923 592 904 q 544 950 564 942 q 497 958 524 958 l 172 958 l 172 493 l 457 493 q 490 533 490 493 l 497 533 l 497 439 l 490 439 q 457 479 490 479 l 172 479 l 172 14 l 538 14 q 584 22 564 14 q 618 49 604 31 q 638 78 632 68 q 653 108 643 88 m 356 1128 l 268 1068 l 261 1068 l 338 1199 q 356 1210 343 1210 q 374 1199 368 1210 l 450 1068 l 443 1068 l 356 1128 z "},"ë":{"ha":675,"x_min":50,"x_max":660,"o":"m 653 108 l 658 108 l 618 0 l 51 0 l 51 7 q 92 40 92 7 l 92 932 q 51 965 92 965 l 51 972 l 578 972 l 618 864 l 611 864 q 597 894 603 885 q 578 923 592 904 q 544 950 564 942 q 497 958 524 958 l 172 958 l 172 493 l 457 493 q 490 533 490 493 l 497 533 l 497 439 l 490 439 q 457 479 490 479 l 172 479 l 172 14 l 538 14 q 584 22 564 14 q 618 49 604 31 q 638 78 632 68 q 653 108 643 88 m 317 1107 q 311 1101 317 1107 q 286 1094 304 1094 q 255 1107 268 1094 q 242 1138 242 1119 q 255 1169 242 1157 q 286 1182 268 1182 q 317 1169 304 1182 q 331 1138 331 1157 q 317 1107 331 1119 m 456 1107 q 449 1101 456 1107 q 425 1094 443 1094 q 394 1107 407 1094 q 381 1138 381 1119 q 394 1169 381 1157 q 425 1182 407 1182 q 456 1169 443 1182 q 468 1138 468 1157 q 456 1107 468 1119 z "},"ì":{"ha":265,"x_min":51,"x_max":214,"o":"m 214 965 q 172 932 172 965 l 172 40 q 214 7 172 7 l 214 0 l 51 0 l 51 7 q 92 40 92 7 l 92 932 q 51 965 92 965 l 51 972 l 214 972 l 214 965 m 197 1081 q 72 1157 90 1139 q 63 1180 63 1165 q 76 1206 64 1194 q 102 1218 88 1218 q 125 1210 117 1218 q 140 1190 131 1204 q 160 1158 150 1175 q 180 1124 171 1140 q 196 1096 189 1107 l 201 1085 l 197 1081 z "},"í":{"ha":265,"x_min":51,"x_max":214,"o":"m 214 965 q 172 932 172 965 l 172 40 q 214 7 172 7 l 214 0 l 51 0 l 51 7 q 92 40 92 7 l 92 932 q 51 965 92 965 l 51 972 l 214 972 l 214 965 m 192 1157 q 68 1081 175 1139 l 63 1085 q 139 1210 122 1192 q 163 1218 149 1218 q 190 1206 178 1218 q 201 1180 201 1194 q 192 1157 201 1165 z "},"î":{"ha":265,"x_min":38,"x_max":228,"o":"m 51 965 l 51 972 l 213 972 l 213 965 q 172 932 172 965 l 172 40 q 213 7 172 7 l 213 0 l 51 0 l 51 7 q 92 40 92 7 l 92 932 q 51 965 92 965 m 150 1199 l 226 1068 l 219 1068 l 132 1128 l 44 1068 l 38 1068 l 114 1199 q 132 1210 119 1210 q 150 1199 144 1210 z "},"ï":{"ha":267,"x_min":19,"x_max":247,"o":"m 51 965 l 51 972 l 214 972 l 214 965 q 174 932 174 965 l 174 40 q 214 7 174 7 l 214 0 l 51 0 l 51 7 q 92 40 92 7 l 92 932 q 51 965 92 965 m 94 1107 q 88 1101 94 1107 q 64 1094 82 1094 q 33 1107 46 1094 q 19 1138 19 1119 q 33 1169 19 1157 q 64 1182 46 1182 q 94 1169 82 1182 q 107 1138 107 1157 q 94 1107 107 1119 m 171 1169 q 177 1176 171 1169 q 201 1182 183 1182 q 233 1169 219 1182 q 246 1138 246 1157 q 233 1107 246 1119 q 201 1094 219 1094 q 171 1107 183 1094 q 158 1138 158 1119 q 171 1169 158 1157 z "},"ñ":{"ha":832,"x_min":51,"x_max":782,"o":"m 686 972 l 781 972 l 781 965 q 740 932 740 965 l 740 0 l 726 0 l 106 932 l 106 40 q 146 7 106 7 l 146 0 l 51 0 l 51 7 q 92 40 92 7 l 92 932 q 51 965 92 965 l 51 972 l 172 972 l 726 149 l 726 932 q 686 965 726 965 l 686 972 m 407 1118 q 388 1127 397 1124 q 369 1132 379 1131 q 349 1131 358 1133 q 332 1119 340 1128 q 318 1096 324 1110 l 311 1096 q 333 1157 317 1136 q 368 1179 349 1178 q 401 1177 388 1181 q 428 1168 415 1174 q 437 1162 429 1167 q 449 1155 444 1157 q 463 1149 454 1153 q 478 1144 472 1144 q 492 1144 485 1143 q 505 1149 500 1144 q 514 1164 510 1154 l 521 1164 q 407 1118 506 1057 z "},"ò":{"ha":1040,"x_min":40,"x_max":1000,"o":"m 276 919 q 331 952 276 919 q 519 986 386 986 q 763 919 653 986 q 936 737 874 851 q 999 486 999 622 q 936 235 999 350 q 763 53 874 121 q 519 -14 653 -14 q 276 53 386 -14 q 103 235 165 121 q 40 486 40 350 q 103 737 40 622 q 276 919 165 851 m 519 0 q 674 38 601 0 q 797 141 746 76 q 876 295 847 206 q 904 486 904 385 q 856 732 904 621 q 718 908 807 843 q 519 972 629 972 q 322 908 410 972 q 184 732 233 843 q 135 486 135 621 q 184 240 135 351 q 322 65 233 129 q 519 0 410 0 m 585 1081 q 460 1157 478 1139 q 450 1180 450 1165 q 463 1206 450 1194 q 490 1218 475 1218 q 513 1210 504 1218 q 528 1190 518 1204 q 547 1158 538 1175 q 567 1124 557 1140 q 583 1096 576 1107 l 589 1085 l 585 1081 z "},"ó":{"ha":1040,"x_min":40,"x_max":1000,"o":"m 276 919 q 331 952 276 919 q 519 986 386 986 q 763 919 653 986 q 936 737 874 851 q 999 486 999 622 q 936 235 999 350 q 763 53 874 121 q 519 -14 653 -14 q 276 53 386 -14 q 103 235 165 121 q 40 486 40 350 q 103 737 40 622 q 276 919 165 851 m 519 0 q 674 38 601 0 q 797 141 746 76 q 876 295 847 206 q 904 486 904 385 q 856 732 904 621 q 718 908 807 843 q 519 972 629 972 q 322 908 410 972 q 184 732 233 843 q 135 486 135 621 q 184 240 135 351 q 322 65 233 129 q 519 0 410 0 m 579 1157 q 456 1081 561 1139 l 450 1085 q 526 1210 508 1192 q 550 1218 535 1218 q 577 1206 565 1218 q 589 1180 589 1194 q 579 1157 589 1165 z "},"ô":{"ha":1040,"x_min":40,"x_max":1000,"o":"m 276 919 q 331 952 276 919 q 519 986 386 986 q 763 919 653 986 q 936 737 874 851 q 999 486 999 622 q 936 235 999 350 q 763 53 874 121 q 519 -14 653 -14 q 276 53 386 -14 q 103 235 165 121 q 40 486 40 350 q 103 737 40 622 q 276 919 165 851 m 322 65 q 366 32 322 65 q 519 0 410 0 q 718 65 629 0 q 856 240 807 129 q 904 486 904 351 q 856 732 904 621 q 718 908 807 843 q 519 972 629 972 q 322 908 410 972 q 184 732 233 843 q 135 486 135 621 q 184 240 135 351 q 322 65 233 129 m 519 1128 l 432 1068 l 425 1068 l 501 1199 q 519 1210 507 1210 q 538 1199 532 1210 l 614 1068 l 607 1068 l 519 1128 z "},"õ":{"ha":1040,"x_min":40,"x_max":1000,"o":"m 276 919 q 331 952 276 919 q 519 986 386 986 q 763 919 653 986 q 936 737 874 851 q 999 486 999 622 q 936 235 999 350 q 763 53 874 121 q 519 -14 653 -14 q 276 53 386 -14 q 103 235 165 121 q 40 486 40 350 q 103 737 40 622 q 276 919 165 851 m 519 0 q 674 38 601 0 q 797 141 746 76 q 876 295 847 206 q 904 486 904 385 q 856 732 904 621 q 718 908 807 843 q 519 972 629 972 q 322 908 410 972 q 184 732 233 843 q 135 486 135 621 q 184 240 135 351 q 322 65 233 129 q 519 0 410 0 m 510 1118 q 487 1129 499 1125 q 463 1133 475 1133 q 439 1123 450 1132 q 422 1096 428 1114 l 415 1096 q 436 1157 421 1136 q 472 1179 451 1178 q 506 1177 492 1181 q 531 1168 519 1174 q 540 1162 532 1167 q 553 1155 549 1157 q 567 1149 558 1153 q 582 1144 575 1144 q 596 1144 589 1143 q 608 1149 603 1144 q 618 1164 614 1154 l 624 1164 q 510 1118 610 1057 z "},"ö":{"ha":1040,"x_min":40,"x_max":1000,"o":"m 276 919 q 331 952 276 919 q 519 986 386 986 q 763 919 653 986 q 936 737 874 851 q 999 486 999 622 q 936 235 999 350 q 763 53 874 121 q 519 -14 653 -14 q 276 53 386 -14 q 103 235 165 121 q 40 486 40 350 q 103 737 40 622 q 276 919 165 851 m 519 0 q 674 38 601 0 q 797 141 746 76 q 876 295 847 206 q 904 486 904 385 q 856 732 904 621 q 718 908 807 843 q 519 972 629 972 q 322 908 410 972 q 184 732 233 843 q 135 486 135 621 q 184 240 135 351 q 322 65 233 129 q 519 0 410 0 m 481 1107 q 475 1101 481 1107 q 450 1094 468 1094 q 419 1107 432 1094 q 407 1138 407 1119 q 419 1169 407 1157 q 450 1182 432 1182 q 481 1169 468 1182 q 494 1138 494 1157 q 481 1107 494 1119 m 620 1107 q 614 1101 620 1107 q 589 1094 607 1094 q 558 1107 571 1094 q 544 1138 544 1119 q 558 1169 544 1157 q 589 1182 571 1182 q 620 1169 607 1182 q 633 1138 633 1157 q 620 1107 633 1119 z "},"÷":{"ha":342,"x_min":22,"x_max":319,"o":"m 319 297 l 22 297 l 22 324 l 319 324 l 319 297 m 204 406 q 197 399 204 406 q 171 392 190 392 q 138 406 151 392 q 124 439 124 419 q 138 472 124 458 q 171 486 151 486 q 204 472 190 486 q 218 439 218 458 q 204 406 218 419 m 204 149 q 197 142 204 149 q 171 135 190 135 q 138 149 151 135 q 124 182 124 163 q 138 215 124 201 q 171 229 151 229 q 204 215 190 229 q 218 182 218 201 q 204 149 218 163 z "},"ø":{"ha":1040,"x_min":40,"x_max":1000,"o":"m 692 954 q 915 773 831 900 q 999 486 999 646 q 936 235 999 350 q 763 53 874 121 q 519 -14 653 -14 q 371 10 443 -14 l 350 -54 l 322 -54 l 347 18 q 125 199 210 72 q 40 486 40 326 q 103 737 40 622 q 276 919 165 851 q 519 986 386 986 q 668 963 597 986 l 690 1026 l 717 1026 l 692 954 m 356 43 l 661 942 q 519 972 594 972 q 322 908 410 972 q 184 732 233 843 q 135 486 135 621 q 194 219 135 338 q 356 43 254 100 m 519 0 q 646 24 586 0 q 752 93 706 49 q 833 197 799 138 q 886 331 868 257 q 904 486 904 406 q 844 753 904 635 q 683 929 785 872 l 378 31 q 519 0 444 0 z "},"ù":{"ha":768,"x_min":46,"x_max":722,"o":"m 626 972 l 721 972 l 721 965 q 681 932 681 965 l 681 269 q 606 63 681 139 q 404 -14 531 -14 q 240 16 310 -14 q 128 110 171 46 q 86 269 86 175 l 86 932 q 46 965 86 965 l 46 972 l 208 972 l 208 965 q 167 932 167 965 l 167 269 q 228 73 167 146 q 404 0 290 0 q 596 74 525 0 q 667 269 667 147 l 667 932 q 626 965 667 965 l 626 972 m 449 1081 q 324 1157 342 1139 q 314 1180 314 1165 q 326 1206 314 1194 q 353 1218 338 1218 q 376 1210 368 1218 q 392 1190 382 1204 q 411 1158 401 1175 q 431 1124 421 1140 q 447 1096 440 1107 l 453 1085 l 449 1081 z "},"ú":{"ha":768,"x_min":46,"x_max":722,"o":"m 626 972 l 721 972 l 721 965 q 681 932 681 965 l 681 269 q 606 63 681 139 q 404 -14 531 -14 q 240 16 310 -14 q 128 110 171 46 q 86 269 86 175 l 86 932 q 46 965 86 965 l 46 972 l 208 972 l 208 965 q 167 932 167 965 l 167 269 q 228 73 167 146 q 404 0 290 0 q 596 74 525 0 q 667 269 667 147 l 667 932 q 626 965 667 965 l 626 972 m 443 1157 q 319 1081 426 1139 l 314 1085 q 390 1210 372 1192 q 414 1218 399 1218 q 441 1206 429 1218 q 453 1180 453 1194 q 443 1157 453 1165 z "},"û":{"ha":768,"x_min":46,"x_max":722,"o":"m 626 972 l 721 972 l 721 965 q 681 932 681 965 l 681 269 q 606 63 681 139 q 404 -14 531 -14 q 240 16 310 -14 q 128 110 171 46 q 86 269 86 175 l 86 932 q 46 965 86 965 l 46 972 l 208 972 l 208 965 q 167 932 167 965 l 167 269 q 228 73 167 146 q 404 0 290 0 q 596 74 525 0 q 667 269 667 147 l 667 932 q 626 965 667 965 l 626 972 m 383 1128 l 296 1068 l 289 1068 l 365 1199 q 383 1210 371 1210 q 401 1199 396 1210 l 478 1068 l 471 1068 l 383 1128 z "},"ü":{"ha":768,"x_min":46,"x_max":722,"o":"m 626 972 l 721 972 l 721 965 q 681 932 681 965 l 681 269 q 606 63 681 139 q 404 -14 531 -14 q 240 16 310 -14 q 128 110 171 46 q 86 269 86 175 l 86 932 q 46 965 86 965 l 46 972 l 208 972 l 208 965 q 167 932 167 965 l 167 269 q 228 73 167 146 q 404 0 290 0 q 596 74 525 0 q 667 269 667 147 l 667 932 q 626 965 667 965 l 626 972 m 345 1107 q 339 1101 345 1107 q 314 1094 332 1094 q 283 1107 296 1094 q 271 1138 271 1119 q 283 1169 271 1157 q 314 1182 296 1182 q 345 1169 332 1182 q 358 1138 358 1157 q 345 1107 358 1119 m 484 1107 q 477 1101 484 1107 q 453 1094 471 1094 q 422 1107 435 1094 q 408 1138 408 1119 q 422 1169 408 1157 q 453 1182 435 1182 q 484 1169 471 1182 q 497 1138 497 1157 q 484 1107 497 1119 z "},"ý":{"ha":739,"x_min":-7,"x_max":744,"o":"m 650 972 l 744 972 l 744 965 q 682 932 700 965 l 419 453 l 419 40 q 460 7 419 7 l 460 0 l 299 0 l 299 7 q 339 40 339 7 l 339 453 l 58 932 q -6 965 39 965 l -6 972 l 169 972 l 169 965 q 153 932 133 965 l 415 468 l 668 932 q 650 965 686 965 l 650 972 m 474 1157 q 349 1081 456 1139 l 344 1085 q 421 1210 403 1192 q 444 1218 429 1218 q 471 1206 458 1218 q 483 1180 483 1194 q 474 1157 483 1165 z "},"ÿ":{"ha":739,"x_min":-7,"x_max":744,"o":"m 650 972 l 744 972 l 744 965 q 682 932 700 965 l 419 453 l 419 40 q 460 7 419 7 l 460 0 l 299 0 l 299 7 q 339 40 339 7 l 339 453 l 58 932 q -6 965 39 965 l -6 972 l 169 972 l 169 965 q 153 932 133 965 l 415 468 l 668 932 q 650 965 686 965 l 650 972 m 356 1107 q 350 1101 356 1107 q 325 1094 343 1094 q 294 1107 307 1094 q 282 1138 282 1119 q 294 1169 282 1157 q 325 1182 307 1182 q 356 1169 343 1182 q 369 1138 369 1157 q 356 1107 369 1119 m 495 1107 q 489 1101 495 1107 q 464 1094 482 1094 q 433 1107 446 1094 q 419 1138 419 1119 q 433 1169 419 1157 q 464 1182 446 1182 q 495 1169 482 1182 q 508 1138 508 1157 q 495 1107 508 1119 z "},"Ÿ":{"ha":739,"x_min":-7,"x_max":744,"o":"m 650 972 l 744 972 l 744 965 q 682 932 700 965 l 419 453 l 419 40 q 460 7 419 7 l 460 0 l 299 0 l 299 7 q 339 40 339 7 l 339 453 l 58 932 q -6 965 39 965 l -6 972 l 169 972 l 169 965 q 153 932 133 965 l 415 468 l 668 932 q 650 965 686 965 l 650 972 m 356 1107 q 350 1101 356 1107 q 325 1094 343 1094 q 294 1107 307 1094 q 282 1138 282 1119 q 294 1169 282 1157 q 325 1182 307 1182 q 356 1169 343 1182 q 369 1138 369 1157 q 356 1107 369 1119 m 495 1107 q 489 1101 495 1107 q 464 1094 482 1094 q 433 1107 446 1094 q 419 1138 419 1119 q 433 1169 419 1157 q 464 1182 446 1182 q 495 1169 482 1182 q 508 1138 508 1157 q 495 1107 508 1119 z "},"’":{"ha":139,"x_min":25,"x_max":122,"o":"m 54 979 l 121 986 q 63 867 81 889 l 25 860 q 45 928 36 888 q 54 979 54 968 z "},"”":{"ha":221,"x_min":25,"x_max":204,"o":"m 54 979 l 121 986 q 63 867 81 889 l 25 860 q 45 928 36 888 q 54 979 54 968 m 136 979 l 203 986 q 143 867 163 889 l 107 860 q 126 928 117 888 q 136 979 136 968 z "},"€":{"ha":683,"x_min":44,"x_max":631,"o":"m 443 81 q 554 130 504 81 q 631 246 604 179 l 617 125 q 443 68 539 68 q 216 169 315 68 q 96 418 117 269 l 44 418 l 44 432 l 94 432 q 92 486 92 460 q 94 540 92 513 l 44 540 l 44 554 l 96 554 q 216 803 117 703 q 443 904 315 904 q 617 847 539 904 l 631 726 q 554 842 604 793 q 443 892 504 892 q 273 794 346 892 q 183 554 200 696 l 368 554 l 368 540 l 182 540 q 179 486 179 513 q 182 432 179 460 l 368 432 l 368 418 l 183 418 q 273 178 200 276 q 443 81 346 81 z "},"":{"ha":794,"x_min":-1,"x_max":1396,"o":"m 1392 -97 l 1396 -103 q 1331 -144 1371 -124 q 1231 -178 1290 -164 q 1108 -196 1172 -193 q 969 -176 1043 -199 q 828 -106 896 -153 q 693 34 760 -58 q 576 254 626 126 l 546 331 l 164 331 l 65 36 q 94 7 58 7 l 94 0 l 0 0 l 0 7 q 54 40 43 7 l 364 972 l 378 972 l 676 213 q 778 22 719 101 q 898 -98 838 -58 q 1024 -157 958 -137 q 1146 -174 1089 -176 q 1254 -158 1203 -171 q 1340 -129 1306 -146 q 1392 -97 1374 -112 m 169 344 l 542 344 l 340 860 l 169 344 z "},"":{"ha":783,"x_min":51,"x_max":1253,"o":"m 1246 -107 l 1251 -111 q 1178 -172 1228 -144 q 1049 -199 1128 -199 q 978 -191 1014 -199 q 914 -173 943 -183 q 852 -143 885 -162 q 797 -108 819 -124 q 746 -65 775 -93 q 701 -22 717 -37 q 660 26 686 -6 q 626 69 635 57 q 594 111 617 81 q 568 146 571 142 q 528 201 557 160 q 481 267 499 243 q 430 327 463 292 q 369 382 397 363 q 304 417 342 401 q 228 432 267 432 l 174 432 l 174 40 q 214 7 174 7 l 214 0 l 51 0 l 51 7 q 92 40 92 7 l 92 932 q 51 965 92 965 l 51 972 l 308 972 q 578 901 483 972 q 672 703 672 831 q 587 519 672 592 q 360 435 501 446 q 503 351 439 415 q 678 124 568 288 q 806 -38 744 26 q 918 -131 867 -103 q 1003 -167 969 -158 q 1074 -176 1038 -176 q 1246 -107 1188 -176 m 174 446 l 308 446 q 513 515 442 446 q 585 703 585 583 q 515 894 585 829 q 308 958 444 958 l 174 958 l 174 446 z "},"":{"ha":792,"x_min":51,"x_max":1271,"o":"m 1265 -107 l 1271 -111 q 1197 -172 1247 -144 q 1068 -199 1146 -199 q 998 -191 1033 -199 q 933 -173 963 -183 q 872 -143 904 -162 q 817 -108 839 -124 q 765 -65 794 -93 q 721 -22 736 -37 q 680 26 706 -6 q 645 69 654 57 q 613 111 636 81 q 588 146 590 142 q 547 201 579 157 q 499 266 515 244 q 449 324 483 288 q 388 380 414 361 q 323 415 361 399 q 247 432 285 431 l 174 335 l 174 40 q 214 7 174 7 l 214 0 l 51 0 l 51 7 q 92 40 92 7 l 92 932 q 51 965 92 965 l 51 972 l 214 972 l 214 965 q 174 932 174 965 l 174 353 l 615 932 q 606 965 640 965 l 606 972 l 700 972 l 700 965 q 628 932 654 965 l 257 446 q 346 441 310 446 q 418 422 382 436 q 482 387 454 407 q 545 328 510 367 q 615 243 581 289 q 697 124 649 197 q 825 -38 764 26 q 938 -131 886 -103 q 1023 -167 989 -158 q 1093 -176 1057 -176 q 1265 -107 1207 -176 z "},"":{"ha":794,"x_min":-1,"x_max":1396,"o":"m 1392 -97 l 1396 -103 q 1331 -144 1371 -124 q 1231 -178 1290 -164 q 1108 -196 1172 -193 q 969 -176 1043 -199 q 828 -106 896 -153 q 693 34 760 -58 q 576 254 626 126 l 546 331 l 164 331 l 65 36 q 94 7 58 7 l 94 0 l 0 0 l 0 7 q 54 40 43 7 l 364 972 l 378 972 l 676 213 q 778 22 719 101 q 898 -98 838 -58 q 1024 -157 958 -137 q 1146 -174 1089 -176 q 1254 -158 1203 -171 q 1340 -129 1306 -146 q 1392 -97 1374 -112 m 169 344 l 542 344 l 340 860 l 169 344 z "},"":{"ha":783,"x_min":51,"x_max":1253,"o":"m 1246 -107 l 1251 -111 q 1178 -172 1228 -144 q 1049 -199 1128 -199 q 978 -191 1014 -199 q 914 -173 943 -183 q 852 -143 885 -162 q 797 -108 819 -124 q 746 -65 775 -93 q 701 -22 717 -37 q 660 26 686 -6 q 626 69 635 57 q 594 111 617 81 q 568 146 571 142 q 528 201 557 160 q 481 267 499 243 q 430 327 463 292 q 369 382 397 363 q 304 417 342 401 q 228 432 267 432 l 174 432 l 174 40 q 214 7 174 7 l 214 0 l 51 0 l 51 7 q 92 40 92 7 l 92 932 q 51 965 92 965 l 51 972 l 308 972 q 578 901 483 972 q 672 703 672 831 q 587 519 672 592 q 360 435 501 446 q 503 351 439 415 q 678 124 568 288 q 806 -38 744 26 q 918 -131 867 -103 q 1003 -167 969 -158 q 1074 -176 1038 -176 q 1246 -107 1188 -176 m 174 446 l 308 446 q 513 515 442 446 q 585 703 585 583 q 515 894 585 829 q 308 958 444 958 l 174 958 l 174 446 z "},"":{"ha":792,"x_min":51,"x_max":1271,"o":"m 1265 -107 l 1271 -111 q 1197 -172 1247 -144 q 1068 -199 1146 -199 q 998 -191 1033 -199 q 933 -173 963 -183 q 872 -143 904 -162 q 817 -108 839 -124 q 765 -65 794 -93 q 721 -22 736 -37 q 680 26 706 -6 q 645 69 654 57 q 613 111 636 81 q 588 146 590 142 q 547 201 579 157 q 499 266 515 244 q 449 324 483 288 q 388 380 414 361 q 323 415 361 399 q 247 432 285 431 l 174 335 l 174 40 q 214 7 174 7 l 214 0 l 51 0 l 51 7 q 92 40 92 7 l 92 932 q 51 965 92 965 l 51 972 l 214 972 l 214 965 q 174 932 174 965 l 174 353 l 615 932 q 606 965 640 965 l 606 972 l 700 972 l 700 965 q 628 932 654 965 l 257 446 q 346 441 310 446 q 418 422 382 436 q 482 387 454 407 q 545 328 510 367 q 615 243 581 289 q 697 124 649 197 q 825 -38 764 26 q 938 -131 886 -103 q 1023 -167 989 -158 q 1093 -176 1057 -176 q 1265 -107 1207 -176 z "},"":{"ha":1053,"x_min":0,"x_max":1054,"o":"m 958 972 l 1053 972 l 1053 965 q 999 932 1011 965 l 689 0 l 675 0 l 546 331 l 164 331 l 65 36 q 94 7 58 7 l 94 0 l 0 0 l 0 7 q 54 40 43 7 l 364 972 l 378 972 l 713 113 l 988 936 q 958 965 996 965 l 958 972 m 169 344 l 542 344 l 340 860 l 169 344 z "},"":{"ha":1597,"x_min":0,"x_max":1594,"o":"m 1499 972 l 1593 972 l 1593 965 q 1542 932 1551 965 l 1296 0 l 1283 0 l 953 843 l 689 0 l 675 0 l 546 331 l 164 331 l 65 36 q 94 7 58 7 l 94 0 l 0 0 l 0 7 q 54 40 43 7 l 364 972 l 378 972 l 711 115 l 979 972 l 993 972 l 1315 125 l 1529 936 q 1525 958 1533 950 q 1499 965 1517 965 l 1499 972 m 169 344 l 542 344 l 340 860 l 169 344 z "},"":{"ha":1350,"x_min":-1,"x_max":1314,"o":"m 772 786 q 803 701 774 739 q 881 635 833 663 q 986 583 929 608 q 1101 529 1043 558 q 1206 465 1158 500 q 1283 377 1254 431 q 1313 257 1313 324 q 1281 138 1313 192 q 1197 53 1249 85 q 1086 3 1146 21 q 967 -14 1026 -14 q 856 -3 907 -14 q 770 20 806 7 q 704 59 735 33 q 656 103 674 85 q 621 155 639 121 q 596 205 603 189 q 576 254 589 221 l 546 331 l 164 331 l 65 36 q 94 7 58 7 l 94 0 l 0 0 l 0 7 q 54 40 43 7 l 364 972 l 378 972 l 676 207 q 713 131 692 164 q 768 67 735 99 q 852 17 801 35 q 967 0 903 0 q 1097 28 1039 0 q 1188 110 1154 56 q 1222 233 1222 164 q 1201 328 1222 286 q 1143 399 1179 371 q 1061 454 1107 428 q 967 500 1015 481 q 873 544 919 519 q 790 597 826 569 q 728 663 753 624 q 703 753 704 703 q 774 928 696 869 q 981 986 851 986 q 1229 899 1124 986 l 1243 776 q 1147 919 1211 865 q 981 972 1082 972 q 827 920 883 972 q 772 786 771 868 m 169 344 l 542 344 l 340 860 l 169 344 z "},"":{"ha":1524,"x_min":39,"x_max":1526,"o":"m 1469 40 q 1525 7 1482 7 l 1525 0 l 1364 0 l 1364 7 q 1389 15 1382 7 q 1390 35 1396 22 l 1275 331 l 893 331 q 874 271 876 279 q 872 267 874 269 q 519 -14 779 -14 q 276 53 386 -14 q 103 235 165 121 q 40 486 40 350 q 103 737 40 622 q 276 919 165 851 q 519 986 386 986 q 658 966 597 986 q 783 899 718 946 l 796 776 q 687 920 761 868 q 519 972 613 972 q 322 908 410 972 q 184 732 233 843 q 135 486 135 621 q 184 240 135 351 q 322 65 233 129 q 519 0 410 0 q 644 22 588 0 q 735 72 700 43 q 798 144 769 100 q 839 217 826 188 q 865 286 851 247 l 1093 972 l 1107 972 l 1469 40 m 897 344 l 1271 344 l 1069 860 l 897 344 z "},"":{"ha":1256,"x_min":40,"x_max":1203,"o":"m 1201 965 q 1161 932 1161 965 l 1161 40 q 1201 7 1161 7 l 1201 0 l 1039 0 l 1039 7 q 1081 40 1081 7 l 1081 479 l 594 479 l 594 203 q 635 169 594 169 l 635 163 l 472 163 l 472 169 q 513 203 513 169 l 513 769 q 472 803 513 803 l 472 810 l 635 810 l 635 803 q 594 769 594 803 l 594 493 l 1081 493 l 1081 932 q 1039 965 1081 965 l 1039 972 l 1201 972 l 1201 965 m 519 0 q 700 42 615 0 q 838 163 785 85 l 850 163 q 519 -14 738 -14 q 276 53 386 -14 q 103 235 165 121 q 40 486 40 350 q 103 737 40 622 q 276 919 165 851 q 519 986 386 986 q 658 966 597 986 q 783 899 718 946 l 796 776 q 687 920 761 868 q 519 972 613 972 q 322 908 410 972 q 184 732 233 843 q 135 486 135 621 q 184 240 135 351 q 322 65 233 129 q 519 0 410 0 z "},"":{"ha":890,"x_min":40,"x_max":851,"o":"m 365 677 q 402 716 365 677 q 549 756 439 756 q 734 677 658 756 q 810 486 810 599 q 734 295 810 374 q 549 217 658 217 q 365 295 439 217 q 290 486 290 374 q 365 677 290 599 m 416 300 q 439 265 416 300 q 549 229 461 229 q 683 300 636 229 q 729 486 729 371 q 683 672 729 601 q 549 743 636 743 q 416 672 461 743 q 371 486 371 601 q 416 300 371 371 m 838 163 l 850 163 q 519 -14 738 -14 q 276 53 386 -14 q 103 235 165 121 q 40 486 40 350 q 103 737 40 622 q 276 919 165 851 q 519 986 386 986 q 658 966 597 986 q 783 899 718 946 l 796 776 q 687 920 761 868 q 519 972 613 972 q 322 908 410 972 q 184 732 233 843 q 135 486 135 621 q 184 240 135 351 q 322 65 233 129 q 519 0 410 0 q 700 42 615 0 q 838 163 785 85 z "},"":{"ha":1735,"x_min":53,"x_max":1694,"o":"m 1214 986 q 1403 947 1314 986 q 1556 840 1493 907 q 1656 680 1619 772 q 1693 486 1693 588 q 1631 235 1693 350 q 1458 53 1568 121 q 1214 -14 1347 -14 q 956 63 1071 -14 q 782 267 840 139 q 610 72 725 144 q 343 0 496 0 l 53 0 l 53 7 q 93 40 93 7 l 93 932 q 53 965 93 965 l 53 972 l 343 972 q 610 900 496 972 q 782 706 725 828 q 956 910 840 833 q 1214 986 1071 986 m 343 14 q 560 78 471 14 q 692 246 650 142 q 735 486 735 350 q 691 726 735 621 q 558 895 647 832 q 343 958 468 958 l 175 958 l 175 14 l 343 14 m 1016 65 q 1060 32 1016 65 q 1214 0 1104 0 q 1413 65 1324 0 q 1550 240 1501 129 q 1599 486 1599 351 q 1550 732 1599 621 q 1413 908 1501 843 q 1214 972 1324 972 q 1060 934 1132 972 q 938 831 988 896 q 858 677 888 767 q 829 486 829 588 q 878 240 829 351 q 1016 65 928 129 z "},"":{"ha":1436,"x_min":51,"x_max":1424,"o":"m 1363 40 q 1424 7 1381 7 l 1424 0 l 1261 0 l 1261 7 q 1281 40 1299 7 l 1047 482 q 983 479 1015 479 l 849 479 l 849 40 q 889 7 849 7 l 889 0 l 726 0 l 726 7 q 767 40 767 7 l 767 479 l 375 479 q 342 439 342 479 l 335 439 l 335 533 l 342 533 q 375 493 342 493 l 767 493 l 767 932 q 726 965 767 965 l 726 972 l 983 972 q 1347 729 1347 972 q 1315 612 1347 663 q 1224 530 1282 561 q 1083 486 1165 499 l 1131 479 l 1363 40 m 983 493 q 1185 554 1111 493 q 1260 729 1260 615 q 983 958 1260 958 l 849 958 l 849 493 l 983 493 m 538 14 q 584 22 564 14 q 618 49 604 31 q 638 78 632 68 q 653 108 643 88 l 660 108 l 618 0 l 51 0 l 51 7 q 92 40 92 7 l 92 932 q 51 965 92 965 l 51 972 l 578 972 l 618 864 l 611 864 q 597 894 603 885 q 578 923 592 904 q 544 950 564 942 q 497 958 524 958 l 174 958 l 174 14 l 538 14 z "},"":{"ha":1242,"x_min":51,"x_max":1226,"o":"m 1219 108 l 1226 108 l 1186 0 l 618 0 l 618 7 q 658 40 658 7 l 658 479 l 172 479 l 172 40 q 214 7 172 7 l 214 0 l 51 0 l 51 7 q 92 40 92 7 l 92 932 q 51 965 92 965 l 51 972 l 214 972 l 214 965 q 172 932 172 965 l 172 493 l 658 493 l 658 932 q 618 965 658 965 l 618 972 l 1144 972 l 1186 864 l 1179 864 q 1164 894 1169 885 q 1144 923 1158 904 q 1110 950 1131 942 q 1064 958 1090 958 l 740 958 l 740 493 l 1024 493 q 1057 533 1057 493 l 1064 533 l 1064 439 l 1057 439 q 1024 479 1057 479 l 740 479 l 740 14 l 1104 14 q 1151 22 1131 14 q 1185 49 1171 31 q 1204 78 1199 68 q 1219 108 1210 88 z "},"":{"ha":1372,"x_min":50,"x_max":1331,"o":"m 1128 24 q 1324 81 1226 31 l 1326 75 q 1190 19 1265 38 q 1060 0 1115 0 q 599 197 824 0 q 539 251 579 214 q 477 306 499 288 q 419 353 456 325 q 358 395 383 381 q 303 421 333 410 q 247 432 274 432 l 172 335 l 172 40 q 214 7 172 7 l 214 0 l 51 0 l 51 7 q 92 40 92 7 l 92 932 q 51 965 92 965 l 51 972 l 214 972 l 214 965 q 172 932 172 965 l 172 353 l 615 932 q 606 965 640 965 l 606 972 l 700 972 l 700 965 q 628 932 654 965 l 261 451 q 327 445 296 450 q 392 426 358 440 q 445 402 425 411 q 503 366 465 393 q 553 328 540 339 q 612 281 567 318 q 669 233 657 243 q 929 62 824 107 q 1128 24 1035 17 m 1331 324 l 1289 217 l 817 217 l 817 222 q 857 257 857 222 l 857 932 q 817 965 857 965 l 817 972 l 1263 972 l 1303 864 l 1296 864 q 1282 894 1288 885 q 1262 923 1276 904 q 1227 950 1247 942 q 1182 958 1207 958 l 939 958 l 939 601 l 1222 601 q 1256 642 1256 601 l 1263 642 l 1263 547 l 1256 547 q 1222 588 1256 588 l 939 588 l 939 229 l 1208 229 q 1255 238 1235 229 q 1289 265 1275 247 q 1308 294 1303 283 q 1324 324 1314 304 l 1331 324 z "},"":{"ha":1489,"x_min":51,"x_max":1451,"o":"m 1129 24 q 1325 81 1228 31 l 1328 75 q 1192 19 1267 38 q 1061 0 1117 0 q 600 197 825 0 q 549 243 581 214 q 496 290 517 272 q 446 333 475 308 q 394 374 417 358 q 345 403 371 389 q 295 425 319 418 q 249 432 271 432 l 174 335 l 174 40 q 215 7 174 7 l 215 0 l 53 0 l 53 7 q 93 40 93 7 l 93 932 q 53 965 93 965 l 53 972 l 215 972 l 215 965 q 174 932 174 965 l 174 353 l 617 932 q 607 965 642 965 l 607 972 l 701 972 l 701 965 q 629 932 656 965 l 263 451 q 328 445 297 450 q 393 426 360 440 q 447 402 426 411 q 504 366 467 393 q 555 328 542 339 q 613 281 568 318 q 671 233 658 243 q 931 62 825 107 q 1129 24 1036 17 m 807 872 q 861 929 807 872 q 1074 986 915 986 q 1342 872 1233 986 q 1450 594 1450 757 q 1342 317 1450 431 q 1074 203 1233 203 q 807 317 915 203 q 699 594 699 431 q 807 872 699 757 m 1075 217 q 1283 324 1204 217 q 1363 594 1363 431 q 1328 787 1363 701 q 1226 922 1293 872 q 1075 972 1160 972 q 866 865 946 972 q 786 594 786 757 q 822 402 786 488 q 923 267 857 317 q 1075 217 989 217 z "},"":{"ha":1493,"x_min":51,"x_max":1458,"o":"m 1363 972 l 1457 972 l 1457 965 q 1417 932 1417 965 l 1417 486 q 1342 279 1417 356 q 1140 203 1267 203 q 909 274 996 203 q 822 486 822 344 l 822 932 q 782 965 822 965 l 782 972 l 944 972 l 944 965 q 903 932 903 965 l 903 486 q 929 344 903 404 q 1010 250 956 283 q 1140 217 1064 217 q 1332 290 1261 217 q 1403 486 1403 364 l 1403 932 q 1363 965 1403 965 l 1363 972 m 1128 24 q 1324 81 1226 31 l 1326 75 q 1190 19 1265 38 q 1060 0 1115 0 q 599 197 824 0 q 539 251 579 214 q 477 306 499 288 q 419 353 456 325 q 358 395 383 381 q 303 421 333 410 q 247 432 274 432 l 174 335 l 174 40 q 214 7 174 7 l 214 0 l 51 0 l 51 7 q 92 40 92 7 l 92 932 q 51 965 92 965 l 51 972 l 214 972 l 214 965 q 174 932 174 965 l 174 353 l 615 932 q 606 965 640 965 l 606 972 l 700 972 l 700 965 q 628 932 654 965 l 261 451 q 327 445 296 450 q 392 426 358 440 q 445 402 425 411 q 503 366 465 393 q 553 328 540 339 q 612 281 567 318 q 669 233 657 243 q 929 62 824 107 q 1128 24 1035 17 z "},"":{"ha":1117,"x_min":51,"x_max":1119,"o":"m 571 14 q 617 22 597 14 q 651 49 638 31 q 671 78 665 68 q 686 108 676 88 l 693 108 l 653 0 l 51 0 l 51 7 q 92 40 92 7 l 92 932 q 51 965 92 965 l 51 972 l 214 972 l 214 965 q 172 932 172 965 l 172 14 l 571 14 m 1063 40 q 1118 7 1075 7 l 1118 0 l 956 0 l 956 7 q 983 35 992 7 l 868 331 l 486 331 l 442 197 q 469 169 433 169 l 469 163 l 375 163 l 375 169 q 429 203 418 169 l 686 972 l 700 972 l 1063 40 m 490 344 l 863 344 l 663 860 l 490 344 z "},"":{"ha":875,"x_min":50,"x_max":835,"o":"m 835 269 l 794 163 l 321 163 l 321 169 q 363 203 363 169 l 363 932 q 321 965 363 965 l 321 972 l 767 972 l 807 864 l 801 864 q 786 894 792 885 q 767 923 781 904 q 733 950 753 942 q 686 958 713 958 l 443 958 l 443 601 l 726 601 q 760 642 760 601 l 767 642 l 767 547 l 760 547 q 726 588 760 588 l 443 588 l 443 175 l 713 175 q 759 184 739 175 q 793 211 779 193 q 813 240 807 229 q 828 269 818 250 l 835 269 m 700 14 q 828 108 785 14 l 835 108 l 794 0 l 51 0 l 51 7 q 92 40 92 7 l 92 932 q 51 965 92 965 l 51 972 l 214 972 l 214 965 q 172 932 172 965 l 172 14 l 700 14 z "},"":{"ha":624,"x_min":51,"x_max":619,"o":"m 476 169 l 476 163 l 315 163 l 315 169 q 356 203 356 169 l 356 932 q 315 965 356 965 l 315 972 l 476 972 l 476 965 q 436 932 436 965 l 436 203 q 476 169 436 169 m 611 108 l 618 108 l 578 0 l 51 0 l 51 7 q 92 40 92 7 l 92 932 q 51 965 92 965 l 51 972 l 214 972 l 214 965 q 172 932 172 965 l 172 14 l 497 14 q 536 21 518 14 q 565 36 554 28 q 586 61 575 44 q 601 85 597 78 q 611 108 604 92 z "},"":{"ha":1100,"x_min":51,"x_max":1106,"o":"m 524 14 q 570 22 550 14 q 604 49 590 31 q 624 78 618 68 q 639 108 629 88 l 646 108 l 606 0 l 51 0 l 51 7 q 92 40 92 7 l 92 932 q 51 965 92 965 l 51 972 l 214 972 l 214 965 q 172 932 172 965 l 172 14 l 524 14 m 1032 40 q 1104 7 1058 7 l 1104 0 l 922 0 l 922 7 q 931 40 957 7 l 567 496 l 443 335 l 443 203 q 483 169 443 169 l 483 163 l 321 163 l 321 169 q 363 203 363 169 l 363 932 q 321 965 363 965 l 321 972 l 483 972 l 483 965 q 443 932 443 965 l 443 353 l 885 932 q 875 965 911 965 l 875 972 l 969 972 l 969 965 q 899 932 924 965 l 614 558 l 1032 40 z "},"":{"ha":794,"x_min":51,"x_max":781,"o":"m 658 14 q 705 22 685 14 q 739 49 725 31 q 758 78 753 68 q 774 108 764 88 l 781 108 l 740 0 l 51 0 l 51 7 q 92 40 92 7 l 92 932 q 51 965 92 965 l 51 972 l 214 972 l 214 965 q 172 932 172 965 l 172 14 l 658 14 m 781 269 l 740 163 l 321 163 l 321 169 q 363 203 363 169 l 363 932 q 321 965 363 965 l 321 972 l 483 972 l 483 965 q 443 932 443 965 l 443 175 l 658 175 q 705 184 685 175 q 739 211 725 193 q 758 240 753 229 q 774 269 764 250 l 781 269 z "},"":{"ha":1313,"x_min":51,"x_max":1294,"o":"m 443 14 q 490 22 469 14 q 524 49 510 31 q 543 78 538 68 q 558 108 549 88 l 564 108 l 524 0 l 51 0 l 51 7 q 92 40 92 7 l 92 932 q 51 965 92 965 l 51 972 l 214 972 l 214 965 q 172 932 172 965 l 172 14 l 443 14 m 1247 40 q 1293 7 1253 7 l 1293 0 l 1132 0 l 1132 7 q 1160 16 1151 7 q 1167 40 1169 25 l 1046 911 l 767 0 l 754 0 l 450 911 l 371 203 q 378 178 369 188 q 407 169 388 169 l 407 163 l 313 163 l 313 169 q 357 203 354 169 l 439 932 q 431 956 440 947 q 403 965 422 965 l 403 972 l 511 972 l 796 138 l 1050 972 l 1158 972 l 1158 965 q 1130 956 1139 965 q 1124 932 1121 947 l 1247 40 z "},"":{"ha":1103,"x_min":51,"x_max":1051,"o":"m 564 14 q 597 18 582 14 q 624 31 613 22 q 644 47 636 40 q 660 69 651 54 q 670 89 668 83 q 679 108 672 94 l 686 108 l 646 0 l 51 0 l 51 7 q 92 40 92 7 l 92 932 q 51 965 92 965 l 51 972 l 214 972 l 214 965 q 172 932 172 965 l 172 14 l 564 14 m 956 972 l 1050 972 l 1050 965 q 1010 932 1010 965 l 1010 0 l 997 0 l 375 932 l 375 203 q 415 169 375 169 l 415 163 l 321 163 l 321 169 q 363 203 363 169 l 363 932 q 321 965 363 965 l 321 972 l 443 972 l 997 149 l 997 932 q 956 965 997 965 l 956 972 z "},"":{"ha":1096,"x_min":53,"x_max":1060,"o":"m 383 866 q 440 926 383 866 q 664 986 497 986 q 945 866 831 986 q 1060 574 1060 746 q 945 283 1060 403 q 664 163 831 163 q 383 283 497 163 q 269 574 269 403 q 383 866 269 746 m 438 290 q 482 232 438 290 q 664 175 526 175 q 890 290 801 175 q 978 574 978 404 q 890 858 978 744 q 664 972 801 972 q 538 942 596 972 q 438 858 479 911 q 374 731 397 804 q 350 574 350 657 q 438 290 350 404 m 756 14 q 883 108 840 14 l 890 108 l 850 0 l 53 0 l 53 7 q 93 40 93 7 l 93 932 q 53 965 93 965 l 53 972 l 215 972 l 215 965 q 175 932 175 965 l 175 14 l 756 14 z "},"":{"ha":1038,"x_min":51,"x_max":997,"o":"m 754 14 q 882 108 839 14 l 889 108 l 849 0 l 51 0 l 51 7 q 92 40 92 7 l 92 932 q 51 965 92 965 l 51 972 l 214 972 l 214 965 q 172 932 172 965 l 172 14 l 754 14 m 903 972 l 997 972 l 997 965 q 956 932 956 965 l 956 432 q 881 225 956 301 q 679 149 807 149 q 449 220 536 149 q 363 432 363 292 l 363 932 q 321 965 363 965 l 321 972 l 483 972 l 483 965 q 443 932 443 965 l 443 432 q 504 235 443 308 q 679 163 565 163 q 872 236 800 163 q 943 432 943 310 l 943 932 q 903 965 943 965 l 903 972 z "},"":{"ha":1278,"x_min":51,"x_max":1226,"o":"m 1132 972 l 1226 972 l 1226 965 q 1186 932 1186 965 l 1186 0 l 1172 0 l 551 932 q 497 965 529 965 l 497 972 l 618 972 l 1172 149 l 1172 932 q 1132 965 1172 965 l 1132 972 m 51 972 l 174 972 l 740 128 l 740 0 l 726 0 l 106 932 l 106 40 q 146 7 106 7 l 146 0 l 51 0 l 51 7 q 92 40 92 7 l 92 932 q 51 965 92 965 l 51 972 z "},"":{"ha":1307,"x_min":51,"x_max":1308,"o":"m 1267 972 l 1307 864 l 1300 864 q 1286 894 1292 885 q 1266 923 1281 904 q 1231 950 1251 942 q 1186 958 1211 958 l 997 958 l 997 40 q 1038 7 997 7 l 1038 0 l 875 0 l 875 7 q 915 40 915 7 l 915 958 l 726 958 q 680 950 700 958 q 646 923 660 942 q 626 894 632 904 q 611 864 621 885 l 606 864 l 646 972 l 1267 972 m 51 972 l 174 972 l 740 128 l 740 0 l 726 0 l 106 932 l 106 40 q 146 7 106 7 l 146 0 l 51 0 l 51 7 q 92 40 92 7 l 92 932 q 51 965 92 965 l 51 972 z "},"":{"ha":1733,"x_min":39,"x_max":1715,"o":"m 1701 163 l 1715 163 q 1383 -14 1601 -14 q 1125 63 1240 -14 q 951 267 1010 140 q 778 63 893 140 q 519 -14 663 -14 q 276 53 386 -14 q 103 235 165 121 q 40 486 40 350 q 103 737 40 622 q 276 919 165 851 q 519 986 386 986 q 778 909 663 986 q 951 706 893 832 q 1125 909 1010 832 q 1383 986 1240 986 q 1522 966 1461 986 q 1647 899 1583 946 l 1661 776 q 1551 920 1625 868 q 1383 972 1478 972 q 1230 934 1301 972 q 1108 831 1158 896 q 1028 677 1057 767 q 999 486 999 588 q 1048 240 999 351 q 1185 65 1097 129 q 1383 0 1274 0 q 1565 42 1481 0 q 1701 163 1649 85 m 519 0 q 674 38 601 0 q 797 141 746 76 q 876 295 847 206 q 904 486 904 385 q 856 732 904 621 q 718 908 807 843 q 519 972 629 972 q 322 908 410 972 q 184 732 233 843 q 135 486 135 621 q 184 240 135 351 q 322 65 233 129 q 519 0 410 0 z "},"":{"ha":1776,"x_min":39,"x_max":1749,"o":"m 1425 358 l 1749 358 l 1749 351 q 1708 317 1708 351 l 1708 0 l 1701 0 l 1626 65 q 1383 -14 1526 -14 q 1125 63 1240 -14 q 951 267 1010 140 q 778 63 893 140 q 519 -14 663 -14 q 276 53 386 -14 q 103 235 165 121 q 40 486 40 350 q 103 737 40 622 q 276 919 165 851 q 519 986 386 986 q 701 950 615 986 q 850 851 786 914 q 951 706 914 789 q 1125 909 1010 832 q 1383 986 1240 986 q 1523 966 1464 986 q 1647 899 1582 946 l 1661 776 q 1556 917 1628 861 q 1383 972 1485 972 q 1185 908 1274 972 q 1048 732 1097 843 q 999 486 999 621 q 1048 240 999 351 q 1185 65 1097 129 q 1383 0 1274 0 q 1556 41 1485 0 q 1626 121 1626 82 l 1626 344 l 1425 344 l 1425 358 m 519 0 q 674 38 601 0 q 797 141 746 76 q 876 295 847 206 q 904 486 904 385 q 856 732 904 621 q 718 908 807 843 q 519 972 629 972 q 322 908 410 972 q 184 732 233 843 q 135 486 135 621 q 184 240 135 351 q 322 65 233 129 q 519 0 410 0 z "},"":{"ha":1653,"x_min":40,"x_max":1600,"o":"m 1600 965 q 1560 932 1560 965 l 1560 40 q 1600 7 1560 7 l 1600 0 l 1438 0 l 1438 7 q 1478 40 1478 7 l 1478 479 l 999 479 q 935 231 997 344 q 762 52 872 118 q 519 -14 651 -14 q 276 53 386 -14 q 103 235 165 121 q 40 486 40 350 q 103 737 40 622 q 276 919 165 851 q 519 986 386 986 q 762 920 651 986 q 935 741 872 854 q 999 493 997 628 l 1478 493 l 1478 932 q 1438 965 1478 965 l 1438 972 l 1600 972 l 1600 965 m 519 0 q 674 38 601 0 q 797 141 746 76 q 876 295 847 206 q 904 486 904 385 q 856 732 904 621 q 718 908 807 843 q 519 972 629 972 q 322 908 410 972 q 184 732 233 843 q 135 486 135 621 q 184 240 135 351 q 322 65 233 129 q 519 0 410 0 z "},"":{"ha":1514,"x_min":40,"x_max":1463,"o":"m 1368 972 l 1463 972 l 1463 965 q 1422 932 1422 965 l 1422 0 l 1408 0 l 993 563 q 999 486 999 528 q 936 235 999 350 q 763 53 874 121 q 519 -14 653 -14 q 276 53 386 -14 q 103 235 165 121 q 40 486 40 350 q 103 737 40 622 q 276 919 165 851 q 519 986 386 986 q 793 899 671 986 q 891 817 842 865 q 965 738 940 768 q 1025 658 989 707 l 1408 146 l 1408 932 q 1368 965 1408 965 l 1368 972 m 322 65 q 366 32 322 65 q 519 0 410 0 q 718 65 629 0 q 856 240 807 129 q 904 486 904 351 q 814 807 904 672 q 519 972 700 972 q 322 908 410 972 q 184 732 233 843 q 135 486 135 621 q 184 240 135 351 q 322 65 233 129 z "},"":{"ha":1904,"x_min":40,"x_max":1864,"o":"m 1383 986 q 1628 919 1518 986 q 1801 737 1739 851 q 1864 486 1864 622 q 1801 235 1864 350 q 1628 53 1739 121 q 1383 -14 1518 -14 q 1125 63 1240 -14 q 951 267 1010 140 q 778 63 893 140 q 519 -14 663 -14 q 276 53 386 -14 q 103 235 165 121 q 40 486 40 350 q 103 737 40 622 q 276 919 165 851 q 519 986 386 986 q 778 909 663 986 q 951 706 893 832 q 1125 909 1010 832 q 1383 986 1240 986 m 519 0 q 674 38 601 0 q 797 141 746 76 q 876 295 847 206 q 904 486 904 385 q 856 732 904 621 q 718 908 807 843 q 519 972 629 972 q 322 908 410 972 q 184 732 233 843 q 135 486 135 621 q 184 240 135 351 q 322 65 233 129 q 519 0 410 0 m 1185 65 q 1230 32 1185 65 q 1383 0 1274 0 q 1582 65 1493 0 q 1719 240 1671 129 q 1768 486 1768 351 q 1719 732 1768 621 q 1582 908 1671 843 q 1383 972 1493 972 q 1230 934 1301 972 q 1108 831 1158 896 q 1028 677 1057 767 q 999 486 999 588 q 1048 240 999 351 q 1185 65 1097 129 z "},"":{"ha":1904,"x_min":40,"x_max":1949,"o":"m 1943 -79 q 1938 -108 1947 -87 q 1914 -140 1929 -128 q 1775 -182 1864 -182 q 1385 -14 1622 -182 q 1383 -14 1383 -14 q 1125 63 1240 -14 q 951 267 1010 140 q 778 63 893 140 q 519 -14 663 -14 q 276 53 386 -14 q 103 235 165 121 q 40 486 40 350 q 103 737 40 622 q 276 919 165 851 q 519 986 386 986 q 778 909 663 986 q 951 706 893 832 q 1125 909 1010 832 q 1383 986 1240 986 q 1628 919 1518 986 q 1801 737 1739 851 q 1863 486 1863 622 q 1733 141 1863 285 q 1410 -12 1604 -3 q 1642 -122 1525 -86 q 1939 -74 1835 -182 q 1943 -79 1942 -76 m 519 0 q 674 38 601 0 q 797 141 746 76 q 876 295 847 206 q 904 486 904 385 q 856 732 904 621 q 718 908 807 843 q 519 972 629 972 q 322 908 410 972 q 184 732 233 843 q 135 486 135 621 q 184 240 135 351 q 322 65 233 129 q 519 0 410 0 m 1185 65 q 1230 32 1185 65 q 1383 0 1274 0 q 1582 65 1493 0 q 1719 240 1671 129 q 1768 486 1768 351 q 1719 732 1768 621 q 1582 908 1671 843 q 1383 972 1493 972 q 1230 934 1301 972 q 1108 831 1158 896 q 1028 677 1057 767 q 999 486 999 588 q 1048 240 999 351 q 1185 65 1097 129 z "},"":{"ha":1344,"x_min":50,"x_max":1331,"o":"m 1274 257 q 1331 222 1288 222 l 1331 217 l 1168 217 l 1168 222 q 1187 226 1179 222 q 1196 237 1194 231 q 1194 251 1197 243 l 1088 526 l 846 526 l 772 306 q 801 276 764 276 l 801 269 l 707 269 l 707 276 q 760 311 749 276 l 982 972 l 996 972 l 1274 257 m 851 540 l 1082 540 l 958 860 l 851 540 m 1128 24 q 1324 81 1226 31 l 1326 75 q 1190 19 1265 38 q 1060 0 1115 0 q 599 197 824 0 q 547 243 579 214 q 494 291 514 272 q 444 334 474 310 q 392 374 414 358 q 344 403 369 389 q 294 425 318 418 q 247 432 269 432 l 172 432 l 172 40 q 214 7 172 7 l 214 0 l 51 0 l 51 7 q 92 40 92 7 l 92 932 q 51 965 92 965 l 51 972 l 308 972 q 578 901 483 972 q 672 703 672 831 q 590 522 672 593 q 371 435 508 450 q 401 424 386 431 q 432 409 415 418 q 461 393 449 400 q 493 372 474 386 q 523 351 513 358 q 558 324 533 343 q 591 298 582 306 q 629 267 600 290 q 669 233 658 243 q 929 62 824 107 q 1128 24 1035 17 m 172 446 l 308 446 q 513 515 442 446 q 585 703 585 583 q 515 894 585 829 q 308 958 444 958 l 172 958 l 172 446 z "},"":{"ha":1372,"x_min":50,"x_max":1331,"o":"m 1331 324 l 1289 217 l 817 217 l 817 222 q 857 257 857 222 l 857 932 q 817 965 857 965 l 817 972 l 1263 972 l 1303 864 l 1296 864 q 1282 894 1288 885 q 1262 923 1276 904 q 1227 950 1247 942 q 1182 958 1207 958 l 939 958 l 939 601 l 1222 601 q 1256 642 1256 601 l 1263 642 l 1263 547 l 1256 547 q 1222 588 1256 588 l 939 588 l 939 229 l 1208 229 q 1255 238 1235 229 q 1289 265 1275 247 q 1308 294 1303 283 q 1324 324 1314 304 l 1331 324 m 1128 24 q 1324 81 1226 31 l 1326 75 q 1190 19 1265 38 q 1060 0 1115 0 q 599 197 824 0 q 538 251 579 214 q 476 306 497 288 q 419 353 454 325 q 358 396 383 382 q 303 421 333 410 q 247 432 274 432 l 172 432 l 172 40 q 214 7 172 7 l 214 0 l 51 0 l 51 7 q 92 40 92 7 l 92 932 q 51 965 92 965 l 51 972 l 308 972 q 578 901 483 972 q 672 703 672 831 q 590 522 672 593 q 371 435 508 450 q 401 424 386 431 q 432 409 415 418 q 461 393 449 400 q 493 372 474 386 q 523 351 513 358 q 558 324 533 343 q 591 298 582 306 q 629 267 600 290 q 669 233 658 243 q 860 99 775 147 q 1006 35 944 50 q 1128 24 1067 19 m 174 446 l 308 446 q 513 515 442 446 q 585 703 585 583 q 515 894 585 829 q 308 958 444 958 l 174 958 l 174 446 z "},"":{"ha":1576,"x_min":53,"x_max":1543,"o":"m 900 872 q 954 929 900 872 q 1167 986 1008 986 q 1435 872 1326 986 q 1543 594 1543 757 q 1494 397 1543 488 q 1358 255 1444 307 q 1167 203 1272 203 q 900 317 1008 203 q 792 594 792 431 q 900 872 792 757 m 958 324 q 998 270 958 324 q 1167 217 1038 217 q 1376 324 1296 217 q 1456 594 1456 431 q 1420 787 1456 701 q 1319 922 1385 872 q 1167 972 1253 972 q 958 865 1038 972 q 879 594 879 757 q 958 324 879 431 m 1129 24 q 1325 81 1228 31 l 1328 75 q 1192 19 1267 38 q 1061 0 1117 0 q 600 197 825 0 q 548 243 581 214 q 495 291 515 272 q 445 334 475 310 q 393 374 415 358 q 345 403 371 389 q 295 425 319 418 q 249 432 271 432 l 175 432 l 175 40 q 215 7 175 7 l 215 0 l 53 0 l 53 7 q 93 40 93 7 l 93 932 q 53 965 93 965 l 53 972 l 310 972 q 579 901 485 972 q 674 703 674 831 q 592 522 674 593 q 372 435 510 450 q 402 424 388 431 q 433 409 417 418 q 463 393 450 400 q 494 372 475 386 q 524 351 514 358 q 559 324 535 343 q 592 298 583 306 q 631 267 601 290 q 671 233 660 243 q 931 62 825 107 q 1129 24 1036 17 m 175 446 l 310 446 q 515 515 443 446 q 586 703 586 583 q 516 894 586 829 q 310 958 446 958 l 175 958 l 175 446 z "},"":{"ha":1504,"x_min":51,"x_max":1469,"o":"m 1375 972 l 1469 972 l 1469 965 q 1429 932 1429 965 l 1429 486 q 1354 279 1429 356 q 1151 203 1279 203 q 922 274 1008 203 q 835 486 835 344 l 835 932 q 794 965 835 965 l 794 972 l 956 972 l 956 965 q 915 932 915 965 l 915 486 q 942 344 915 404 q 1022 250 968 283 q 1151 217 1076 217 q 1344 290 1272 217 q 1415 486 1415 364 l 1415 932 q 1375 965 1415 965 l 1375 972 m 1128 24 q 1324 81 1226 31 l 1326 75 q 1190 19 1265 38 q 1060 0 1115 0 q 599 197 824 0 q 538 251 579 214 q 476 306 497 288 q 419 353 454 325 q 358 396 383 382 q 303 421 333 410 q 247 432 274 432 l 174 432 l 174 40 q 214 7 174 7 l 214 0 l 51 0 l 51 7 q 92 40 92 7 l 92 932 q 51 965 92 965 l 51 972 l 308 972 q 578 901 483 972 q 672 703 672 831 q 590 522 672 593 q 371 435 508 450 q 401 424 386 431 q 432 409 415 418 q 461 393 449 400 q 493 372 474 386 q 523 351 513 358 q 558 324 533 343 q 591 298 582 306 q 629 267 600 290 q 669 233 658 243 q 929 62 824 107 q 1128 24 1035 17 m 174 446 l 308 446 q 513 515 442 446 q 585 703 585 583 q 515 894 585 829 q 308 958 444 958 l 174 958 l 174 446 z "},"":{"ha":1393,"x_min":36,"x_max":1357,"o":"m 815 786 q 847 701 817 739 q 924 635 876 663 q 1030 583 972 608 q 1144 529 1088 558 q 1249 465 1201 500 q 1327 377 1297 431 q 1357 257 1357 324 q 1335 159 1357 204 q 1279 83 1314 114 q 1199 29 1244 51 q 1105 -3 1153 7 q 1011 -14 1057 -14 q 796 50 888 -14 q 669 206 704 114 q 597 83 653 135 q 471 9 540 32 q 329 -14 401 -14 q 56 69 164 -14 l 38 207 q 140 63 64 126 q 329 0 217 0 q 428 17 382 0 q 510 63 475 33 q 565 137 544 93 q 585 233 585 181 q 556 340 585 293 q 483 417 528 386 q 384 474 439 447 q 274 526 329 500 q 174 580 219 551 q 97 653 128 608 q 64 753 67 697 q 136 928 58 869 q 342 986 214 986 q 592 899 485 986 l 604 776 q 508 919 572 865 q 342 972 443 972 q 189 920 244 972 q 133 786 133 868 q 165 701 135 739 q 242 636 194 663 q 347 584 289 610 q 461 530 404 558 q 566 467 518 501 q 644 379 614 432 q 674 261 674 326 l 675 261 q 697 183 675 226 q 760 97 719 139 q 867 28 800 56 q 1011 0 933 0 q 1193 64 1119 0 q 1267 233 1267 128 q 1238 340 1267 293 q 1165 417 1210 386 q 1066 474 1121 447 q 956 526 1011 500 q 856 580 901 551 q 779 653 810 608 q 746 753 749 697 q 818 928 740 869 q 1024 986 896 986 q 1274 899 1167 986 l 1286 776 q 1190 919 1254 865 q 1024 972 1125 972 q 871 920 926 972 q 815 786 815 868 z "},"":{"ha":1229,"x_min":38,"x_max":1231,"o":"m 1189 972 l 1229 864 l 1222 864 q 1208 894 1214 885 q 1188 923 1203 904 q 1154 950 1174 942 q 1108 958 1135 958 l 919 958 l 919 40 q 960 7 919 7 l 960 0 l 797 0 l 797 7 q 838 40 838 7 l 838 958 l 342 958 q 188 913 243 958 q 133 786 133 867 q 165 701 135 739 q 242 635 194 663 q 348 583 290 608 q 463 529 406 558 q 568 465 521 500 q 645 377 615 431 q 675 257 675 324 q 642 138 675 192 q 558 53 610 85 q 448 3 507 21 q 329 -14 389 -14 q 56 69 164 -14 l 38 207 q 140 63 64 126 q 329 0 217 0 q 511 64 438 0 q 585 233 585 128 q 556 340 585 293 q 483 417 528 386 q 384 474 439 447 q 274 526 329 500 q 174 580 219 551 q 97 653 128 608 q 64 753 67 697 q 81 856 61 813 q 141 925 101 900 q 230 961 181 950 q 342 972 279 972 l 1189 972 z "},"":{"ha":1242,"x_min":36,"x_max":1247,"o":"m 1153 972 l 1247 972 l 1247 965 q 1185 932 1203 965 l 922 453 l 922 40 q 964 7 922 7 l 964 0 l 801 0 l 801 7 q 842 40 842 7 l 842 453 l 650 779 q 594 860 624 826 q 528 920 565 894 q 445 959 492 946 q 342 972 399 972 q 189 920 244 972 q 133 786 133 868 q 165 701 135 739 q 242 635 194 663 q 348 583 290 608 q 463 529 406 558 q 568 465 521 500 q 645 377 615 431 q 675 257 675 324 q 642 138 675 192 q 558 53 610 85 q 448 3 507 21 q 329 -14 389 -14 q 56 69 164 -14 l 38 207 q 140 63 64 126 q 329 0 217 0 q 511 64 438 0 q 585 233 585 128 q 556 340 585 293 q 483 417 528 386 q 384 474 439 447 q 274 526 329 500 q 174 580 219 551 q 97 653 128 608 q 64 753 67 697 q 136 928 58 869 q 342 986 214 986 q 454 974 400 986 q 564 938 508 963 q 669 867 619 913 q 754 757 718 821 l 918 468 l 1171 932 q 1153 965 1189 965 l 1153 972 z "},"":{"ha":1193,"x_min":-1,"x_max":1194,"o":"m 390 40 q 431 7 390 7 l 431 0 l 268 0 l 268 7 q 310 40 310 7 l 310 958 l 121 958 q 74 950 94 958 q 40 923 54 942 q 21 894 26 904 q 6 864 15 885 l -1 864 l 39 972 l 761 972 l 761 958 l 390 958 l 390 40 m 1153 972 l 1193 864 l 1188 864 q 1172 894 1178 885 q 1153 923 1167 904 q 1119 950 1139 942 q 1072 958 1099 958 l 883 958 l 883 40 q 924 7 883 7 l 924 0 l 761 0 l 761 7 q 801 40 801 7 l 801 972 l 1153 972 z "},"":{"ha":1169,"x_min":-3,"x_max":1172,"o":"m 1115 40 q 1172 7 1129 7 l 1172 0 l 1010 0 l 1010 7 q 1035 15 1028 7 q 1038 35 1042 22 l 922 331 l 540 331 l 429 0 l 415 0 l 54 932 q -3 965 40 965 l -3 972 l 160 972 l 160 965 q 132 938 124 965 l 453 113 l 740 972 l 753 972 l 1115 40 m 544 344 l 917 344 l 717 860 l 544 344 z "},"":{"ha":1053,"x_min":0,"x_max":1054,"o":"m 958 972 l 1053 972 l 1053 965 q 999 932 1011 965 l 689 0 l 675 0 l 546 331 l 164 331 l 65 36 q 94 7 58 7 l 94 0 l 0 0 l 0 7 q 54 40 43 7 l 364 972 l 378 972 l 713 113 l 988 936 q 958 965 996 965 l 958 972 m 169 344 l 542 344 l 340 860 l 169 344 z "},"":{"ha":1597,"x_min":0,"x_max":1594,"o":"m 1499 972 l 1593 972 l 1593 965 q 1542 932 1551 965 l 1296 0 l 1283 0 l 953 843 l 689 0 l 675 0 l 546 331 l 164 331 l 65 36 q 94 7 58 7 l 94 0 l 0 0 l 0 7 q 54 40 43 7 l 364 972 l 378 972 l 711 115 l 979 972 l 993 972 l 1315 125 l 1529 936 q 1525 958 1533 950 q 1499 965 1517 965 l 1499 972 m 169 344 l 542 344 l 340 860 l 169 344 z "},"":{"ha":1350,"x_min":-1,"x_max":1314,"o":"m 772 786 q 803 701 774 739 q 881 635 833 663 q 986 583 929 608 q 1101 529 1043 558 q 1206 465 1158 500 q 1283 377 1254 431 q 1313 257 1313 324 q 1281 138 1313 192 q 1197 53 1249 85 q 1086 3 1146 21 q 967 -14 1026 -14 q 856 -3 907 -14 q 770 20 806 7 q 704 59 735 33 q 656 103 674 85 q 621 155 639 121 q 596 205 603 189 q 576 254 589 221 l 546 331 l 164 331 l 65 36 q 94 7 58 7 l 94 0 l 0 0 l 0 7 q 54 40 43 7 l 364 972 l 378 972 l 676 207 q 713 131 692 164 q 768 67 735 99 q 852 17 801 35 q 967 0 903 0 q 1097 28 1039 0 q 1188 110 1154 56 q 1222 233 1222 164 q 1201 328 1222 286 q 1143 399 1179 371 q 1061 454 1107 428 q 967 500 1015 481 q 873 544 919 519 q 790 597 826 569 q 728 663 753 624 q 703 753 704 703 q 774 928 696 869 q 981 986 851 986 q 1229 899 1124 986 l 1243 776 q 1147 919 1211 865 q 981 972 1082 972 q 827 920 883 972 q 772 786 771 868 m 169 344 l 542 344 l 340 860 l 169 344 z "},"":{"ha":1524,"x_min":39,"x_max":1526,"o":"m 1469 40 q 1525 7 1482 7 l 1525 0 l 1364 0 l 1364 7 q 1389 15 1382 7 q 1390 35 1396 22 l 1275 331 l 893 331 q 874 271 876 279 q 872 267 874 269 q 519 -14 779 -14 q 276 53 386 -14 q 103 235 165 121 q 40 486 40 350 q 103 737 40 622 q 276 919 165 851 q 519 986 386 986 q 658 966 597 986 q 783 899 718 946 l 796 776 q 687 920 761 868 q 519 972 613 972 q 322 908 410 972 q 184 732 233 843 q 135 486 135 621 q 184 240 135 351 q 322 65 233 129 q 519 0 410 0 q 644 22 588 0 q 735 72 700 43 q 798 144 769 100 q 839 217 826 188 q 865 286 851 247 l 1093 972 l 1107 972 l 1469 40 m 897 344 l 1271 344 l 1069 860 l 897 344 z "},"":{"ha":1256,"x_min":40,"x_max":1203,"o":"m 1201 965 q 1161 932 1161 965 l 1161 40 q 1201 7 1161 7 l 1201 0 l 1039 0 l 1039 7 q 1081 40 1081 7 l 1081 479 l 594 479 l 594 203 q 635 169 594 169 l 635 163 l 472 163 l 472 169 q 513 203 513 169 l 513 769 q 472 803 513 803 l 472 810 l 635 810 l 635 803 q 594 769 594 803 l 594 493 l 1081 493 l 1081 932 q 1039 965 1081 965 l 1039 972 l 1201 972 l 1201 965 m 519 0 q 700 42 615 0 q 838 163 785 85 l 850 163 q 519 -14 738 -14 q 276 53 386 -14 q 103 235 165 121 q 40 486 40 350 q 103 737 40 622 q 276 919 165 851 q 519 986 386 986 q 658 966 597 986 q 783 899 718 946 l 796 776 q 687 920 761 868 q 519 972 613 972 q 322 908 410 972 q 184 732 233 843 q 135 486 135 621 q 184 240 135 351 q 322 65 233 129 q 519 0 410 0 z "},"":{"ha":890,"x_min":40,"x_max":851,"o":"m 365 677 q 402 716 365 677 q 549 756 439 756 q 734 677 658 756 q 810 486 810 599 q 734 295 810 374 q 549 217 658 217 q 365 295 439 217 q 290 486 290 374 q 365 677 290 599 m 416 300 q 439 265 416 300 q 549 229 461 229 q 683 300 636 229 q 729 486 729 371 q 683 672 729 601 q 549 743 636 743 q 416 672 461 743 q 371 486 371 601 q 416 300 371 371 m 838 163 l 850 163 q 519 -14 738 -14 q 276 53 386 -14 q 103 235 165 121 q 40 486 40 350 q 103 737 40 622 q 276 919 165 851 q 519 986 386 986 q 658 966 597 986 q 783 899 718 946 l 796 776 q 687 920 761 868 q 519 972 613 972 q 322 908 410 972 q 184 732 233 843 q 135 486 135 621 q 184 240 135 351 q 322 65 233 129 q 519 0 410 0 q 700 42 615 0 q 838 163 785 85 z "},"":{"ha":1735,"x_min":53,"x_max":1694,"o":"m 1214 986 q 1403 947 1314 986 q 1556 840 1493 907 q 1656 680 1619 772 q 1693 486 1693 588 q 1631 235 1693 350 q 1458 53 1568 121 q 1214 -14 1347 -14 q 956 63 1071 -14 q 782 267 840 139 q 610 72 725 144 q 343 0 496 0 l 53 0 l 53 7 q 93 40 93 7 l 93 932 q 53 965 93 965 l 53 972 l 343 972 q 610 900 496 972 q 782 706 725 828 q 956 910 840 833 q 1214 986 1071 986 m 343 14 q 560 78 471 14 q 692 246 650 142 q 735 486 735 350 q 691 726 735 621 q 558 895 647 832 q 343 958 468 958 l 175 958 l 175 14 l 343 14 m 1016 65 q 1060 32 1016 65 q 1214 0 1104 0 q 1413 65 1324 0 q 1550 240 1501 129 q 1599 486 1599 351 q 1550 732 1599 621 q 1413 908 1501 843 q 1214 972 1324 972 q 1060 934 1132 972 q 938 831 988 896 q 858 677 888 767 q 829 486 829 588 q 878 240 829 351 q 1016 65 928 129 z "},"":{"ha":1436,"x_min":51,"x_max":1424,"o":"m 1363 40 q 1424 7 1381 7 l 1424 0 l 1261 0 l 1261 7 q 1281 40 1299 7 l 1047 482 q 983 479 1015 479 l 849 479 l 849 40 q 889 7 849 7 l 889 0 l 726 0 l 726 7 q 767 40 767 7 l 767 479 l 375 479 q 342 439 342 479 l 335 439 l 335 533 l 342 533 q 375 493 342 493 l 767 493 l 767 932 q 726 965 767 965 l 726 972 l 983 972 q 1347 729 1347 972 q 1315 612 1347 663 q 1224 530 1282 561 q 1083 486 1165 499 l 1131 479 l 1363 40 m 983 493 q 1185 554 1111 493 q 1260 729 1260 615 q 983 958 1260 958 l 849 958 l 849 493 l 983 493 m 538 14 q 584 22 564 14 q 618 49 604 31 q 638 78 632 68 q 653 108 643 88 l 660 108 l 618 0 l 51 0 l 51 7 q 92 40 92 7 l 92 932 q 51 965 92 965 l 51 972 l 578 972 l 618 864 l 611 864 q 597 894 603 885 q 578 923 592 904 q 544 950 564 942 q 497 958 524 958 l 174 958 l 174 14 l 538 14 z "},"":{"ha":1242,"x_min":51,"x_max":1226,"o":"m 1219 108 l 1226 108 l 1186 0 l 618 0 l 618 7 q 658 40 658 7 l 658 479 l 172 479 l 172 40 q 214 7 172 7 l 214 0 l 51 0 l 51 7 q 92 40 92 7 l 92 932 q 51 965 92 965 l 51 972 l 214 972 l 214 965 q 172 932 172 965 l 172 493 l 658 493 l 658 932 q 618 965 658 965 l 618 972 l 1144 972 l 1186 864 l 1179 864 q 1164 894 1169 885 q 1144 923 1158 904 q 1110 950 1131 942 q 1064 958 1090 958 l 740 958 l 740 493 l 1024 493 q 1057 533 1057 493 l 1064 533 l 1064 439 l 1057 439 q 1024 479 1057 479 l 740 479 l 740 14 l 1104 14 q 1151 22 1131 14 q 1185 49 1171 31 q 1204 78 1199 68 q 1219 108 1210 88 z "},"":{"ha":1372,"x_min":50,"x_max":1331,"o":"m 1128 24 q 1324 81 1226 31 l 1326 75 q 1190 19 1265 38 q 1060 0 1115 0 q 599 197 824 0 q 539 251 579 214 q 477 306 499 288 q 419 353 456 325 q 358 395 383 381 q 303 421 333 410 q 247 432 274 432 l 172 335 l 172 40 q 214 7 172 7 l 214 0 l 51 0 l 51 7 q 92 40 92 7 l 92 932 q 51 965 92 965 l 51 972 l 214 972 l 214 965 q 172 932 172 965 l 172 353 l 615 932 q 606 965 640 965 l 606 972 l 700 972 l 700 965 q 628 932 654 965 l 261 451 q 327 445 296 450 q 392 426 358 440 q 445 402 425 411 q 503 366 465 393 q 553 328 540 339 q 612 281 567 318 q 669 233 657 243 q 929 62 824 107 q 1128 24 1035 17 m 1331 324 l 1289 217 l 817 217 l 817 222 q 857 257 857 222 l 857 932 q 817 965 857 965 l 817 972 l 1263 972 l 1303 864 l 1296 864 q 1282 894 1288 885 q 1262 923 1276 904 q 1227 950 1247 942 q 1182 958 1207 958 l 939 958 l 939 601 l 1222 601 q 1256 642 1256 601 l 1263 642 l 1263 547 l 1256 547 q 1222 588 1256 588 l 939 588 l 939 229 l 1208 229 q 1255 238 1235 229 q 1289 265 1275 247 q 1308 294 1303 283 q 1324 324 1314 304 l 1331 324 z "},"":{"ha":1489,"x_min":51,"x_max":1451,"o":"m 1129 24 q 1325 81 1228 31 l 1328 75 q 1192 19 1267 38 q 1061 0 1117 0 q 600 197 825 0 q 549 243 581 214 q 496 290 517 272 q 446 333 475 308 q 394 374 417 358 q 345 403 371 389 q 295 425 319 418 q 249 432 271 432 l 174 335 l 174 40 q 215 7 174 7 l 215 0 l 53 0 l 53 7 q 93 40 93 7 l 93 932 q 53 965 93 965 l 53 972 l 215 972 l 215 965 q 174 932 174 965 l 174 353 l 617 932 q 607 965 642 965 l 607 972 l 701 972 l 701 965 q 629 932 656 965 l 263 451 q 328 445 297 450 q 393 426 360 440 q 447 402 426 411 q 504 366 467 393 q 555 328 542 339 q 613 281 568 318 q 671 233 658 243 q 931 62 825 107 q 1129 24 1036 17 m 807 872 q 861 929 807 872 q 1074 986 915 986 q 1342 872 1233 986 q 1450 594 1450 757 q 1342 317 1450 431 q 1074 203 1233 203 q 807 317 915 203 q 699 594 699 431 q 807 872 699 757 m 1075 217 q 1283 324 1204 217 q 1363 594 1363 431 q 1328 787 1363 701 q 1226 922 1293 872 q 1075 972 1160 972 q 866 865 946 972 q 786 594 786 757 q 822 402 786 488 q 923 267 857 317 q 1075 217 989 217 z "},"":{"ha":1493,"x_min":51,"x_max":1458,"o":"m 1363 972 l 1457 972 l 1457 965 q 1417 932 1417 965 l 1417 486 q 1342 279 1417 356 q 1140 203 1267 203 q 909 274 996 203 q 822 486 822 344 l 822 932 q 782 965 822 965 l 782 972 l 944 972 l 944 965 q 903 932 903 965 l 903 486 q 929 344 903 404 q 1010 250 956 283 q 1140 217 1064 217 q 1332 290 1261 217 q 1403 486 1403 364 l 1403 932 q 1363 965 1403 965 l 1363 972 m 1128 24 q 1324 81 1226 31 l 1326 75 q 1190 19 1265 38 q 1060 0 1115 0 q 599 197 824 0 q 539 251 579 214 q 477 306 499 288 q 419 353 456 325 q 358 395 383 381 q 303 421 333 410 q 247 432 274 432 l 174 335 l 174 40 q 214 7 174 7 l 214 0 l 51 0 l 51 7 q 92 40 92 7 l 92 932 q 51 965 92 965 l 51 972 l 214 972 l 214 965 q 174 932 174 965 l 174 353 l 615 932 q 606 965 640 965 l 606 972 l 700 972 l 700 965 q 628 932 654 965 l 261 451 q 327 445 296 450 q 392 426 358 440 q 445 402 425 411 q 503 366 465 393 q 553 328 540 339 q 612 281 567 318 q 669 233 657 243 q 929 62 824 107 q 1128 24 1035 17 z "},"":{"ha":1117,"x_min":51,"x_max":1119,"o":"m 571 14 q 617 22 597 14 q 651 49 638 31 q 671 78 665 68 q 686 108 676 88 l 693 108 l 653 0 l 51 0 l 51 7 q 92 40 92 7 l 92 932 q 51 965 92 965 l 51 972 l 214 972 l 214 965 q 172 932 172 965 l 172 14 l 571 14 m 1063 40 q 1118 7 1075 7 l 1118 0 l 956 0 l 956 7 q 983 35 992 7 l 868 331 l 486 331 l 442 197 q 469 169 433 169 l 469 163 l 375 163 l 375 169 q 429 203 418 169 l 686 972 l 700 972 l 1063 40 m 490 344 l 863 344 l 663 860 l 490 344 z "},"":{"ha":875,"x_min":50,"x_max":835,"o":"m 835 269 l 794 163 l 321 163 l 321 169 q 363 203 363 169 l 363 932 q 321 965 363 965 l 321 972 l 767 972 l 807 864 l 801 864 q 786 894 792 885 q 767 923 781 904 q 733 950 753 942 q 686 958 713 958 l 443 958 l 443 601 l 726 601 q 760 642 760 601 l 767 642 l 767 547 l 760 547 q 726 588 760 588 l 443 588 l 443 175 l 713 175 q 759 184 739 175 q 793 211 779 193 q 813 240 807 229 q 828 269 818 250 l 835 269 m 700 14 q 828 108 785 14 l 835 108 l 794 0 l 51 0 l 51 7 q 92 40 92 7 l 92 932 q 51 965 92 965 l 51 972 l 214 972 l 214 965 q 172 932 172 965 l 172 14 l 700 14 z "},"":{"ha":624,"x_min":51,"x_max":619,"o":"m 476 169 l 476 163 l 315 163 l 315 169 q 356 203 356 169 l 356 932 q 315 965 356 965 l 315 972 l 476 972 l 476 965 q 436 932 436 965 l 436 203 q 476 169 436 169 m 611 108 l 618 108 l 578 0 l 51 0 l 51 7 q 92 40 92 7 l 92 932 q 51 965 92 965 l 51 972 l 214 972 l 214 965 q 172 932 172 965 l 172 14 l 497 14 q 536 21 518 14 q 565 36 554 28 q 586 61 575 44 q 601 85 597 78 q 611 108 604 92 z "},"":{"ha":1100,"x_min":51,"x_max":1106,"o":"m 524 14 q 570 22 550 14 q 604 49 590 31 q 624 78 618 68 q 639 108 629 88 l 646 108 l 606 0 l 51 0 l 51 7 q 92 40 92 7 l 92 932 q 51 965 92 965 l 51 972 l 214 972 l 214 965 q 172 932 172 965 l 172 14 l 524 14 m 1032 40 q 1104 7 1058 7 l 1104 0 l 922 0 l 922 7 q 931 40 957 7 l 567 496 l 443 335 l 443 203 q 483 169 443 169 l 483 163 l 321 163 l 321 169 q 363 203 363 169 l 363 932 q 321 965 363 965 l 321 972 l 483 972 l 483 965 q 443 932 443 965 l 443 353 l 885 932 q 875 965 911 965 l 875 972 l 969 972 l 969 965 q 899 932 924 965 l 614 558 l 1032 40 z "},"":{"ha":794,"x_min":51,"x_max":781,"o":"m 658 14 q 705 22 685 14 q 739 49 725 31 q 758 78 753 68 q 774 108 764 88 l 781 108 l 740 0 l 51 0 l 51 7 q 92 40 92 7 l 92 932 q 51 965 92 965 l 51 972 l 214 972 l 214 965 q 172 932 172 965 l 172 14 l 658 14 m 781 269 l 740 163 l 321 163 l 321 169 q 363 203 363 169 l 363 932 q 321 965 363 965 l 321 972 l 483 972 l 483 965 q 443 932 443 965 l 443 175 l 658 175 q 705 184 685 175 q 739 211 725 193 q 758 240 753 229 q 774 269 764 250 l 781 269 z "},"":{"ha":1313,"x_min":51,"x_max":1294,"o":"m 443 14 q 490 22 469 14 q 524 49 510 31 q 543 78 538 68 q 558 108 549 88 l 564 108 l 524 0 l 51 0 l 51 7 q 92 40 92 7 l 92 932 q 51 965 92 965 l 51 972 l 214 972 l 214 965 q 172 932 172 965 l 172 14 l 443 14 m 1247 40 q 1293 7 1253 7 l 1293 0 l 1132 0 l 1132 7 q 1160 16 1151 7 q 1167 40 1169 25 l 1046 911 l 767 0 l 754 0 l 450 911 l 371 203 q 378 178 369 188 q 407 169 388 169 l 407 163 l 313 163 l 313 169 q 357 203 354 169 l 439 932 q 431 956 440 947 q 403 965 422 965 l 403 972 l 511 972 l 796 138 l 1050 972 l 1158 972 l 1158 965 q 1130 956 1139 965 q 1124 932 1121 947 l 1247 40 z "},"":{"ha":1103,"x_min":51,"x_max":1051,"o":"m 564 14 q 597 18 582 14 q 624 31 613 22 q 644 47 636 40 q 660 69 651 54 q 670 89 668 83 q 679 108 672 94 l 686 108 l 646 0 l 51 0 l 51 7 q 92 40 92 7 l 92 932 q 51 965 92 965 l 51 972 l 214 972 l 214 965 q 172 932 172 965 l 172 14 l 564 14 m 956 972 l 1050 972 l 1050 965 q 1010 932 1010 965 l 1010 0 l 997 0 l 375 932 l 375 203 q 415 169 375 169 l 415 163 l 321 163 l 321 169 q 363 203 363 169 l 363 932 q 321 965 363 965 l 321 972 l 443 972 l 997 149 l 997 932 q 956 965 997 965 l 956 972 z "},"":{"ha":1096,"x_min":53,"x_max":1060,"o":"m 383 866 q 440 926 383 866 q 664 986 497 986 q 945 866 831 986 q 1060 574 1060 746 q 945 283 1060 403 q 664 163 831 163 q 383 283 497 163 q 269 574 269 403 q 383 866 269 746 m 438 290 q 482 232 438 290 q 664 175 526 175 q 890 290 801 175 q 978 574 978 404 q 890 858 978 744 q 664 972 801 972 q 538 942 596 972 q 438 858 479 911 q 374 731 397 804 q 350 574 350 657 q 438 290 350 404 m 756 14 q 883 108 840 14 l 890 108 l 850 0 l 53 0 l 53 7 q 93 40 93 7 l 93 932 q 53 965 93 965 l 53 972 l 215 972 l 215 965 q 175 932 175 965 l 175 14 l 756 14 z "},"":{"ha":1038,"x_min":51,"x_max":997,"o":"m 754 14 q 882 108 839 14 l 889 108 l 849 0 l 51 0 l 51 7 q 92 40 92 7 l 92 932 q 51 965 92 965 l 51 972 l 214 972 l 214 965 q 172 932 172 965 l 172 14 l 754 14 m 903 972 l 997 972 l 997 965 q 956 932 956 965 l 956 432 q 881 225 956 301 q 679 149 807 149 q 449 220 536 149 q 363 432 363 292 l 363 932 q 321 965 363 965 l 321 972 l 483 972 l 483 965 q 443 932 443 965 l 443 432 q 504 235 443 308 q 679 163 565 163 q 872 236 800 163 q 943 432 943 310 l 943 932 q 903 965 943 965 l 903 972 z "},"":{"ha":1278,"x_min":51,"x_max":1226,"o":"m 1132 972 l 1226 972 l 1226 965 q 1186 932 1186 965 l 1186 0 l 1172 0 l 551 932 q 497 965 529 965 l 497 972 l 618 972 l 1172 149 l 1172 932 q 1132 965 1172 965 l 1132 972 m 51 972 l 174 972 l 740 128 l 740 0 l 726 0 l 106 932 l 106 40 q 146 7 106 7 l 146 0 l 51 0 l 51 7 q 92 40 92 7 l 92 932 q 51 965 92 965 l 51 972 z "},"":{"ha":1307,"x_min":51,"x_max":1308,"o":"m 1267 972 l 1307 864 l 1300 864 q 1286 894 1292 885 q 1266 923 1281 904 q 1231 950 1251 942 q 1186 958 1211 958 l 997 958 l 997 40 q 1038 7 997 7 l 1038 0 l 875 0 l 875 7 q 915 40 915 7 l 915 958 l 726 958 q 680 950 700 958 q 646 923 660 942 q 626 894 632 904 q 611 864 621 885 l 606 864 l 646 972 l 1267 972 m 51 972 l 174 972 l 740 128 l 740 0 l 726 0 l 106 932 l 106 40 q 146 7 106 7 l 146 0 l 51 0 l 51 7 q 92 40 92 7 l 92 932 q 51 965 92 965 l 51 972 z "},"":{"ha":1733,"x_min":39,"x_max":1715,"o":"m 1701 163 l 1715 163 q 1383 -14 1601 -14 q 1125 63 1240 -14 q 951 267 1010 140 q 778 63 893 140 q 519 -14 663 -14 q 276 53 386 -14 q 103 235 165 121 q 40 486 40 350 q 103 737 40 622 q 276 919 165 851 q 519 986 386 986 q 778 909 663 986 q 951 706 893 832 q 1125 909 1010 832 q 1383 986 1240 986 q 1522 966 1461 986 q 1647 899 1583 946 l 1661 776 q 1551 920 1625 868 q 1383 972 1478 972 q 1230 934 1301 972 q 1108 831 1158 896 q 1028 677 1057 767 q 999 486 999 588 q 1048 240 999 351 q 1185 65 1097 129 q 1383 0 1274 0 q 1565 42 1481 0 q 1701 163 1649 85 m 519 0 q 674 38 601 0 q 797 141 746 76 q 876 295 847 206 q 904 486 904 385 q 856 732 904 621 q 718 908 807 843 q 519 972 629 972 q 322 908 410 972 q 184 732 233 843 q 135 486 135 621 q 184 240 135 351 q 322 65 233 129 q 519 0 410 0 z "},"":{"ha":1776,"x_min":39,"x_max":1749,"o":"m 1425 358 l 1749 358 l 1749 351 q 1708 317 1708 351 l 1708 0 l 1701 0 l 1626 65 q 1383 -14 1526 -14 q 1125 63 1240 -14 q 951 267 1010 140 q 778 63 893 140 q 519 -14 663 -14 q 276 53 386 -14 q 103 235 165 121 q 40 486 40 350 q 103 737 40 622 q 276 919 165 851 q 519 986 386 986 q 701 950 615 986 q 850 851 786 914 q 951 706 914 789 q 1125 909 1010 832 q 1383 986 1240 986 q 1523 966 1464 986 q 1647 899 1582 946 l 1661 776 q 1556 917 1628 861 q 1383 972 1485 972 q 1185 908 1274 972 q 1048 732 1097 843 q 999 486 999 621 q 1048 240 999 351 q 1185 65 1097 129 q 1383 0 1274 0 q 1556 41 1485 0 q 1626 121 1626 82 l 1626 344 l 1425 344 l 1425 358 m 519 0 q 674 38 601 0 q 797 141 746 76 q 876 295 847 206 q 904 486 904 385 q 856 732 904 621 q 718 908 807 843 q 519 972 629 972 q 322 908 410 972 q 184 732 233 843 q 135 486 135 621 q 184 240 135 351 q 322 65 233 129 q 519 0 410 0 z "},"":{"ha":1653,"x_min":40,"x_max":1600,"o":"m 1600 965 q 1560 932 1560 965 l 1560 40 q 1600 7 1560 7 l 1600 0 l 1438 0 l 1438 7 q 1478 40 1478 7 l 1478 479 l 999 479 q 935 231 997 344 q 762 52 872 118 q 519 -14 651 -14 q 276 53 386 -14 q 103 235 165 121 q 40 486 40 350 q 103 737 40 622 q 276 919 165 851 q 519 986 386 986 q 762 920 651 986 q 935 741 872 854 q 999 493 997 628 l 1478 493 l 1478 932 q 1438 965 1478 965 l 1438 972 l 1600 972 l 1600 965 m 519 0 q 674 38 601 0 q 797 141 746 76 q 876 295 847 206 q 904 486 904 385 q 856 732 904 621 q 718 908 807 843 q 519 972 629 972 q 322 908 410 972 q 184 732 233 843 q 135 486 135 621 q 184 240 135 351 q 322 65 233 129 q 519 0 410 0 z "},"":{"ha":1514,"x_min":40,"x_max":1463,"o":"m 1368 972 l 1463 972 l 1463 965 q 1422 932 1422 965 l 1422 0 l 1408 0 l 993 563 q 999 486 999 528 q 936 235 999 350 q 763 53 874 121 q 519 -14 653 -14 q 276 53 386 -14 q 103 235 165 121 q 40 486 40 350 q 103 737 40 622 q 276 919 165 851 q 519 986 386 986 q 793 899 671 986 q 891 817 842 865 q 965 738 940 768 q 1025 658 989 707 l 1408 146 l 1408 932 q 1368 965 1408 965 l 1368 972 m 322 65 q 366 32 322 65 q 519 0 410 0 q 718 65 629 0 q 856 240 807 129 q 904 486 904 351 q 814 807 904 672 q 519 972 700 972 q 322 908 410 972 q 184 732 233 843 q 135 486 135 621 q 184 240 135 351 q 322 65 233 129 z "},"":{"ha":1904,"x_min":40,"x_max":1864,"o":"m 1383 986 q 1628 919 1518 986 q 1801 737 1739 851 q 1864 486 1864 622 q 1801 235 1864 350 q 1628 53 1739 121 q 1383 -14 1518 -14 q 1125 63 1240 -14 q 951 267 1010 140 q 778 63 893 140 q 519 -14 663 -14 q 276 53 386 -14 q 103 235 165 121 q 40 486 40 350 q 103 737 40 622 q 276 919 165 851 q 519 986 386 986 q 778 909 663 986 q 951 706 893 832 q 1125 909 1010 832 q 1383 986 1240 986 m 519 0 q 674 38 601 0 q 797 141 746 76 q 876 295 847 206 q 904 486 904 385 q 856 732 904 621 q 718 908 807 843 q 519 972 629 972 q 322 908 410 972 q 184 732 233 843 q 135 486 135 621 q 184 240 135 351 q 322 65 233 129 q 519 0 410 0 m 1185 65 q 1230 32 1185 65 q 1383 0 1274 0 q 1582 65 1493 0 q 1719 240 1671 129 q 1768 486 1768 351 q 1719 732 1768 621 q 1582 908 1671 843 q 1383 972 1493 972 q 1230 934 1301 972 q 1108 831 1158 896 q 1028 677 1057 767 q 999 486 999 588 q 1048 240 999 351 q 1185 65 1097 129 z "},"":{"ha":1904,"x_min":40,"x_max":1949,"o":"m 1943 -79 q 1938 -108 1947 -87 q 1914 -140 1929 -128 q 1775 -182 1864 -182 q 1385 -14 1622 -182 q 1383 -14 1383 -14 q 1125 63 1240 -14 q 951 267 1010 140 q 778 63 893 140 q 519 -14 663 -14 q 276 53 386 -14 q 103 235 165 121 q 40 486 40 350 q 103 737 40 622 q 276 919 165 851 q 519 986 386 986 q 778 909 663 986 q 951 706 893 832 q 1125 909 1010 832 q 1383 986 1240 986 q 1628 919 1518 986 q 1801 737 1739 851 q 1863 486 1863 622 q 1733 141 1863 285 q 1410 -12 1604 -3 q 1642 -122 1525 -86 q 1939 -74 1835 -182 q 1943 -79 1942 -76 m 519 0 q 674 38 601 0 q 797 141 746 76 q 876 295 847 206 q 904 486 904 385 q 856 732 904 621 q 718 908 807 843 q 519 972 629 972 q 322 908 410 972 q 184 732 233 843 q 135 486 135 621 q 184 240 135 351 q 322 65 233 129 q 519 0 410 0 m 1185 65 q 1230 32 1185 65 q 1383 0 1274 0 q 1582 65 1493 0 q 1719 240 1671 129 q 1768 486 1768 351 q 1719 732 1768 621 q 1582 908 1671 843 q 1383 972 1493 972 q 1230 934 1301 972 q 1108 831 1158 896 q 1028 677 1057 767 q 999 486 999 588 q 1048 240 999 351 q 1185 65 1097 129 z "},"":{"ha":1344,"x_min":50,"x_max":1331,"o":"m 1274 257 q 1331 222 1288 222 l 1331 217 l 1168 217 l 1168 222 q 1187 226 1179 222 q 1196 237 1194 231 q 1194 251 1197 243 l 1088 526 l 846 526 l 772 306 q 801 276 764 276 l 801 269 l 707 269 l 707 276 q 760 311 749 276 l 982 972 l 996 972 l 1274 257 m 851 540 l 1082 540 l 958 860 l 851 540 m 1128 24 q 1324 81 1226 31 l 1326 75 q 1190 19 1265 38 q 1060 0 1115 0 q 599 197 824 0 q 547 243 579 214 q 494 291 514 272 q 444 334 474 310 q 392 374 414 358 q 344 403 369 389 q 294 425 318 418 q 247 432 269 432 l 172 432 l 172 40 q 214 7 172 7 l 214 0 l 51 0 l 51 7 q 92 40 92 7 l 92 932 q 51 965 92 965 l 51 972 l 308 972 q 578 901 483 972 q 672 703 672 831 q 590 522 672 593 q 371 435 508 450 q 401 424 386 431 q 432 409 415 418 q 461 393 449 400 q 493 372 474 386 q 523 351 513 358 q 558 324 533 343 q 591 298 582 306 q 629 267 600 290 q 669 233 658 243 q 929 62 824 107 q 1128 24 1035 17 m 172 446 l 308 446 q 513 515 442 446 q 585 703 585 583 q 515 894 585 829 q 308 958 444 958 l 172 958 l 172 446 z "},"":{"ha":1372,"x_min":50,"x_max":1331,"o":"m 1331 324 l 1289 217 l 817 217 l 817 222 q 857 257 857 222 l 857 932 q 817 965 857 965 l 817 972 l 1263 972 l 1303 864 l 1296 864 q 1282 894 1288 885 q 1262 923 1276 904 q 1227 950 1247 942 q 1182 958 1207 958 l 939 958 l 939 601 l 1222 601 q 1256 642 1256 601 l 1263 642 l 1263 547 l 1256 547 q 1222 588 1256 588 l 939 588 l 939 229 l 1208 229 q 1255 238 1235 229 q 1289 265 1275 247 q 1308 294 1303 283 q 1324 324 1314 304 l 1331 324 m 1128 24 q 1324 81 1226 31 l 1326 75 q 1190 19 1265 38 q 1060 0 1115 0 q 599 197 824 0 q 538 251 579 214 q 476 306 497 288 q 419 353 454 325 q 358 396 383 382 q 303 421 333 410 q 247 432 274 432 l 172 432 l 172 40 q 214 7 172 7 l 214 0 l 51 0 l 51 7 q 92 40 92 7 l 92 932 q 51 965 92 965 l 51 972 l 308 972 q 578 901 483 972 q 672 703 672 831 q 590 522 672 593 q 371 435 508 450 q 401 424 386 431 q 432 409 415 418 q 461 393 449 400 q 493 372 474 386 q 523 351 513 358 q 558 324 533 343 q 591 298 582 306 q 629 267 600 290 q 669 233 658 243 q 860 99 775 147 q 1006 35 944 50 q 1128 24 1067 19 m 174 446 l 308 446 q 513 515 442 446 q 585 703 585 583 q 515 894 585 829 q 308 958 444 958 l 174 958 l 174 446 z "},"":{"ha":1576,"x_min":53,"x_max":1543,"o":"m 900 872 q 954 929 900 872 q 1167 986 1008 986 q 1435 872 1326 986 q 1543 594 1543 757 q 1494 397 1543 488 q 1358 255 1444 307 q 1167 203 1272 203 q 900 317 1008 203 q 792 594 792 431 q 900 872 792 757 m 958 324 q 998 270 958 324 q 1167 217 1038 217 q 1376 324 1296 217 q 1456 594 1456 431 q 1420 787 1456 701 q 1319 922 1385 872 q 1167 972 1253 972 q 958 865 1038 972 q 879 594 879 757 q 958 324 879 431 m 1129 24 q 1325 81 1228 31 l 1328 75 q 1192 19 1267 38 q 1061 0 1117 0 q 600 197 825 0 q 548 243 581 214 q 495 291 515 272 q 445 334 475 310 q 393 374 415 358 q 345 403 371 389 q 295 425 319 418 q 249 432 271 432 l 175 432 l 175 40 q 215 7 175 7 l 215 0 l 53 0 l 53 7 q 93 40 93 7 l 93 932 q 53 965 93 965 l 53 972 l 310 972 q 579 901 485 972 q 674 703 674 831 q 592 522 674 593 q 372 435 510 450 q 402 424 388 431 q 433 409 417 418 q 463 393 450 400 q 494 372 475 386 q 524 351 514 358 q 559 324 535 343 q 592 298 583 306 q 631 267 601 290 q 671 233 660 243 q 931 62 825 107 q 1129 24 1036 17 m 175 446 l 310 446 q 515 515 443 446 q 586 703 586 583 q 516 894 586 829 q 310 958 446 958 l 175 958 l 175 446 z "},"":{"ha":1504,"x_min":51,"x_max":1469,"o":"m 1375 972 l 1469 972 l 1469 965 q 1429 932 1429 965 l 1429 486 q 1354 279 1429 356 q 1151 203 1279 203 q 922 274 1008 203 q 835 486 835 344 l 835 932 q 794 965 835 965 l 794 972 l 956 972 l 956 965 q 915 932 915 965 l 915 486 q 942 344 915 404 q 1022 250 968 283 q 1151 217 1076 217 q 1344 290 1272 217 q 1415 486 1415 364 l 1415 932 q 1375 965 1415 965 l 1375 972 m 1128 24 q 1324 81 1226 31 l 1326 75 q 1190 19 1265 38 q 1060 0 1115 0 q 599 197 824 0 q 538 251 579 214 q 476 306 497 288 q 419 353 454 325 q 358 396 383 382 q 303 421 333 410 q 247 432 274 432 l 174 432 l 174 40 q 214 7 174 7 l 214 0 l 51 0 l 51 7 q 92 40 92 7 l 92 932 q 51 965 92 965 l 51 972 l 308 972 q 578 901 483 972 q 672 703 672 831 q 590 522 672 593 q 371 435 508 450 q 401 424 386 431 q 432 409 415 418 q 461 393 449 400 q 493 372 474 386 q 523 351 513 358 q 558 324 533 343 q 591 298 582 306 q 629 267 600 290 q 669 233 658 243 q 929 62 824 107 q 1128 24 1035 17 m 174 446 l 308 446 q 513 515 442 446 q 585 703 585 583 q 515 894 585 829 q 308 958 444 958 l 174 958 l 174 446 z "},"":{"ha":1393,"x_min":36,"x_max":1357,"o":"m 815 786 q 847 701 817 739 q 924 635 876 663 q 1030 583 972 608 q 1144 529 1088 558 q 1249 465 1201 500 q 1327 377 1297 431 q 1357 257 1357 324 q 1335 159 1357 204 q 1279 83 1314 114 q 1199 29 1244 51 q 1105 -3 1153 7 q 1011 -14 1057 -14 q 796 50 888 -14 q 669 206 704 114 q 597 83 653 135 q 471 9 540 32 q 329 -14 401 -14 q 56 69 164 -14 l 38 207 q 140 63 64 126 q 329 0 217 0 q 428 17 382 0 q 510 63 475 33 q 565 137 544 93 q 585 233 585 181 q 556 340 585 293 q 483 417 528 386 q 384 474 439 447 q 274 526 329 500 q 174 580 219 551 q 97 653 128 608 q 64 753 67 697 q 136 928 58 869 q 342 986 214 986 q 592 899 485 986 l 604 776 q 508 919 572 865 q 342 972 443 972 q 189 920 244 972 q 133 786 133 868 q 165 701 135 739 q 242 636 194 663 q 347 584 289 610 q 461 530 404 558 q 566 467 518 501 q 644 379 614 432 q 674 261 674 326 l 675 261 q 697 183 675 226 q 760 97 719 139 q 867 28 800 56 q 1011 0 933 0 q 1193 64 1119 0 q 1267 233 1267 128 q 1238 340 1267 293 q 1165 417 1210 386 q 1066 474 1121 447 q 956 526 1011 500 q 856 580 901 551 q 779 653 810 608 q 746 753 749 697 q 818 928 740 869 q 1024 986 896 986 q 1274 899 1167 986 l 1286 776 q 1190 919 1254 865 q 1024 972 1125 972 q 871 920 926 972 q 815 786 815 868 z "},"":{"ha":1242,"x_min":36,"x_max":1247,"o":"m 1153 972 l 1247 972 l 1247 965 q 1185 932 1203 965 l 922 453 l 922 40 q 964 7 922 7 l 964 0 l 801 0 l 801 7 q 842 40 842 7 l 842 453 l 650 779 q 594 860 624 826 q 528 920 565 894 q 445 959 492 946 q 342 972 399 972 q 189 920 244 972 q 133 786 133 868 q 165 701 135 739 q 242 635 194 663 q 348 583 290 608 q 463 529 406 558 q 568 465 521 500 q 645 377 615 431 q 675 257 675 324 q 642 138 675 192 q 558 53 610 85 q 448 3 507 21 q 329 -14 389 -14 q 56 69 164 -14 l 38 207 q 140 63 64 126 q 329 0 217 0 q 511 64 438 0 q 585 233 585 128 q 556 340 585 293 q 483 417 528 386 q 384 474 439 447 q 274 526 329 500 q 174 580 219 551 q 97 653 128 608 q 64 753 67 697 q 136 928 58 869 q 342 986 214 986 q 454 974 400 986 q 564 938 508 963 q 669 867 619 913 q 754 757 718 821 l 918 468 l 1171 932 q 1153 965 1189 965 l 1153 972 z "},"":{"ha":1193,"x_min":-1,"x_max":1194,"o":"m 390 40 q 431 7 390 7 l 431 0 l 268 0 l 268 7 q 310 40 310 7 l 310 958 l 121 958 q 74 950 94 958 q 40 923 54 942 q 21 894 26 904 q 6 864 15 885 l -1 864 l 39 972 l 761 972 l 761 958 l 390 958 l 390 40 m 1153 972 l 1193 864 l 1188 864 q 1172 894 1178 885 q 1153 923 1167 904 q 1119 950 1139 942 q 1072 958 1099 958 l 883 958 l 883 40 q 924 7 883 7 l 924 0 l 761 0 l 761 7 q 801 40 801 7 l 801 972 l 1153 972 z "},"":{"ha":1169,"x_min":-3,"x_max":1172,"o":"m 1115 40 q 1172 7 1129 7 l 1172 0 l 1010 0 l 1010 7 q 1035 15 1028 7 q 1038 35 1042 22 l 922 331 l 540 331 l 429 0 l 415 0 l 54 932 q -3 965 40 965 l -3 972 l 160 972 l 160 965 q 132 938 124 965 l 453 113 l 740 972 l 753 972 l 1115 40 m 544 344 l 917 344 l 717 860 l 544 344 z "},"ﬆ":{"ha":1229,"x_min":38,"x_max":1231,"o":"m 1189 972 l 1229 864 l 1222 864 q 1208 894 1214 885 q 1188 923 1203 904 q 1154 950 1174 942 q 1108 958 1135 958 l 919 958 l 919 40 q 960 7 919 7 l 960 0 l 797 0 l 797 7 q 838 40 838 7 l 838 958 l 342 958 q 188 913 243 958 q 133 786 133 867 q 165 701 135 739 q 242 635 194 663 q 348 583 290 608 q 463 529 406 558 q 568 465 521 500 q 645 377 615 431 q 675 257 675 324 q 642 138 675 192 q 558 53 610 85 q 448 3 507 21 q 329 -14 389 -14 q 56 69 164 -14 l 38 207 q 140 63 64 126 q 329 0 217 0 q 511 64 438 0 q 585 233 585 128 q 556 340 585 293 q 483 417 528 386 q 384 474 439 447 q 274 526 329 500 q 174 580 219 551 q 97 653 128 608 q 64 753 67 697 q 81 856 61 813 q 141 925 101 900 q 230 961 181 950 q 342 972 279 972 l 1189 972 z "}}}
